<?xml version="1.0" encoding="UTF-8"?>
<svg id="Layer_1" xmlns="http://www.w3.org/2000/svg" viewBox="0 0 1069 521">
  <defs>
    <style>
      .cls-1 {
        fill: #fff;
      }
    </style>
  </defs>
  <g>
    <path class="cls-1" d="M466.14,226.67c0,44.93-35.15,78.03-78.28,78.03s-78.28-33.11-78.28-78.03,35.15-78.03,78.28-78.03,78.28,32.79,78.28,78.03ZM431.88,226.67c0-28.07-20.37-47.28-44.01-47.28s-44.01,19.21-44.01,47.28,20.37,47.28,44.01,47.28,44.01-19.53,44.01-47.28Z"/>
    <path class="cls-1" d="M635.01,226.67c0,44.93-35.15,78.03-78.28,78.03s-78.28-33.11-78.28-78.03,35.15-78.03,78.28-78.03,78.28,32.79,78.28,78.03ZM600.75,226.67c0-28.07-20.37-47.28-44.01-47.28s-44.01,19.21-44.01,47.28,20.37,47.28,44.01,47.28,44.01-19.53,44.01-47.28Z"/>
    <path class="cls-1" d="M796.85,153.36v140.09c0,57.63-33.99,81.16-74.16,81.16-37.82,0-60.58-25.3-69.17-45.98l29.83-12.42c5.31,12.7,18.33,27.69,39.3,27.69,25.72,0,41.65-15.87,41.65-45.74v-11.22h-1.2c-7.67,9.46-22.45,17.73-41.09,17.73-39.02,0-74.76-33.99-74.76-77.72s35.74-78.31,74.76-78.31c18.61,0,33.39,8.27,41.09,17.45h1.2v-12.7h32.54v-.04ZM766.73,226.95c0-27.48-18.33-47.57-41.65-47.57s-43.45,20.09-43.45,47.57,19.81,47,43.45,47,41.65-19.81,41.65-47Z"/>
    <path class="cls-1" d="M850.5,71.24v228.68h-33.42V71.24h33.42Z"/>
    <path class="cls-1" d="M980.74,252.36l26.6,17.73c-8.58,12.7-29.27,34.58-65.01,34.58-44.33,0-77.43-34.27-77.43-78.03,0-46.4,33.39-78.03,73.6-78.03s60.3,32.23,66.77,49.64l3.55,8.87-104.31,43.2c7.99,15.66,20.41,23.64,37.82,23.64s29.55-8.58,38.42-21.6h0ZM898.87,224.28l69.73-28.95c-3.83-9.75-15.37-16.54-28.95-16.54-17.41,0-41.65,15.37-40.78,45.49Z"/>
    <path class="cls-1" d="M183.07,206.37v-33.11h111.56c1.09,5.77,1.65,12.59,1.65,19.98,0,24.84-6.79,55.55-28.67,77.43-21.28,22.16-48.48,33.99-84.51,33.99-66.77,0-122.92-54.39-122.92-121.16s56.15-121.16,122.92-121.16c36.94,0,63.26,14.49,83.03,33.39l-23.36,23.36c-14.18-13.3-33.39-23.64-59.7-23.64-48.76,0-86.9,39.3-86.9,88.06s38.14,88.06,86.9,88.06c31.63,0,49.64-12.7,61.18-24.24,9.36-9.36,15.51-22.73,17.94-40.99l-79.12.04Z"/>
  </g>
  <g>
    <polygon class="cls-1" points="574.27 383.24 586.67 408.38 614.41 412.41 594.34 431.97 599.08 459.59 574.27 446.55 549.46 459.59 554.2 431.97 534.13 412.41 561.87 408.38 574.27 383.24"/>
    <polygon class="cls-1" points="672.53 383.24 684.93 408.38 712.67 412.41 692.6 431.97 697.33 459.59 672.53 446.55 647.72 459.59 652.46 431.97 632.39 412.41 660.12 408.38 672.53 383.24"/>
    <polygon class="cls-1" points="770.78 383.24 783.19 408.38 810.92 412.41 790.85 431.97 795.59 459.59 770.78 446.55 745.98 459.59 750.71 431.97 730.64 412.41 758.38 408.38 770.78 383.24"/>
    <polygon class="cls-1" points="869.04 383.24 881.44 408.38 909.18 412.41 889.11 431.97 893.85 459.59 869.04 446.55 844.23 459.59 848.97 431.97 828.9 412.41 856.64 408.38 869.04 383.24"/>
    <polygon class="cls-1" points="967.3 383.24 979.7 408.38 1007.44 412.41 987.37 431.97 992.1 459.59 967.3 446.55 942.49 459.59 947.23 431.97 927.16 412.41 954.89 408.38 967.3 383.24"/>
  </g>
  <g>
    <path class="cls-1" d="M61.16,459.62v-81.68h27.96c6.36,0,11.59,1.09,15.71,3.26,4.11,2.17,7.16,5.16,9.15,8.96,1.99,3.8,2.99,8.13,2.99,12.99s-1,9.15-2.99,12.88c-1.99,3.73-5.03,6.64-9.13,8.74-4.09,2.1-9.32,3.15-15.68,3.15h-22.2v-9.26h21.71c4.31,0,7.77-.63,10.39-1.89,2.61-1.26,4.52-3.05,5.73-5.37,1.21-2.32,1.81-5.07,1.81-8.25s-.6-6.08-1.81-8.47c-1.21-2.39-3.12-4.26-5.76-5.59-2.63-1.33-6.12-2-10.47-2h-16.99v72.52h-10.42ZM108.08,459.62l-19.73-36.78h11.73l20.06,36.78h-12.06Z"/>
    <path class="cls-1" d="M156.32,460.93c-5.92,0-11.03-1.32-15.32-3.95-4.29-2.63-7.6-6.3-9.92-11.02-2.32-4.71-3.48-10.21-3.48-16.5s1.13-11.82,3.4-16.61c2.27-4.79,5.47-8.53,9.62-11.24,4.15-2.7,9-4.06,14.55-4.06,3.25,0,6.46.54,9.62,1.62,3.16,1.08,6.03,2.81,8.61,5.21,2.58,2.39,4.63,5.55,6.17,9.46,1.53,3.91,2.3,8.7,2.3,14.36v4.11h-47.58v-8.33h42.26l-4.6,3.07c0-4.02-.63-7.59-1.89-10.72-1.26-3.12-3.13-5.57-5.62-7.35-2.49-1.77-5.57-2.66-9.26-2.66s-6.85.9-9.48,2.71-4.64,4.17-6.03,7.07c-1.39,2.91-2.08,6.02-2.08,9.35v5.54c0,4.53.79,8.38,2.36,11.54,1.57,3.16,3.77,5.56,6.61,7.18,2.83,1.63,6.11,2.44,9.84,2.44,2.41,0,4.6-.35,6.58-1.04,1.97-.69,3.67-1.75,5.1-3.15,1.43-1.41,2.52-3.15,3.29-5.23l9.54,2.63c-.95,3.07-2.56,5.77-4.82,8.11-2.27,2.34-5.07,4.17-8.41,5.48-3.34,1.32-7.12,1.97-11.32,1.97Z"/>
    <path class="cls-1" d="M211.53,459.62l-23.41-61.29h10.8l13.05,36.34c1.39,3.76,2.57,7.52,3.54,11.26.97,3.75,1.98,7.37,3.04,10.88h-3.62c1.06-3.51,2.07-7.13,3.04-10.88.97-3.75,2.13-7.5,3.48-11.26l13.05-36.34h10.8l-23.41,61.29h-10.36Z"/>
    <path class="cls-1" d="M261.9,388.3c-1.86,0-3.47-.64-4.82-1.92-1.35-1.28-2.03-2.81-2.03-4.6s.68-3.37,2.03-4.63c1.35-1.26,2.96-1.89,4.82-1.89s3.53.63,4.88,1.89c1.35,1.26,2.03,2.81,2.03,4.63s-.68,3.33-2.03,4.6c-1.35,1.28-2.98,1.92-4.88,1.92ZM256.92,459.62v-61.29h9.87v61.29h-9.87Z"/>
    <path class="cls-1" d="M309.87,460.93c-5.92,0-11.03-1.32-15.32-3.95-4.29-2.63-7.6-6.3-9.92-11.02-2.32-4.71-3.48-10.21-3.48-16.5s1.13-11.82,3.4-16.61c2.27-4.79,5.47-8.53,9.62-11.24,4.15-2.7,9-4.06,14.55-4.06,3.25,0,6.46.54,9.62,1.62,3.16,1.08,6.03,2.81,8.61,5.21,2.58,2.39,4.63,5.55,6.17,9.46,1.53,3.91,2.3,8.7,2.3,14.36v4.11h-47.58v-8.33h42.26l-4.6,3.07c0-4.02-.63-7.59-1.89-10.72-1.26-3.12-3.13-5.57-5.62-7.35-2.49-1.77-5.57-2.66-9.26-2.66s-6.85.9-9.48,2.71-4.64,4.17-6.03,7.07c-1.39,2.91-2.08,6.02-2.08,9.35v5.54c0,4.53.79,8.38,2.36,11.54,1.57,3.16,3.77,5.56,6.61,7.18,2.83,1.63,6.11,2.44,9.84,2.44,2.41,0,4.6-.35,6.58-1.04,1.97-.69,3.67-1.75,5.1-3.15,1.43-1.41,2.52-3.15,3.29-5.23l9.54,2.63c-.95,3.07-2.56,5.77-4.82,8.11-2.27,2.34-5.07,4.17-8.41,5.48-3.34,1.32-7.12,1.97-11.32,1.97Z"/>
    <path class="cls-1" d="M361.29,459.62l-18.58-61.29h10.47l7.46,26.75c1.02,3.65,2.12,7.79,3.29,12.42,1.17,4.62,2.32,9.86,3.45,15.71h-1.7c1.1-5.59,2.21-10.71,3.34-15.35,1.13-4.64,2.23-8.9,3.29-12.77l7.35-26.75h10.53l7.24,26.75c1.02,3.76,2.09,7.96,3.21,12.58,1.11,4.62,2.22,9.8,3.32,15.54h-1.75c1.17-5.66,2.33-10.81,3.48-15.43,1.15-4.62,2.26-8.85,3.32-12.69l7.46-26.75h10.47l-18.58,61.29h-9.81l-7.95-27.74c-.8-2.81-1.59-5.68-2.36-8.61-.77-2.92-1.52-5.92-2.25-8.99-.73-3.07-1.48-6.19-2.25-9.37h2.19c-.73,3.14-1.47,6.26-2.22,9.35-.75,3.09-1.51,6.11-2.27,9.07-.77,2.96-1.55,5.81-2.36,8.55l-7.95,27.74h-9.81Z"/>
    <path class="cls-1" d="M460.23,460.93c-4.2,0-7.94-.61-11.21-1.84-3.27-1.22-5.97-3.04-8.09-5.45-2.12-2.41-3.55-5.37-4.28-8.88l9.37-2.25c.88,3.36,2.53,5.83,4.96,7.4,2.43,1.57,5.47,2.36,9.13,2.36,4.28,0,7.68-.91,10.22-2.74,2.54-1.83,3.81-4,3.81-6.52,0-2.12-.74-3.88-2.22-5.29-1.48-1.41-3.74-2.46-6.77-3.15l-10.2-2.41c-5.56-1.32-9.68-3.35-12.39-6.11-2.71-2.76-4.06-6.29-4.06-10.61,0-3.51.99-6.61,2.96-9.29,1.97-2.69,4.67-4.79,8.09-6.3,3.42-1.52,7.3-2.27,11.65-2.27s7.77.63,10.72,1.89c2.94,1.26,5.34,3,7.18,5.21,1.85,2.21,3.23,4.76,4.14,7.65l-8.94,2.3c-.84-2.19-2.24-4.18-4.19-5.98-1.96-1.79-4.91-2.69-8.85-2.69-3.65,0-6.7.84-9.13,2.52-2.43,1.68-3.65,3.8-3.65,6.36,0,2.27.82,4.08,2.47,5.45,1.64,1.37,4.26,2.48,7.84,3.32l9.26,2.19c5.55,1.32,9.67,3.35,12.33,6.11,2.67,2.76,4,6.24,4,10.44,0,3.58-1.01,6.77-3.04,9.57-2.03,2.8-4.86,5-8.5,6.61-3.64,1.61-7.85,2.41-12.64,2.41Z"/>
  </g>
</svg>