<?xml version="1.0" encoding="UTF-8"?>
<svg id="Layer_1" xmlns="http://www.w3.org/2000/svg" viewBox="0 0 476.67 226.67">
  <defs>
    <style>
      .cls-1 {
        fill: #021347;
      }

      .cls-2 {
        fill: #636466;
      }

      .cls-3 {
        fill: #94c947;
      }
    </style>
  </defs>
  <g>
    <path class="cls-1" d="M224.14,27.15c-7.04,0-12.74,5.71-12.74,12.74v35.37c-6.92-6.58-15.92-10.38-26.3-10.38-23.19,0-42.4,20.08-42.4,46.55s19.21,46.38,42.4,46.38c10.9,0,20.24-4.15,27.34-11.42v9.52h21.81v-39.68h0V27.15h-10.11ZM188.55,136.7c-12.63,0-22.84-10.9-22.84-25.09s10.21-25.61,22.84-25.61,22.84,11.42,22.84,25.61-10.21,25.09-22.84,25.09Z"/>
    <path class="cls-1" d="M364.64,74.01v-12.74l-9.24-.12c-6.57,0-11.97,4.97-12.67,11.36h0v.02c-.05.45-.08.91-.08,1.37v2.33c-7.09-7.22-16.4-11.35-27.27-11.35-23.19,0-42.4,20.08-42.4,46.55s19.21,46.38,42.4,46.38c10.38,0,19.38-3.81,26.31-10.38v4.33c0,15.92-7.27,26.48-23.36,26.48-6.23,0-15.23-2.77-18.17-9.86h-25.09c3.46,18.86,21.98,31.15,43.26,31.15,28.55,0,46.21-18.52,46.21-48.11v-1.19h.22l-.12-76.21ZM318.85,136.7c-12.64,0-22.84-10.9-22.84-25.09s10.21-25.61,22.84-25.61,22.84,11.42,22.84,25.61-10.21,25.09-22.84,25.09Z"/>
    <path class="cls-1" d="M36.71,66.79h-10.11v89.07h22.85v-76.33c0-7.04-5.71-12.74-12.74-12.74Z"/>
    <path class="cls-1" d="M253.53,66.79h-10.11v89.07h22.85v-76.33c0-7.04-5.71-12.74-12.74-12.74Z"/>
    <path class="cls-1" d="M103.13,64.53c-9.38,0-17.08,4.04-22.76,10.62-1.79-4.87-6.46-8.36-11.95-8.36h-10.11v89.07h.01v.04s22.83,0,22.83,0v-.04h0v-52.22c.08-9.95,7.14-17.48,17.3-17.48,15.06,0,16.62,12.46,16.62,17.65v52.09h22.84v-52.09c0-23.54-13.84-39.28-34.78-39.28Z"/>
    <path class="cls-1" d="M414.4,64.53c-24.75,0-44.83,20.25-44.83,46.9s20.08,46.55,44.83,46.55,44.99-19.9,44.99-46.55-20.25-46.9-44.99-46.9ZM414.4,137.04c-12.12,0-21.98-10.38-21.98-25.44s9.86-26.13,21.98-26.13,21.97,10.73,21.97,26.13-9.86,25.44-21.97,25.44Z"/>
  </g>
  <g>
    <path class="cls-3" d="M252.38,61.15h13.9v-10.34c0-1.04.37-12.87-12.87-12.87h-9.99v14.24c0,4.95,4.01,8.96,8.96,8.96Z"/>
    <path class="cls-3" d="M35.56,61.15h13.9v-10.34c0-1.04.37-12.87-12.87-12.87h-9.99v14.24c0,4.95,4.01,8.96,8.96,8.96Z"/>
  </g>
  <g>
    <path class="cls-2" d="M26.62,168.38h6.96c3.85,0,5.31,2.01,5.31,4.08,0,1.79-.95,2.96-2.03,3.45,1.07.4,2.48,1.54,2.48,3.63,0,2.73-2.14,4.77-5.53,4.77h-7.19v-15.93ZM33.18,174.66c1.64,0,2.31-.73,2.31-1.85s-.88-1.77-2.21-1.77h-3.28v3.62h3.18ZM30,181.64h3.11c1.86,0,2.71-.78,2.71-2.22,0-1.28-.83-2.1-2.72-2.1h-3.09v4.32Z"/>
    <path class="cls-2" d="M44.37,168.38v9.49c0,3.06,1.57,3.96,3.29,3.96,1.97,0,3.21-1.07,3.21-3.96v-9.49h3.45v9.32c0,5.45-3.19,6.83-6.7,6.83s-6.69-1.45-6.69-6.77v-9.38h3.45Z"/>
    <path class="cls-2" d="M59.56,179.64c.36,1.6,1.51,2.3,3.35,2.3s2.62-.73,2.62-1.89c0-1.3-.77-1.86-3.49-2.49-4.33-1.02-5.41-2.59-5.41-4.74,0-2.78,2.08-4.66,5.85-4.66,4.23,0,5.91,2.27,6.14,4.6h-3.47c-.17-.98-.71-2.04-2.76-2.04-1.4,0-2.24.58-2.24,1.71s.68,1.56,3.25,2.15c4.63,1.09,5.65,2.81,5.65,5.06,0,2.91-2.2,4.9-6.41,4.9s-6.17-1.99-6.55-4.89h3.47Z"/>
    <path class="cls-2" d="M74.76,168.38v15.93h-3.44v-15.93h3.44Z"/>
    <path class="cls-2" d="M77.84,184.3v-15.93h4.27c1.99,3.58,5.67,10.03,6.4,11.76h.04c-.18-1.66-.18-4.43-.18-7.04v-4.72h3.12v15.93h-4.05c-1.71-3.11-5.79-10.52-6.57-12.36h-.04c.12,1.39.15,4.67.15,7.52v4.84h-3.14Z"/>
    <path class="cls-2" d="M105.57,177.44h-7.62v4.05h8.4l-.41,2.82h-11.34v-15.93h11.29v2.82h-7.95v3.41h7.62v2.82Z"/>
    <path class="cls-2" d="M110.77,179.64c.36,1.6,1.51,2.3,3.35,2.3s2.62-.73,2.62-1.89c0-1.3-.77-1.86-3.49-2.49-4.33-1.02-5.41-2.59-5.41-4.74,0-2.78,2.08-4.66,5.85-4.66,4.23,0,5.91,2.27,6.14,4.6h-3.47c-.17-.98-.71-2.04-2.76-2.04-1.4,0-2.24.58-2.24,1.71s.68,1.56,3.25,2.15c4.63,1.09,5.65,2.81,5.65,5.06,0,2.91-2.2,4.9-6.41,4.9s-6.17-1.99-6.55-4.89h3.47Z"/>
    <path class="cls-2" d="M124.98,179.64c.36,1.6,1.51,2.3,3.35,2.3s2.62-.73,2.62-1.89c0-1.3-.77-1.86-3.49-2.49-4.33-1.02-5.41-2.59-5.41-4.74,0-2.78,2.08-4.66,5.85-4.66,4.23,0,5.91,2.27,6.14,4.6h-3.47c-.17-.98-.71-2.04-2.76-2.04-1.4,0-2.24.58-2.24,1.71s.68,1.56,3.25,2.15c4.63,1.09,5.65,2.81,5.65,5.06,0,2.91-2.2,4.9-6.41,4.9s-6.17-1.99-6.55-4.89h3.47Z"/>
    <path class="cls-2" d="M143.95,179.64c.36,1.6,1.51,2.3,3.35,2.3s2.62-.73,2.62-1.89c0-1.3-.77-1.86-3.49-2.49-4.33-1.02-5.41-2.59-5.41-4.74,0-2.78,2.08-4.66,5.85-4.66,4.23,0,5.91,2.27,6.14,4.6h-3.47c-.17-.98-.71-2.04-2.76-2.04-1.4,0-2.24.58-2.24,1.71s.68,1.56,3.25,2.15c4.63,1.09,5.65,2.81,5.65,5.06,0,2.91-2.2,4.9-6.41,4.9s-6.17-1.99-6.55-4.89h3.47Z"/>
    <path class="cls-2" d="M170.24,176.29c0,4.43-2.66,8.25-7.83,8.25s-7.62-3.63-7.62-8.2,2.89-8.19,7.84-8.19c4.66,0,7.61,3.26,7.61,8.14ZM158.35,176.27c0,3.11,1.37,5.46,4.19,5.46,3.06,0,4.15-2.57,4.15-5.4,0-3.01-1.23-5.38-4.2-5.38s-4.13,2.22-4.13,5.32Z"/>
    <path class="cls-2" d="M172.56,168.38h3.44v13.1h7.93l-.39,2.82h-10.98v-15.93Z"/>
    <path class="cls-2" d="M188.45,168.38v9.49c0,3.06,1.57,3.96,3.29,3.96,1.97,0,3.21-1.07,3.21-3.96v-9.49h3.45v9.32c0,5.45-3.19,6.83-6.7,6.83s-6.69-1.45-6.69-6.77v-9.38h3.45Z"/>
    <path class="cls-2" d="M204.59,171.2h-4.84v-2.82h13.11v2.82h-4.82v13.1h-3.45v-13.1Z"/>
    <path class="cls-2" d="M217.74,168.38v15.93h-3.44v-15.93h3.44Z"/>
    <path class="cls-2" d="M235.5,176.29c0,4.43-2.66,8.25-7.83,8.25s-7.62-3.63-7.62-8.2,2.89-8.19,7.84-8.19c4.66,0,7.61,3.26,7.61,8.14ZM223.6,176.27c0,3.11,1.37,5.46,4.19,5.46,3.06,0,4.15-2.57,4.15-5.4,0-3.01-1.23-5.38-4.2-5.38s-4.13,2.22-4.13,5.32Z"/>
    <path class="cls-2" d="M237.82,184.3v-15.93h4.27c1.99,3.58,5.67,10.03,6.4,11.76h.04c-.18-1.66-.18-4.43-.18-7.04v-4.72h3.12v15.93h-4.05c-1.71-3.11-5.79-10.52-6.57-12.36h-.04c.12,1.39.15,4.67.15,7.52v4.84h-3.14Z"/>
    <path class="cls-2" d="M256.98,179.64c.36,1.6,1.51,2.3,3.35,2.3s2.62-.73,2.62-1.89c0-1.3-.77-1.86-3.49-2.49-4.33-1.02-5.41-2.59-5.41-4.74,0-2.78,2.08-4.66,5.85-4.66,4.23,0,5.91,2.27,6.14,4.6h-3.47c-.17-.98-.71-2.04-2.76-2.04-1.4,0-2.24.58-2.24,1.71s.68,1.56,3.25,2.15c4.63,1.09,5.65,2.81,5.65,5.06,0,2.91-2.2,4.9-6.41,4.9s-6.17-1.99-6.55-4.89h3.47Z"/>
  </g>
</svg>