<?xml version="1.0" encoding="UTF-8"?>
<svg id="Layer_1" xmlns="http://www.w3.org/2000/svg" viewBox="0 0 1080 478">
  <defs>
    <style>
      .cls-1 {
        fill: #07124a;
      }
    </style>
  </defs>
  <g>
    <path class="cls-1" d="M1055.96,141.44c-.11-7.36.07-14.15,2.2-21.08,3.06-9.91.42-19.29-6.97-26.63-7.72-7.66-17.78-10.54-28.34-11.45-8.63-.73-17.22-.28-26.38,4.36-3.4,3.05-3.48,3.08-7.49,2.12,0-.69-.23-1.51.04-2.12,3.15-7.27,5.09-14.78,5.19-22.77.03-2.66.38-5.44,1.26-7.92,1.89-5.33,1.95-10.86,1.98-16.31.07-10.38-3.69-18.43-13.91-23.21-11.09-5.19-21.14-3.21-28.52,6.71-4.42,5.94-6.67,12.46-6.41,19.88.1,2.83,0,5.69-1.23,8.34-2.07,4.52-2.02,9.15-1.32,14,.8,5.49,1.02,11.06,1.48,16.38-2.11,1.09-3.88.88-5.3.3-6.97-2.83-13.75-2.41-20.83-.15-4.3,1.37-8.8,1.26-13.33-.8-10.77-4.87-21.6-1.65-31.51,2.3-11.96,4.77-21.11,13.59-26.92,25.44-.64,1.31-1.85,2.39-3.66,1.78-1.11-1.48-.64-3.17-.65-4.76-.05-9.55.1-19.1-.11-28.65-.14-5.95-1.39-11.5-4.79-16.83-3.75-5.88-11.3-9.84-18.14-10.24-11.59-.67-23.3,7.7-25.27,19.41-1.04,6.14-.17,12.49-2.51,18.48-2.45,6.26-1.66,12.94-1.82,19.47-.04,1.68.6,3.59-1.66,5.49-11.48-20.03-27.28-33.95-51.41-35.03-24.51-1.1-41.2,12.15-54.88,31.1-.57-9.32-.22-18.24-.68-27.12-.37-7.17-.75-14.42-4.68-21.01-4.33-7.24-13.21-11.53-21.45-11.44-5.28.06-10.25,1.83-14.36,5.15-7.76,6.26-10.54,15.01-11.9,24.25-.71.29-1.11.54-1.53.6-.58.09-1.23.2-1.77.03-8.79-2.67-17.19.54-24.71,3.62-12.53,5.14-22.5,14.16-28.67,26.66-.97,1.95-2.16,3.47-4.85,4.59-2.53-14.35-10.22-24.93-23.46-31.92-1.88.31-3.92-1.06-6.13-1.86-10.37-3.72-20.13-.56-29.82,2.81-1.98.69-3.59.76-5.54.07-4.15-1.47-8.36-2.66-12.82-3.07-4.46-.42-8.39,1.35-11.65,1.99-11.28,6.03-13.78,16.71-16.99,27.56.29-.96-2.99-5.01-3.58-5.91-6.79-10.4-15.75-19.73-27.34-24.64-20.25-8.59-45.51-3.4-59.83,13.57-2.45,2.9-4.59,6.04-6.65,9.22-.81,1.25-6.17,7.79-5.81,8.98-3.8-12.52-11.18-21.78-21.77-28.07-13.31-7.77-26.64-5.29-39.98-.18-1.9,1.59-3.94,3.02-7.08,1.84-11.62-8.53-27.72-10.21-40.94-4.6-1.99.85-4.49,2.25-6.73,1.94-1.71-.23-2.56-1.35-4.03-2.22-6.39-3.8-17.58-4.71-24.27-1.22-10.41,5.43-13.88,14.02-16.14,23.74-1.05,4.49.43,9.15-1.21,13.24-2.96,7.37-3.61,14.89-3.3,22.66.07,1.61.76,3.66-1.39,4.61-1.24-.07-1.68-.85-1.88-1.75-1.65-7.37-4.19-14.57-6.93-21.47-4.54-11.4-7.22-23.39-12.05-34.7-1.63-3.82-3.36-7.91-4.09-12.11-1.06-6.03-4.02-11.08-7.48-15.84-6.68-9.17-15.54-13.47-27.19-12.62-5.94.43-10.76,2.51-15.48,5.68-7.87,5.28-11.14,13.79-14.4,21.87-5.35,13.24-9.53,26.95-14.33,40.42-1.03,2.88-2.58,5.57-3.97,8.53-4.09-1.02-7.75-2.54-11.48-2.74-11.24-.61-21.81,1.29-31.77,7.41-4.8,2.95-9.02,6.76-12.44,11.24-8.6,11.29-12.56,27.65-14.35,41.54-1.92,14.79-.74,30.33,5.76,43.92,6.85,14.32,17.37,24.25,32.23,28.8,10.37,3.18,20.93,3.49,31.71-1.14,8.2-3.52,16.03-8.88,21.72-15.8,2.98-3.63,4.72-7.88,7.4-11.65,1.97-2.76,1.88-5.81,3.2-8.88,1.19-2.76,2.82-5.33,3.56-8.28.44-1.78,2.24-2.67,4.26-2.66,5.65.03,11.3.01,16.95.01,1.2,1.37,1.94,2.46,2.77,3.53,4.16,5.41,8.47,10.58,14.45,14.26,5.86,3.61,18.46,3.49,24.26-.35,4.9-3.24,9.16-6.77,10.96-12.61.25-.8,1.04-1.46,2.65-1.36,2.19,3.03,3.66,6.92,6.29,10.09,5.39,6.5,16.52,10.53,24.04,8.11,7.97-2.57,14.35-6.96,17.9-15.11.98-2.26.44-5.93,4.79-7.07,4.36,12.19,10.43,23.23,25.62,23.29,15.28.06,21.86-10.73,26.55-23.01,2.74.54,2.95,2.26,3.62,3.98,3.43,8.91,9.19,15.68,19.06,17.23,14.96,2.36,26.46-6.42,29.7-20.97.76-3.42,1.75-6.78,2.64-10.17.39-.28.78-.57,1.17-.85,8.19,13.54,18.71,24.51,33.72,29.58,15.23,5.14,30.35,4.18,44.64-3.68,9.69-5.33,16.06-14.25,23.15-23.01,2.61,16.97,6.35,32.08,27.53,32.1,17.04.01,21.45-12.52,25.92-25.9,1.8,10.62,6.42,19.07,16.7,24.67.87-.02,2.71.65,4.6.98,9.05,1.58,17.01.24,23.67-7.18,5.34-5.96,6.59-12.98,7.75-20.27.26-1.67-.33-3.72,2.69-4.73,14.27,22.97,33.25,37.4,62.55,30.94,2.43-2.97,5.54-4.25,9.9-2.81,1.33,2.33,4.04,3.17,6.83,3.76,6.55,1.39,13.43,1.77,19.02-1.92,7.26-4.8,11.84-11.87,12.04-21.1.04-2.08.44-4.12,2.73-6.53,19.57,27.81,44.87,38.32,72.77,26.77,19.82-10.2,28.7-23.87,36.27-38.78,1.95,7.68.64,15.15,2.07,22.5,1.57,8.04,5.9,13.76,13.35,18.33,1.28-.02,3.18.9,5.16,1.42,5.82,1.52,11.76,1,16.79-2.2,8.9-5.66,13.37-14.01,12.93-24.76-.06-1.42-.28-3.08,2.05-3.78,16.5,23.89,37.17,38.01,67.2,26.9,9.62,5.85,19.17,4.82,29.23,1.85,11.04-9.05,13.93-14.83,14.22-29.42.07-3.35.69-6.6,1.9-9.59,1.23-3.02,1.53-6.02,1.53-9.15,0-19.99-.01-39.97.04-59.95,0-1.84-.7-3.94,1.79-5.72,3.71,2.34,8.2.61,12.67.96.07,1.31.08,2.18.16,3.05,1.21,13.2-4.97,25.72-2.59,39.39,1.15,6.61-.09,14.76-2.97,21.83-.75,1.86-.81,4.09-.85,6.16-.22,13.31,5.42,23.8,14.46,33.46,9.94,10.62,21.95,14.81,35.74,13.95,8.27-.51,16.31-2.64,23.82-7.25,10.02-6.15,16.83-13.96,19.71-25.5,1.32-5.26,1.23-10.59,2.14-15.85.59-3.41,2.4-6.32,2.67-9.85.87-11.27-1.41-21.48-8.85-29.92ZM194.84,183.12c-2.12,11.92-17.59,19.08-28.85,12.75-6.15-3.45-10.85-8.11-14.39-14.13-.81-1.37-2.18-2.42-3.1-3.42-7.75-1.26-15.21-.73-22.65-.84-.86-.01-1.73.28-2.84.47-2.47,4.22-3.94,8.9-5.61,13.48-3.44,9.44-7.75,18.37-15.64,24.97-12.21,10.22-25.8,14.2-41.75,10.07-12.57-3.25-22.04-10.36-28.35-21.18-6.79-11.65-9.27-24.63-7.98-38.14.6-6.33,1.55-12.55,4.37-18.5,5.29-11.18,13.5-18.73,25.03-23.13,5.7-2.17,11.41-2.74,17.41-3.12,6.53-.41,11.52,3.48,18.05,4.93,1.86-4.52,3.76-8.67,5.3-12.95,3.45-9.62,6.66-19.33,10.1-28.96,1.89-5.28,4.22-10.41,6.05-15.71,2.51-7.29,6.78-13.47,13.2-17.39,5.38-3.29,11.57-5,18.33-3.39,12.05,2.88,18.31,11.22,22.09,22.16,6.04,17.48,12.36,34.85,17.95,52.47,3.74,11.81,8.03,23.42,11.73,35.24,2.5,7.96,2.99,16.2,1.55,24.32ZM356.37,164.72c-.05,4.31-.25,8.67-.99,12.91-2.53,14.52-12.56,24.4-28.31,20.32-5.04-1.3-8.84-4.72-11.38-9.28-4.17-7.52-4.56-15.86-4.67-24.15-.13-10.29-.11-20.58-1.22-30.83-.23-2.13-.3-4.19-2.48-5.48-2.88-.09-3.67,1.73-3.98,4.23-.9,7.29-.24,14.6-.43,21.9-.26,9.94,1,19.98-2.33,29.7-4.48,13.08-17.4,20.13-29.31,14.31-9.48-4.63-12.86-13.64-13.19-23.53-.46-13.72-.14-27.46-.3-41.19-.06-5.33-1.83-7.19-6.56-7.14-1.81,4.75-1.91,9.53-1.97,14.26-.14,10.72.69,21.46-.18,32.17-.7,8.54-3.46,16.24-10.21,22.07-9.6,8.29-25.59,5.69-31.56-7.51-3.1-6.86-4.14-13.8-4.1-21.16.13-19.1-.15-38.21.22-57.3.14-7.43,1.91-14.7,6.87-20.76,2.7-3.29,5.7-6.09,10.17-6.36,8.66-.53,14.22-2.21,23.88,6.36,18.32-9.88,32.77-9.04,47.67,2.84,3.03.61,5.27-1.73,7.59-2.94,10.32-5.37,20.89-6.51,31.88-2.98,9.47,3.04,16.06,9.25,20.82,18.14,3.74,6.97,4.04,14.18,4.13,21.56.17,13.27.08,26.56-.06,39.84ZM458.34,153.41c4.9,9.57,1.39,18.18-4.16,25.71-9.32,12.62-22.42,19.93-38.04,20.13-17.44.23-32.19-6.73-43.2-20.88-11.6-14.92-13.36-31.69-10.94-49.76,1.79-13.43,7.01-25,16.19-34.71,5.64-5.97,12.71-9.91,20.78-11.97,9.81-2.51,19.8-2.27,29.14.74,10.12,3.26,18.53,9.69,24.51,18.95,6.49,10.06,10.81,20.71,10.65,32.88-.07,5.52-1.1,10.64-5.34,14.36-.47,1.73-.3,3.15.41,4.55ZM565.96,175.32c0,8.71-2.36,16.7-9.02,22.44-8.4,7.23-28.35,6.14-33.04-10.77-1.2-4.34-1.6-8.78-1.62-13.25-.04-12.08.03-24.17.02-36.25,0-7.47-1.2-8.46-9.08-7.45-1.66,2.89-1.72,5.85-1.73,8.84,0,13.57.06,27.15-.17,40.72-.12,6.94-2.64,12.97-7.87,17.87-7.46,6.99-27.29,6.19-31.51-8.65-.94-3.3-1.91-6.53-1.9-10.04.07-23.42.07-46.84.04-70.26,0-5.39,1.78-10.25,4.53-14.7,6.26-10.14,18.66-11.2,27.97-6.21,3.9,2.09,6.81,2.05,10.73-.06,7.31-3.94,15.4-4.12,23.5-2.86,14.67,2.3,23.14,11.79,27.86,24.99,1.36,3.8,1.22,8.24,1.25,12.39.12,17.75.03,35.5.04,53.25ZM679.59,176.1c-.02,8.4-1.76,16.25-8.67,22.09-5.61,4.75-18.53,4.62-23.96-.36-1.3-1.19-2.23-2.83-4.5-3.61-2.8,1.23-4.54,3.91-7.39,4.96-11.11,4.1-21.97,3.14-32.4-2.06-6.54-3.26-12.19-7.81-17.18-13.22-8.86-9.63-12.58-21.39-13.86-33.94-1.58-15.38,1.42-30.19,10.08-42.98,10.63-15.69,28.28-26.17,49.05-22.02,1.56.31,3.13,1.11,5.1.4,1.61-2.07.77-4.7.89-7.12.41-8.66,3.53-16.21,10.75-21,8.98-5.96,25-4.29,29.63,9.17,1.57,4.59,2.46,9.16,2.46,13.96.01,31.91.08,63.82,0,95.73ZM789.17,162.13c-3.8,11.23-9.56,20.95-19.1,28.25-8.15,6.25-16.82,11.09-27.5,11.08-8.61,0-17.16.58-25.39-3.35-11.48-5.49-20.78-13.28-26.8-24.44-5.32-9.86-8.93-20.37-8.23-27.28.66-26.4,9.56-44,27.71-55.82,12.55-8.17,26.54-10.86,41.72-6.11,20.16,6.31,32.04,20.37,38.2,39.51,4.02,12.49,3.7,25.43-.61,38.16ZM831.93,198.86c-8.46,6.17-23.04,4.53-29.18-7.8-1.54-3.1-2.21-6.37-2.18-9.92.12-17.75.05-35.51.05-53.27h.03c0-17.91.26-35.82-.12-53.72-.18-8.1,8.17-17.03,14.01-18.98,7.61-2.53,15.58.3,21.35,6.46,4.62,4.94,4.77,10.86,4.8,16.68.21,34.17.06,68.35.19,102.52.03,7.66-3.12,13.77-8.95,18.03ZM953.57,173.27c-.1,6.58-.58,13.24-4.48,19.21-4.82,7.38-11.62,9.68-19.91,9.29-5.59-.27-11.08-.66-14.71-6.02-16.17,11.27-36.98,4.56-49.12-5.95-17.59-15.2-22.12-34.79-19.54-56.8,1.87-15.91,9.12-29.19,21.71-38.97,12.27-9.53,26.48-12.84,41.46-7.83,4.66,1.56,7.78,2.68,12.53-.04,7.55-4.32,22.37-.8,27.86,5.75,3.98,4.74,4.19,10.83,4.26,16.51.26,21.62.26,43.24-.06,64.85ZM965.8,86.22c-5.45-1.66-8.9-6.17-9.39-12.14-.81-9.64-1.64-19.28-2.51-28.91-.8-8.85.45-16.72,8.14-22.74,6.09-4.77,18.19-4.72,24.05.42,6.05,5.3,7.4,10.77,7.26,21.64-.43,11.3-5.79,24.37-13.29,36.63-2.72,4.46-9.63,6.5-14.26,5.1ZM1038.25,199.85c-13.15,6.07-27.29,8.4-40.28.6-15.25-9.17-25.95-21.39-23.61-42.46.49-4.38,2.18-8.33,5.3-11.58,1.32-1.38,2.57-2.82,4.09-4.49-5.34-6.34-7.12-13.43-6.75-21.33.49-10.59,5.21-18.57,13.51-24.89,11.43-8.7,23.87-10.21,37.79-7.55,9.54,1.82,17.5,4.88,23.11,13.14,5.28,7.77,4.95,23.85-5.75,31.17-1.64,1.13-3.93.28-5.59,2.3,4.82,3.84,10.24,6.27,13.96,11.17,4.58,6.06,6.12,12.83,6.16,20.06.09,16-7.77,27.31-21.94,33.86Z"/>
    <path class="cls-1" d="M972.99,325.93c-1.32-9.02-4.45-17.21-9-24.81-6.25-10.43-14.82-18.51-25.85-24.15-7.26-3.7-14.52-6.35-22.73-6.65-10.89-.39-20.9,1.7-30.63,7.03-10.82,5.91-18.71,14.23-25.01,24.54-1.48,2.43-2.07,6.01-5.86,7.08-1.38-6.71-3.89-12.1-7.86-17.21-8.94-11.51-21.01-17.16-34.72-19.37-8.7-1.41-17.53-1.27-26.39,1.34-9.24,2.71-17.61,6.72-24.92,12.72-13.65,11.19-21.66,25.56-23.53,43.33-.92,8.71-3.17,17.29-3.8,26.01-.73,10.07.71,20.04,4.1,29.7,3.65,10.36,9.54,19.17,17.72,26.41,7.58,6.7,16.24,11.3,26.12,13.99,7.39,2.02,14.57,3.62,22.28,2.27,3.52-.61,6.84-1.82,10.27-2.56,8.57-1.85,16.15-6.09,22.53-11.5,7.37-6.25,12.89-14.42,14.55-24.39,1.95-.51,2.56.19,3.02,1.26,2.33,5.44,5.42,10.38,9.22,14.95,11.48,13.79,26.25,21.99,43.98,22.64,19.49.72,35.78-7.54,48.1-22.74,5.56-6.86,9.88-14.41,12.34-23.22,2.17-7.78,3.11-15.65,4.5-23.51,1.95-10.99,3.22-21.9,1.57-33.16ZM787.33,344.72c2.38,9.13,14.57,12.66,21.62,6.28,4.82-4.36,9.22-9.06,16.46-9.7,8.45-.76,16.15,3.66,20.24,10.67,8.06,13.8-.59,29.45-10.7,37.52-9.84,7.84-21.05,12.09-33.52,12.24-10.11.13-19.63-2.22-28.88-7.14-9.65-5.13-17.02-12.4-22.73-21.07-5.44-8.27-8.47-17.91-9.02-28.04-.11-2.08,0-4.18,0-6.26-.41-17.47,5.21-32.63,17.65-45.02,7.59-7.56,16.69-13.36,26.94-15.66,12.02-2.71,24.38-3.12,36.41,1.79,8.09,3.29,15.33,7.36,20.8,14.32,10.37,13.2,7.87,29.96-4.68,38.29-6.14,4.07-16.66,2.72-23.59-2.91-2.8-2.27-5.8-4.33-9.28-5.08-12.76-2.77-21.12,6.66-17.71,19.77ZM947.76,388.28c-14.64,13.01-32.37,16.99-51.02,11.52-16.99-4.99-29.06-17.1-36.33-33.03-6.85-14.99-8.28-30.95-3.43-46.99,5.2-17.18,15.14-30.39,31.52-38.86,13.93-7.2,28.31-7.93,42.18-2.47,13.66,5.38,24.81,14.89,31.39,28.77,4.76,10.06,7.79,20.48,7.75,32.56-.7,18.58-7.48,35.55-22.06,48.5Z"/>
    <path class="cls-1" d="M991.16,350.67c-12.32,5.97-18.43,15.72-17.75,29.45.16,3.21-.15,6.36-1.37,9.16-4.46,10.31-1.92,19.29,4.76,27.52,8.08,9.95,17.17,11.25,28.61,7.57,10.18-3.26,17.86-14.76,17.08-28.45.08-2.27.22-4.94,1.07-7.76,3.18-10.57,2.97-20.76-4.73-29.77-6.53-7.65-19.9-11.48-27.67-7.72ZM999.47,400.14c-10.96-.02-21.43-11.21-21.5-23.04-.07-12.45,10.5-22.68,21.28-23.33,9.46-.57,23.15,10.96,21.77,23.2.76,11.86-9.81,23.19-21.55,23.17Z"/>
    <path class="cls-1" d="M675.1,325.63c-1.08-6.85-3.7-13.43-7.24-19.37-7.07-11.82-18.05-21.82-30.86-27.03-.37-.14-.73-.29-1.1-.43-2.6-.98-5.27-1.78-7.98-2.38-20.51-4.52-42.14,2.84-56.06,18.44-.73.81-7.58,8.49-7.08,9.12-6.74-8.49-12.85-16.36-22.37-21.9-8.47-4.93-18.09-7.71-27.89-8.08-14.99-.56-30.12,4.6-41.64,14.19-.03,0-.06,0-.09-.01.03.15.06.29.1.42-.16-.04-.33-.04-.5-.02-.56.09-1.01.5-1.41.9-3.68,3.58-7.73,7.01-10.79,11.15-1.69,2.29-3.07,4.78-4.38,7.3,0,0-.88,1.74-3.92,8.97-.66-1.64-1.46-3.56-2.41-5.7-.95-2.14-2.05-4.51-3.3-7.04-.68-1.37-1.3-2.61-1.89-3.81,0,0,0,0,0,0,0-.16-.02-.33-.03-.49-.18-.24-.37-.47-.55-.71,0,0,0,0,0,0,0-.01-.01-.01-.01-.02-3.48-6.95-5.92-11.15-10.28-14.71-3.39-2.77-7.26-4.99-11.29-6.68-7.37-3.07-15.48-3.76-23.35-2.74-4.58.6-9.42.98-13.2,4.3-2.45,2.14-4.83.68-6.99-.86-6.98-4.98-19.84-3.73-26.59.89-7.12,4.87-11.86,11.78-12.74,20.77-.22,2.27-1.28,4.12-2.97,6.78-5.09-6.78-9.84-13.11-15.68-18.45-20.19-15.89-42.07-17.23-61.17-9.2-19.4,10.27-28.48,23.91-34.47,40.29-2.23-5.38-5.25-10.09-4.75-15.79.52-5.87,2.68-11.56,1.96-17.58-.07-.54.27-1.14.45-1.7,2.65-8.23,3.93-16.48.41-24.81-2.26-5.38-5.61-10.29-11.17-12.65-6.33-2.7-13.59-1.64-20.26-1.63-18.17.05-36.47-.83-54.61.45-4.86.34-9.85.93-14.09,3.31-10.46,5.88-11.99,20.22-13.21,30.96-.93,8.11-2.11,16.2-2.51,24.37-.08,1.66.69,17.67-1.34,17.77-5.73.21-10.67,1.99-15.34,4.57-1.07.78-2.08,1.67-3.21,2.34-15.93,9.42-23.59,27.95-26.99,45.37-5.06,25.99-4.98,58.23,16.76,76.96,8.04,6.92,18.15,11.49,28.71,12.62,26.79,2.88,50.65-17,59.91-41.02,2.55-6.62,3.35-13.74,4.52-20.72,1.38-8.25,2.48-16.56,2.73-24.93.13-4.65-.54-8.85,4.8-9.61,3.79-.54,7.57.17,11.36.21,6.3.07,12.72-.24,18.39-3.29,3.63-2.05,6.15-5.96,10.59-7.4,1.01,1.93.63,3.59.7,5.18.4,8.49,1.04,16.98,4.59,24.84,2.83,6.25,5.42,12.47,10.47,17.73,3.38,3.52,6.32,7.37,10.44,10.19,23.65,16.19,60.04,18.65,79.98-5.15,2.9-3.3,5.8-6.6,8.62-9.81,3.05,1.17,3.01,3.43,3.21,5.68,1.03,11.47,10.63,19.79,20.2,21.74,14.94,3.03,28.85-7.56,30.56-22.11.17-1.46-.03-3.09,2-3.39,2.65,1,1.35,3.72,2.46,5.37,0,0,0,0,0,0,.49,3.89,2.62,6.9,5.18,9.69,0,0,0,0,0,0,2.25,5.12,6.72,7.52,11.57,9.49,9.7,3.93,18.36,1.91,25.82-4.99,8.89-8.21,10.26-19.22,10.44-30.53,0,0,0,0,0,0,.02-.51.03-1.02.05-1.53,1.02-1.44.18-4.08,3.61-4.56,4.43,9.46,9.03,19.16,17.7,25.96,0,0,0,0,0,0,14.37,12.79,30.9,19.57,50.3,16.64,19.12-2.89,33.9-12.98,44.31-30.8,12.27,17.78,27.66,28.69,48.05,30.78,20.83,2.14,38.29-4.87,51.75-21.19-.04-.23-.05-.47-.06-.72,0,0,0,0,0,0,4.81-3.71,6.78-10.24,8.09-16.29,2.14-9.88,2.6-19.9,3.93-29.86.78-5.73,1.52-11.46,2.19-17.21.55-4.72,1.41-9.52,1.13-14.25-.05-.87-.14-1.73-.28-2.6ZM217.07,330.85c-2.71,6.37-8.66,9.74-16.01,10.41-8.64.79-17.27.38-25.9.59-1.76.04-3.58-.32-5.28.45-1.67,1.73-1.3,3.9-1.31,5.94-.02,9.4-.13,18.79.04,28.18.31,16.39-4.19,31-15.44,43.24-.47.51-.61,1.32-.9,1.99-2.95.32-4.41,2.94-6.48,4.49-13.5,10.12-28.38,14.1-44.71,9.5-13.63-3.84-23.68-12.87-30.02-25.42-7.99-15.8-8.64-32.62-2.61-48.92,4.35-11.73,10.93-22.72,22.61-29.23,5.96-3.32,12.59-4.23,19.19-5.21,1.45-.22,2.99.24,4.41-.57,1.48-1.45.95-3.33.96-5.06.05-15.06.01-30.12.07-45.18.03-6.85,1.67-13.27,5.96-18.76,3.93-5.02,9.22-8.25,15.53-8.34,19.98-.29,39.98-.58,59.95.04,9.54.3,18.34,3.6,22.24,13.97,3.38,9.01.42,19.13-7.4,24.81-1.04.75-1.67,2.05-2.49,3.1-12.14,4.06-24.69,2.69-37.13,2.88-2.98.05-3.3.7-3.23,4.29,1.27,1.48,3.01,1.04,4.6,1.04,7.45.04,14.92-.2,22.36.1,8.03.31,15.24,2.95,19.66,10.14,4.18,6.81,4.28,14.6,1.33,21.53ZM461.22,308.22c7.2-11.77,16.98-20.06,30.05-24.87,18.7-6.88,36.74-5.33,53.31,4.97,9.9,6.16,16.51,15.45,15.54,28.59-.84,11.51-11.97,23.02-25.77,19.6-2.94-.74-5.47-2.85-7.92-4.82-4.14-3.3-8.93-5.72-14.22-5.45-3.19.16-5.76.78-7.76,1.85-.01.01-.03.02-.04.03-1,.64-1.94,1.38-2.79,2.21-.04.05-.09.1-.13.14-2.37,2.85-3.13,7.12-2.6,12.85.2,2.2.9,4.36,1.36,6.49,5.98,7.46,14.01,9.59,30.02-5.46,6.15-1.7,12.3-1.93,18.92.15,7.07,6.21,12.2,13.87,10.67,24.29-1.34,9.16-6.72,15.81-13.95,21.34-12.55,9.59-26.35,13.34-42.16,11.3-15.52-2-27.28-10.05-37.53-21.02-1.96-2.11-2.91-5.11-5.38-6.87-.11.07-.21.15-.32.24-.03-.17-.06-.35-.09-.52,0,0,0,0,0,0h0s.02-.01.02-.02c-2.19-5.48-4.69-10.85-6.07-16.62-4.05-17.02-2.44-33.21,6.84-48.39ZM662.67,387.46c.24-.05.45-.12.67-.18,0,0,0,.01,0,.02-.03.17-.04.34-.05.51-.2-.11-.41-.23-.61-.34ZM271.71,400.44c-21-5.5-36.04-18.73-42.16-40.4-3.44-12.16-2.76-24.31.04-36.59,2.87-12.57,9.17-23.05,18.5-31.58,4.35-3.98,9.91-6.35,15.56-8.65,8.28-3.38,16.57-3.23,25.01-2.97,9.88.3,18.53,4.27,26.51,9.85.19.33.39.66.59.98.18.01.35.01.51.01,2.23,2.02,4.47,4.03,6.7,6.04.08.03.16.04.25.05,0,.05.01.11.02.16.04-.02.09-.03.14-.03-.03.05-.06.09-.09.14,9.14,11.39,14.74,24.05,14.35,39.01-.13,5.1-.76,9.8-4.99,12.86-1.01,2.73-.2,4.98.46,7.28,2.73,9.46.53,17.87-5.48,25.46-1.33,1.67-2.68,3.33-4.02,5-.15-.04-.3-.08-.45-.1-.01.2-.01.42.01.64-2.54.72-4.15,2.83-6.15,4.31-13.75,10.25-29.48,12.68-45.31,8.53ZM332.48,394.1s0-.04,0-.06c.01.01.03.02.04.03-.02,0-.03.02-.05.03ZM386.67,371.35c-.15,6.17-.05,12.4-3,18.32-4.72,9.43-10.58,12.42-20.15,12.15-2.5-.07-5-.69-6.96-.98-11.47-6.01-13.65-16.01-13.58-27.31.15-22.23-.05-44.46.08-66.7.06-11.21,4.4-20.28,14.84-25.38,4.71-2.31,10.01-1.87,14.84-.25,3.03,1.02,6.19,2.18,8.66,4.3,3.35.25,5.71-1.95,8.46-2.96,10.59-3.85,21.12-4.19,31.51.37,15.13,6.64,21.18,18.99,21.24,34.85.07,18.21.15,36.41-.02,54.62-.06,6.65-.36,13.26-4.14,19.34-5.7,9.17-12.63,11.22-22.28,10.09-12-1.4-18.1-13.55-18.39-22.58-.45-13.86-.15-27.75-.17-41.62,0-1.8.03-3.59-.04-5.38-.15-3.58-1.98-5.41-5.64-5.46-3.92-.05-5.19,2.04-5.18,5.64.06,12.98.22,25.97-.08,38.94ZM486.28,401.35s0,0,.02,0c.29.15.58.3.87.42-.16-.02-.33-.04-.49-.07-.13-.12-.26-.24-.4-.36ZM555.48,389.09s.06-.06.09-.1c.08-.09.15-.18.21-.27,0,0,0-.01.01-.02-.05.12-.12.24-.2.37-.04,0-.07.01-.11.02ZM568.38,388.47s0,0,0,0c0,0,0,.01,0,.02,0,0-.01,0-.02-.01,0,0,0,0,0-.01ZM652.37,390.15c-14.03,11.61-30.44,14.29-47.29,10.43-14.34-3.29-26.73-11.06-34.91-24.27-2.58-4.18-4.87-8.43-6.77-12.92-2.07-6.42-3.42-12.9-3.55-19.73-.16-8.26,1.81-16.08,3.52-23.99v-.03c3.87-11.68,10.2-21.7,19.81-29.53,8.65-5.53,17.76-9.43,28.29-10.05,11.63-.68,22.38,1.54,32.51,7.17,5.09,2.84,8.51,7.7,13.26,10.94.15.01.31.02.46.03-.09.09-.18.18-.27.26,4.32,6.58,9.05,13.02,10.88,20.81,1.22,5.17,2.84,10.34,2.54,15.8-.3,5.4-.74,10.7-5,14.35-.2,1.08-.32,2.15-.39,3.24-.01.02,0,.03,0,.04.39,2.91,1.67,5.5,1.92,8.3,1.12,12.91-5.79,21.51-15.01,29.15Z"/>
    <path class="cls-1" d="M472.75,288.17s.02,0,.03,0c0-.01,0-.02,0-.03,0,0-.03.03-.03.03Z"/>
    <polygon class="cls-1" points="323.24 297.37 323.24 297.34 323.21 297.34 323.24 297.37"/>
    <path class="cls-1" d="M308.12,90.8c-5.9,1.7-10.39,5.49-15.23,8.63-20.04-15.31-29.32-15.87-49.77-2.86-.63-.75-1.16-1.25-1.53-1.85-5.97-9.84-24.14-11.47-29.94,1.86-2.22,5.09-2.73,10.68-2.75,16.22-.05,17.75-.06,35.51.06,53.26.03,5.51.21,11.09,2.13,16.34,1.98,5.38,5.21,9.88,11.26,10.95,6.62,1.16,12.09-.6,16.27-6.53,3.95-5.62,4.67-11.88,4.9-18.22.34-9.54.04-19.1.04-28.65-.01-4.48.27-8.93,1.06-13.36.88-4.93,7.36-8.78,12.53-5.42,5.05,3.29,6.21,8.27,6.36,13.51.29,10.58.02,21.18.15,31.77.05,4.62.24,9.27.88,13.83,1,7.08,6.66,12.87,12.85,13.72,7.69,1.07,12.51-1.83,16.35-9.44,2.21-4.39,2.95-9.02,2.97-13.83.05-11.49.11-22.97.02-34.46-.03-4.36,1.17-8.28,3.65-11.72,3.02-4.19,9.97-3.72,12.48.78,1.3,2.33,2.23,4.84,2.55,7.57,1.25,10.4.84,20.86,1.1,31.29.18,7,.22,14.09,3.79,20.45,2.85,5.07,6.8,8.6,13.05,8.68,6.23.09,10.28-3.19,13.31-8.25,2.98-4.98,4.36-10.41,4.4-16.15.08-16.11.57-32.25-.05-48.33-.84-21.99-19.23-36.6-42.89-29.79Z"/>
    <path class="cls-1" d="M185.64,154.29c-8.01-23.16-15.53-46.49-23.43-69.68-2.33-6.86-3.67-14.16-8.11-20.18-3.39-1.64-4.95-5.37-8.49-7.02-10.87-5.04-22.99-.2-27.88,10.72-4.08,9.08-6.66,18.73-11.1,27.64-.97,6.97-4.71,13.02-6.55,19.75-1.95,7.12-5.08,13.92-7.66,20.75,3.39,6.71,5.88,13.3,1.67,20.39-1.6,3.57-4.43,6.07-7.84,7.57-3.75,1.66-5.8,4.4-7.08,8.04-.93,2.67-1.96,5.28-3.8,7.51-2.54,3.08-5.84,3.9-9.14,2.17-3.44-1.8-4.24-5.14-2.93-8.86.99-2.81,2.88-4.61,5.55-6,4.65-2.43,9.87-3.06,14.62-5.14,4.23-1.84,7.12-4.7,8.89-8.84-.33-12.24-5.8-21.33-15.22-22.89-9.11-1.52-18.46-1.43-26.89,3.58-1.16.69-2.14,1.63-3.62,1.38-8.09,5.53-13.53,13.1-15.77,22.53-2.59,10.87-2.68,21.98.66,32.73,3.19,10.24,8.31,19.11,17.94,25.18,19.83,12.48,44.46,6.91,57.13-14.19,4.76-7.94,7.01-17,10.56-25.48.65-1.56,1.06-3.07,2.75-3.85,9.21,0,18.45.18,27.69-.08,4.03-.12,6.63,1.38,8.06,4.9,2.05,5.02,5.69,8.7,9.82,11.92,8.75,6.85,20.67,3.18,24.21-7.31,1.38-4.09,1.36-8.25.34-12.35-1.23-5.02-2.68-9.97-4.38-14.89ZM142.95,138.2c-4.7.77-9.41.75-14.86-.03-.96-.14,6.7-19.77,7.61-21.45.29-.54,2.69,2.74,2.83,3.01.85,1.66,1.23,3.6,1.19,5.45-.02-.01-.04-.02-.06-.03.03.05.06.11.09.16v.02c-.01.06-.03.12-.04.18l.02-.02c.58,1.16,5.98,12.26,3.22,12.71Z"/>
    <path class="cls-1" d="M937.44,91.09c-7.73-1.77-14.75-.62-20.61,4.75-1.62.33-2.77-.08-3.91-.99-4.49-3.55-9.73-4.95-15.35-5.17-11.51-.46-21.23,3.98-29.45,11.58-13.25,12.26-18.09,27.92-17.25,45.59.77,16.48,7.02,30.22,20.56,40.19,6.13,7.84,26.11,13.64,37.21,6.35,9.93-6.51,13.54-20.88,7.52-29.59-3.25-3.97-7.14-6.22-12.55-6.58-14.97-.99-21.15-9.25-17.85-23.71,1.24-5.45,5.37-9.08,10.48-10.63,5.27-1.61,10.15-.3,13.97,4.4,2.78,3.41,4.17,7.22,4.39,11.38.3,5.49.08,11,.08,15.48,9.64,10.81,10.66,21.66,4.82,33.2-1.85,3.67-.47,5.84,2.58,7.2,10.49,4.7,24.1.78,24.92-13.28,1.53-26.48.91-53.07.21-79.61-.16-5.98-3.91-9.21-9.77-10.56Z"/>
    <path class="cls-1" d="M673.48,75.42c-.41-5.43-2.2-10.45-6.92-13.33-8.73-5.32-19.53-.63-22.47,9.23-1.86,6.23-2.12,12.57-1.98,18.99.04,1.69.66,3.6-.88,4.99-1.45.51-2.34-.39-3.28-1.09-5.18-3.83-11.24-4.69-17.34-4.32-11.86.71-21.52,6.25-29.59,14.77-1.48,1.79-2.96,3.58-4.44,5.37-3.84,6.59-7.22,13.43-8.38,21.01-1.74,11.45-1.6,22.78,2.78,33.83,5.61,14.14,15.33,24.2,29.73,28.84,10.89,3.52,21.65,3.95,29.7-6.98,4.8-6.52,5.85-13.39,2.99-20.56-2.66-6.66-8.53-8.92-15.47-9.1-5.61-.15-10.25-2.5-13.91-6.91-4.02-4.85-3.29-10.48-2.26-15.79,1.14-5.9,5.31-10.05,11.05-11.77,5.7-1.71,10.42.55,14.21,5.11,3.25,3.9,4.04,8.49,4.22,13.29.17,4.46-.22,8.94.24,13.36,2.85,3.33,5.78,6.34,6.94,10.82,1.59,6.17,1.39,11.97-.68,17.95-1.62,4.69.05,9.08,4.09,11.1,5.9,2.97,14.44,2.3,18.06-3.56h0c4.09-6.04,3.92-12.99,3.96-19.79.11-16.98.23-33.96.03-50.94-.18-14.84.71-29.69-.4-44.52Z"/>
    <path class="cls-1" d="M1039.67,142.04c-7.24-3.09-14.79-5.43-22.13-8.32-2.97-1.16-5.04-3.31-4.13-6.96.88-3.55,3.53-4.11,6.77-4.53,5.92-.77,9.94,3.48,14.95,5.03,3.16.97,6.02,1.44,8.78-.93,5.95-5.11,6.71-17,1.93-23.26-4.15-5.44-10.02-7.22-16.05-8.88-12.27-3.39-24.07-2.14-34.6,5.11-16.35,11.25-16.84,33.16-1.9,43.13,6.82-.86,12.97.61,16.95,7,1.5,2.41,3.45,3.83,6.16,4.74,4.1,1.38,7.24,4.13,8.97,8.21,1.36,3.2.51,5.92-2.28,7.86-2.78,1.94-5.24,1.13-7.57-1.16-2.66-2.62-3.88-5.96-5.06-9.33-1.34-3.84-3.01-7.49-6.29-10.06-4.73-3.7-12.98-4.25-17.75-1.31-5.01,3.08-8.4,11.62-7.11,18.15,3.71,18.83,21.49,35.58,43.16,32.04,20.53-3.36,34.76-16.29,31.64-38.1-1.28-8.93-6.4-15-14.44-18.43Z"/>
    <path class="cls-1" d="M425.14,88.12c-16.83-3.93-31.37-1.7-43.47,10.75-14.88,15.33-21.54,48.21-7.84,70.72,13.87,22.79,45.63,33.4,69.76,12.62,6.91-5.95,11.89-13.23,10.43-23.36-1.15-8.02-7.51-13.76-15.26-13-5.14.5-7.54,4.47-9.98,8.15-4.15,6.28-9.91,8.17-17.01,6.88-5.8-1.06-10.32-7.7-9.23-13.94h25.71c9.37-8.14,14.85-8.19,23.77-1.74,3.16-1.69,4.57-3.94,5.09-7.45,2.72-18.14-12.24-45.02-31.97-49.63ZM421.12,129.25c-5.85,6.17-13.16,5.51-20.37,4.01-4.07-.85-5.41-5.14-2.76-8.96,3.13-4.52,7.33-7.72,13.33-7.74,5.77-.01,12.55,4.32,9.8,12.69Z"/>
    <path class="cls-1" d="M826.08,61.75c-5.35-2.05-10.6-1.26-15,2.74-3.88,3.53-4.34,8.25-4.34,13.11,0,33.98,0,67.96,0,101.95,0,1.48.03,2.98.22,4.46,1.21,9.49,10.3,14.76,19.14,11.18,6.21-2.52,8.69-7.36,8.7-13.73.04-17.59,0-35.18,0-52.76h.04v-3.58c-.05-16.99-.04-33.98-.16-50.97-.05-5.99-3.13-10.31-8.6-12.4Z"/>
    <path class="cls-1" d="M761.51,95.22c-13.14-9.17-38.47-9.41-52.97,3.15-10.17,8.8-17.23,19.42-19.39,33.06-3.41,21.48,2.07,39.68,18.81,54.07,13.61,11.7,34.35,14.31,50.18,5.77,19.41-10.48,27.79-27.6,28.6-47.32-.42-6.62-.71-11.38-1.97-16.25-3.61-13.95-11.5-24.28-23.26-32.48ZM746.04,156.29c-7.55,7.59-14.42,4.85-19.45-2.83-2.19-3.34-3.24-7.35-2.86-11.57-.34-4.45.97-8.64,3.48-12.18,6.07-8.55,14.54-8.25,20.88.46,5.23,7.19,4.2,19.85-2.05,26.12Z"/>
    <path class="cls-1" d="M985.11,30.25c-3.91-4.89-10.8-6.91-16.47-4.83-5.26,1.92-9.7,7.99-9.32,13.89.74,11.57,1.89,23.12,2.94,34.67.15,1.59.56,3.14,1.76,4.48,3.61,4.04,9.13,3.04,12.72-3.09,6.22-10.62,10.6-21.93,10.86-35.03-.3-3.12.04-6.94-2.49-10.09Z"/>
    <path class="cls-1" d="M807.37,320.07c4.58,1.6,8.51,4.03,12.16,7.11,5.16,4.37,12.13,4.32,17.11-.04,9.2-8.09,9.86-20.89,1.05-30.09-10.98-11.48-24.95-16.15-40.47-14.8-17.76,1.54-32.23,9.44-42.29,24.73-9.45,14.39-10.69,29.99-7.44,46.31,1.74,8.71,4.94,16.75,12.03,22.68,4.36,5.85,10.04,10.19,16.42,13.46,15.78,8.11,31.71,8.37,47.49-.05,8.47-4.52,15.51-10.54,18.84-19.94,4-11.3-5.16-23.16-16.87-21.92-4.65.49-7.58,3.88-10.77,6.71-10.48,9.31-22.15,8.46-30.99-2.37-1.2-3.77-2.07-7.59-2.4-11.57-1.25-14.7,12.24-25.09,26.13-20.22Z"/>
    <path class="cls-1" d="M940.08,290.76c-15.73-10.19-31.92-12.69-48.5-4.53-21.13,10.41-30.09,29.06-31.32,51.11.43,13.31,3.19,25.14,10.56,35.35,11.18,15.49,26.03,24.72,45.67,22.42,21.69-2.53,35.36-15.39,43.32-35.57,8.48-21.52,1.44-55.08-19.73-68.78ZM918.95,355.26c-4.41,3.39-10.04,3.4-14.23-.29-9.3-8.21-9.61-24.26-.63-32.72,4.74-4.46,11.34-4.41,16.06.1,4.47,4.27,6.71,9.42,6.06,15.63.61,7.05-1.52,12.86-7.26,17.28Z"/>
    <path class="cls-1" d="M205.9,308.33c-3.61-2.18-7.47-2.84-11.55-2.84h-30.76v-18.28h27.66c4.18,0,8.27-.17,12.39-1.35,6.53-1.86,10.08-6.08,11.09-12.54,1.02-6.49-1.28-11.62-6.67-15.5-4.02-2.9-8.58-3.33-13.2-3.35-17.9-.1-35.81-.14-53.71-.02-11.11.08-18.57,6.81-19.48,17.85-1.4,17.12-.41,34.29-.51,51.44-.01.69.42,1.38.74,2.34,13.25,4.1,22.69,11.96,23.01,26.92.35,16.31-9.44,24.75-24.02,28.64-.57,1.39-.88,2.55-1.47,3.55-2.42,4.12-6.1,5.24-9.8,3.08-3.55-2.07-4.14-5.32-1.93-9.63,1.59-3.1,3.82-5.2,7.36-5.85,2.92-.55,5.82-1.25,8.71-1.98,6.91-1.73,12.6-5.11,14.06-12.63,2.38-12.2-8.84-23.59-18.75-24.9-23.3-3.08-36.36,8.45-44.78,28.6-4.9,11.72-4.43,24.03-1.82,36.47,3.35,15.97,19.82,30.34,34.58,33.17,14.73,2.82,26.87-3.23,37.76-12.16,12.7-10.41,17.64-24.71,18.17-40.6.41-12.22.04-24.46.1-36.7.01-2.01-.57-4.19,1.3-6.51,4.68,0,9.73.08,14.77-.02,7.45-.16,14.94.68,22.34-.55,6.38-1.07,10.16-4.68,11.08-10.04,1.29-7.58-1.1-13.25-6.67-16.61Z"/>
    <path class="cls-1" d="M328.08,360.38c-1.84-8.43-6.9-14.43-17.11-13.07-5.03.66-7.57,4.54-9.99,8.19-5.18,7.81-13.66,8.53-20.53,6.48-5.88-1.76-9.54-7.88-8.72-14.25h29.54c8.35-7.32,14.95-7.63,24.94-1.65,2.24-.33,3.5-2.07,5.05-3.58,2.42-12.98-1.28-24.12-7.93-34.69-4.73-7.52-11.09-13.06-18.94-16.99-10.4-5.2-21.25-6.05-32.61-3.78-9.93,1.98-17.92,7.06-24.44,14.42-8.67,9.8-12.31,21.61-13.8,34.54-2.47,21.37,6.61,41.83,25.22,52.65,18.16,10.56,40.59,9.67,57.05-3.29,7.8-6.15,14.74-13.66,12.27-24.98ZM273.92,320.14c4.07-2.49,8.67-2.07,13.04-1.07,3.9.89,5.32,4.25,4.83,9.73-5.25,6.54-19.26,7.6-25.01,1.47.36-4.87,3.41-7.85,7.14-10.13Z"/>
    <path class="cls-1" d="M403.25,331.63c.11,3.58-.02,7.16.05,10.74.23,12.53-.71,25.08.54,37.58.7,7.02,4.39,12.41,11.02,15.08,4.93,1.99,9.93,1.43,14.4-1.81,4.91-3.55,6.7-8.87,7.04-14.41,1.36-21.6,1.26-43.27.24-64.85-.89-18.75-16.37-29.05-32.15-28.5-8.53.3-16.02,2.86-21.85,9.6-1.01-.74-1.46-.93-1.7-1.27-5.29-7.45-13.02-8.77-20.73-6.25-6.99,2.28-10.12,8.85-10.88,16.08-1.21,11.6-.49,23.26-.47,34.89.03,14.46-.82,28.95.66,43.38.81,7.87,7.22,13.67,15.01,13.83,8.12.16,14.13-4.94,15.3-13.19.44-3.08.68-6.23.7-9.35.09-13.87,0-27.75.12-41.63.06-6.34,4.83-10.8,11.16-10.85,6.83-.06,11.34,4.16,11.54,10.93Z"/>
    <path class="cls-1" d="M499.2,394.4c16.75,4.63,43.97-3.07,53.17-20.78,3.11-5.98,2.98-12.02-.82-17.77-3.78-5.7-9.05-8.11-15.79-6.6-4.07.92-7.04,3.81-9.85,6.66-2.96,3.02-6.76,4.74-10.55,5.4-7.83,1.34-15.96-1.31-20.2-8.34-3.89-6.47-3.53-19.14.68-24.67,5.38-7.07,14.73-11.11,23.65-7.12,3.99,1.78,7.65,3.89,11.18,6.4,4.03,2.86,8.3,4.27,13.37,2.38,5.56-2.07,9.75-7.38,10.39-13.24.84-7.7-2.18-13.79-7.64-18.68-15.39-13.78-33.69-16.37-52.25-9.76-22.82,8.12-36.17,27.19-36.5,52.09.1,22.77,13.85,46.48,41.16,54.03Z"/>
    <path class="cls-1" d="M622.28,286.28c-14.21-1.53-26.94,1.51-37.79,10.99-12.3,10.77-16.81,25.17-18.24,40.83-1.42,15.62,2.95,29.62,13.62,41.03,19.7,21.08,54.08,23.33,75.13.47,6.6-7.16,8.35-17.67,3.95-25.13-2.28-3.85-5.31-6.48-10.11-7.27-7.64-1.24-11.41,3.48-15.23,8.65-4.65,6.3-12.47,8.73-19.85,6.38-5.33-1.69-9.62-8.32-8.86-14.33h29.05c8.31-7.32,15.4-7.67,25.37-1.7,2.01-.67,3.25-2.42,5.05-3.9.24-2.81.89-5.8.69-8.72-1.51-22.17-17.76-44.62-42.78-47.3ZM624.51,330.61c-4.83,5.59-19.68,5.86-25.27.02.54-5.58,3.53-9.38,8.47-11.52,5.47-2.36,11.01-2.8,15.91,1.44,2.93,2.54,3.23,7.35.89,10.06Z"/>
    <path class="cls-1" d="M556,105.81c-7-13.03-20.65-17.26-34.26-14.37-5.66,1.2-9.66,4.89-14.25,8.15-6.33-6.99-13.72-9.75-22.59-6.95-6.36,4.54-8.52,10.87-8.5,18.31.05,22.08,0,44.15.02,66.23,0,1.94-.09,3.93.31,5.8,1.01,4.78,2.56,9.69,7.91,10.94,5.97,1.4,12.28,2.03,16.81-3.67,3.13-3.93,3.66-8.75,3.7-13.54.1-14.17,0-28.34.12-42.51.06-6.92,4.59-11.59,10.9-11.64,7.04-.06,12,4.39,12.21,11.43.52,16.82-.67,33.66.88,50.46h0c.66.98,1.44,1.89,1.94,2.94,2.72,5.72,7.58,7.79,13.49,7.72,5.68-.06,9.99-2.5,12.2-8.05,1.6-4.02,2.76-8.12,2.76-12.5,0-17.75.09-35.5-.05-53.25-.04-5.36-1.01-10.67-3.6-15.5Z"/>
  </g>
  <path class="cls-1" d="M982.31,376.9c.03-9.88,7.57-17.8,16.94-17.81,9.29,0,17.2,8.24,17.05,17.78-.16,10.39-7.49,17.98-17.3,17.92-9.45-.05-16.73-7.85-16.69-17.9Z"/>
</svg>