<?xml version="1.0" encoding="UTF-8"?>
<svg id="Layer_1" xmlns="http://www.w3.org/2000/svg" viewBox="0 0 1080 660">
  <defs>
    <style>
      .cls-1 {
        fill: #07124a;
      }
    </style>
  </defs>
  <path class="cls-1" d="M183.82,414.19h-83.16l-9.63,25.09h-53.69l78.49-203.95h52.52l78.78,203.95h-53.69l-9.63-25.09ZM164.86,364.58l-22.76-58.94-22.47,58.94h45.23Z"/>
  <path class="cls-1" d="M315.99,439.28l-78.49-204.24h53.69l51.06,133.64,51.35-133.64h53.69l-78.78,204.24h-52.52Z"/>
  <path class="cls-1" d="M491.04,235.33h49.6v203.37h-49.6v-203.37Z"/>
  <path class="cls-1" d="M890.04,414.19h-83.16l-9.63,25.09h-53.69l78.49-203.95h52.52l78.78,203.95h-53.69l-9.63-25.09ZM871.08,364.58l-22.76-58.94-22.47,58.94h45.23Z"/>
  <rect class="cls-1" x="17.18" y="485.79" width="956.34" height="5.04"/>
  <g>
    <path class="cls-1" d="M886.79,97.72c1.87-1.47,3.75-2.95,5.62-4.42,1.87-1.47,3.73-3.11,5.58-4.92-.03-.33-.13-.49-.29-.48-.17.01-.26-.14-.28-.47-2.23,1.17-4.37,2.42-6.42,3.74-2.06,1.33-4.18,2.74-6.38,4.24.76,1.27,1.48,2.04,2.17,2.31Z"/>
    <path class="cls-1" d="M853.88,124.94c9.13-8.18,18.35-16.45,27.63-24.81-.35-.3-.63-.61-.82-.93-.19-.31-.47-.62-.82-.93-9.29,8.36-18.51,16.63-27.63,24.81-9.13,8.18-18.18,16.44-27.14,24.77.7.61,1.26,1.23,1.64,1.86,8.96-8.33,18-16.59,27.14-24.77Z"/>
    <path class="cls-1" d="M964.45,48.31c-.35-.29-.54-.61-.57-.95-.03-.33-.23-.81-.61-1.45l-41.48,22.68c-.31.36-.43.95-.36,1.77.06.83-.04,1.58-.32,2.26,7.29-4.22,14.52-8.27,21.67-12.15,7.16-3.88,14.37-7.93,21.67-12.16Z"/>
    <path class="cls-1" d="M867.49,124.11l1.6,1.37c2.48-2.19,4.8-4.27,6.97-6.27,2.16-1.99,4.32-4.07,6.47-6.23-.05-.65-.43-1.29-1.14-1.9l-13.89,13.03Z"/>
    <path class="cls-1" d="M903.18,97.42c3.44-2.58,6.81-5.09,10.1-7.51,3.29-2.41,6.65-4.91,10.1-7.51-.36-.3-.63-.61-.82-.93-.19-.31-.46-.62-.82-.93-3.45,2.6-6.81,5.1-10.1,7.51-3.29,2.42-6.66,4.93-10.1,7.51.35.31.62.62.82.93.19.32.46.63.82.93Z"/>
    <path class="cls-1" d="M827.3,163.1c-2.75,2.88-5.61,5.59-8.56,8.13-2.95,2.56-5.8,5.27-8.56,8.14-1.52,1.78-2.93,3.8-4.24,6.06-1.31,2.26-2.72,4.44-4.21,6.55,1.59-.79,2.93-1.64,4.02-2.56,1.08-.91,2.1-1.73,3.03-2.48,3.64-4.27,7.37-8.45,11.19-12.57,3.82-4.11,7.56-8.13,11.23-12.08-.66.05-1.32.1-1.98.16-.66.05-1.3.28-1.94.66Z"/>
    <path class="cls-1" d="M811.85,165.81c3.8-4.28,7.85-8.57,12.16-12.89-1.01-.25-1.73-.86-2.13-1.82-3.97,4.29-7.94,8.67-11.89,13.12-3.96,4.46-8.09,8.85-12.39,13.16.69.28,1.38.72,2.09,1.32,4.3-4.32,8.35-8.62,12.16-12.9Z"/>
    <path class="cls-1" d="M1062.14,63.48c-1.06-4.89-2.35-9.76-3.89-14.62-1.55-4.85-5.36-8.03-11.45-9.54-4.74-1.28-9.57-2.55-14.48-3.83-4.91-1.27-9.67-1.73-14.28-1.36-7.58.6-15.03,1.73-22.36,3.38-7.32,1.66-14.76,3.09-22.29,4.3-.67.05-1.76.91-3.28,2.57,3.32.08,6.92-.54,10.8-1.85,1.62-.45,3.24-.83,4.88-1.13,1.63-.3,3.26-.67,4.89-1.14.08.99.29,1.64.65,1.94-9.93,4.5-19.61,8.91-29.05,13.19-9.44,4.3-18.18,10.14-26.22,17.54,6.41-2.82,13.27-6.18,20.59-10.08,2.53-1.52,5.24-2.97,8.11-4.37,2.88-1.38,5.58-2.84,8.11-4.37.66-.05,1.33.06,2.02.34.69.28,1.37.56,2.05.83-1.21,1.43-2.3,2.34-3.26,2.75-2.23,1.17-4.63,2.27-7.2,3.3-2.58,1.03-4.62,2.44-6.13,4.22-3.01,3.89-6.54,6.4-10.6,7.55-4.06,1.15-7.8,3.03-11.25,5.61-4.4,3.01-9.01,5.53-13.83,7.56-4.81,2.04-8.89,5.01-12.22,8.92-3.64,4.26-7.4,8.21-11.25,11.83-3.87,3.62-8.37,6.47-13.5,8.53-.61.71-1.08,1.08-1.41,1.1-4.33,3.99-8.32,7.95-11.99,11.89-3.67,3.95-7.67,7.91-12,11.89-2.51,1.86-5.01,3.71-7.51,5.56-2.51,1.87-5.02,3.72-7.52,5.57-.77-1.26-1.51-2.2-2.21-2.81,3.41-2.92,6.57-5.99,9.47-9.2,2.89-3.21,6.04-6.27,9.47-9.2l-1.6-1.37c-1.57,1.12-3.15,2.16-4.73,3.11-1.59.96-3.16,1.98-4.72,3.11-2.15,2.16-4.22,4.31-6.2,6.46-1.99,2.15-3.73,4.27-5.22,6.38-1.79,2.47-4.05,4.47-6.74,6.01-2.7,1.54-3.89,4.29-3.58,8.23.38.64.76,1.19,1.13,1.65.36.47.41,1.05.14,1.73-.89,1.4-1.86,2.72-2.92,3.96-1.07,1.25-2.03,2.57-2.92,3.96-3.04,3.56-5.84,7.01-8.38,10.36-2.56,3.36-5.35,6.81-8.39,10.36-3.06,3.23-6.23,6.14-9.51,8.71-3.27,2.58-5.93,5.78-7.94,9.58-2.36,3.84-4.81,7.43-7.35,10.78-2.56,3.36-4.84,6.93-6.86,10.74-1.44,2.77-3,5.13-4.66,7.08-1.67,1.96-3.96,3.38-6.88,4.27.37-3.67,1.53-6.83,3.48-9.48,1.95-2.64,3.97-5.36,6.07-8.18,2.09-2.82,4.03-5.62,5.8-8.42,1.77-2.79,3.54-5.58,5.31-8.38l-1.6-1.37c-1.16,2.08-2.2,3.66-3.11,4.72-8.42,10.95-16.35,21.86-23.78,32.71-1.19,1.76-2.13,3.49-2.82,5.2-.7,1.72-1.47,3.43-2.33,5.15,2.2-1.49,4.42-2.83,6.65-4.01.5,2.28.59,4.27.22,5.95-.37,1.7-1.64,3.45-3.82,5.28-1.6.8-2.83,1.96-3.7,3.52-.87,1.56-2.09,2.9-3.66,4.02.78-2.71,1.49-5.26,2.13-7.62.64-2.37,1.37-4.75,2.17-7.14-1.27.77-2.2,1.51-2.81,2.21-4.18,5.97-8.36,11.77-12.55,17.4-4.2,5.64-7.89,11.4-11.07,17.29-5.2,9.7-11.11,18.96-17.7,27.76-6.6,8.81-11.81,18.34-15.65,28.59l-.42,1.02c-2.71,3.54-5.41,7.07-8.12,10.59-2.7,3.54-5.4,7.06-8.11,10.59-.31.36-1.74,1.14-4.29,2.33.19-1.67.17-3.08-.09-4.22-.26-1.14-.1-2.23.48-3.27,2.35-3.83,4.54-7.57,6.58-11.21,2.03-3.64,4.06-7.36,6.08-11.17,2.32-4.16,4.56-8.4,6.71-12.71,2.15-4.31,4.39-8.39,6.74-12.22,4.09-6.95,8.45-13.68,13.08-20.18,4.62-6.5,9-13.06,13.12-19.69l10.69-15.76c-.63.38-1.37.53-2.2.42-.84-.09-1.4.2-1.67.88-3.29,4.57-6.67,9.07-10.12,13.48-3.47,4.42-6.83,9.08-10.09,13.97-2.68,3.87-5.25,8.05-7.71,12.55-2.46,4.51-4.86,8.84-7.18,13-2.08,3.15-4.16,6.22-6.23,9.2-2.09,2.98-3.84,6.02-5.25,9.12-3.19,5.89-6.13,11.68-8.82,17.36-2.7,5.69-5.64,11.47-8.82,17.36-4.93,9.02-9.84,18.19-14.74,27.52-4.9,9.34-9.81,18.52-14.73,27.52-.56,1.38-1.38,2.52-2.46,3.43-1.09.92-2.09,1.91-3,2.97-.33.03-.85-.26-1.56-.87.5-2.03,1-4.06,1.51-6.09.5-2.03,1.19-3.9,2.04-5.63.53-1.7,1.32-3.25,2.37-4.66,1.05-1.4.33-3.17-2.16-5.3-.72-.6-.91-2.08-.6-4.43.31-2.34.93-3.88,1.87-4.62,2.17-1.83,3.03-3.55,2.57-5.18-.46-1.62-1.76-3.5-3.92-5.65,5.19-1.41,6.32-3.82,3.41-7.24.55-1.36,1.12-2.49,1.72-3.37.59-.87,1.01-1.82,1.26-2.84.58-1.04.83-2.13.74-3.29-.09-1.15-.02-2.24.24-3.25.53-1.7.99-3.23,1.38-4.58.39-1.35.52-2.85.39-4.51.21-9.96,2.43-19.59,6.68-28.88,1.44-2.77,2.44-5.75,3.02-8.95.57-3.19-.11-6.53-2.04-10.03-.79-1.59-.76-3.34.08-5.23.85-1.89,1.7-3.7,2.56-5.43,1.46-2.43,2.37-5.66,2.71-9.67.35-4.01-.22-6.94-1.69-8.82.48-2.36,1.38-4.58,2.71-6.68,1.32-2.09,2.48-4.17,3.48-6.24,1-2.07,1.58-4.18,1.74-6.35.15-2.17-.54-4.69-2.09-7.55-.36-.3-.25-.98.34-2.02,1.33-4.08,2.42-8.15,3.26-12.19.84-4.05.73-8.51-.31-13.4-.95-3.57-.84-7.4.33-11.47,1.17-4.07,2.11-7.95,2.81-11.66.43-3.01.53-5.84.32-8.48-.21-2.63-1.73-5.16-4.57-7.6-1.07-.91-1.68-2.35-1.84-4.33-1.06-4.89-3.32-8.35-6.79-10.4-3.48-2.04-7.42-3.56-11.8-4.54-1.34-.22-2.52-.46-3.54-.71-1.01-.25-2.37-.64-4.07-1.17.57-1.04,1-1.9,1.28-2.59.27-.68.71-1.38,1.33-2.09-1.04-.58-2.22-.74-3.52-.47-1.3.28-2.62.46-3.94.56-1.32.1-2.49-.13-3.53-.71-1.04-.58-1.65-2.02-1.84-4.33-3.85,1.63-8.17,3.63-12.96,5.99.2-1.67.26-3,.18-3.99-.08-.99-.02-2.32.19-3.99-2.49,2.19-3.69,3.61-3.64,4.27-2-.17-3.76-.36-5.27-.58-1.51-.21-2.57.04-3.17.75-2.18,1.83-3.15,4.23-2.91,7.19-.01,8.29.4,16.63,1.23,25.02.83,8.39,1.07,16.75.74,25.06-.61,13.31-1.56,26.48-2.85,39.51-1.29,13.04-2.74,26.25-4.33,39.64-.97,8.7-2.04,17.24-3.2,25.61-1.16,8.38-2.39,16.94-3.69,25.66-1,8.37-2.1,16.58-3.28,24.63-1.19,8.05-2.12,16.25-2.78,24.59-.82,10.68-1.48,21.25-1.97,31.73-.5,10.48.49,20.93,2.98,31.35,1.05,4.89,2.34,9.76,3.89,14.61,1.54,4.86,3.78,9.15,6.74,12.9,2.59,3.45,5.89,6.42,9.91,8.92,4.01,2.5,8.07,4.58,12.18,6.25,3.43,1.38,7.05,2.18,10.88,2.38,3.82.19,7.57.47,11.26.85,3.67.37,6.44-.35,8.28-2.15,3.59-4.93,6.38-9.45,8.38-13.59,2.53-5.83,4.89-11.49,7.11-16.98,2.22-5.47,4.59-11.13,7.11-16.97l18.07-35.74c1.16-2.08,2.32-4.16,3.49-6.24,1.16-2.08,2.32-4.16,3.49-6.24,2.6-4.85,5.19-9.86,7.76-15.04,2.58-5.17,5.16-10.18,7.77-15.04,4.92-9,9.86-17.85,14.81-26.53,4.95-8.68,9.88-17.52,14.81-26.54,4.14-6.3,8.14-12.41,11.98-18.35,3.83-5.94,7.83-12.06,11.97-18.36,2.1-2.81,3.94-5.7,5.54-8.64,1.58-2.94,3.43-5.82,5.53-8.64,4.19-5.63,8.39-11.19,12.6-16.66,4.21-5.47,8.41-11.02,12.61-16.66,3.31-4.24,6.54-8.47,9.69-12.7,3.14-4.23,6.37-8.46,9.69-12.7,2.4-3.17,4.65-6.16,6.75-8.99,2.09-2.82,3.86-5.6,5.31-8.38,2.75-2.87,5.37-5.4,7.85-7.59,2.47-2.18,4.78-4.52,6.9-7.01,3.59-4.92,7.79-9.4,12.62-13.43,4.82-4.02,8.32-8.94,10.52-14.76.28-.68,1.23-1.09,2.89-1.22.63-.38,1.36-.6,2.18-.67.82-.06,1.54-.45,2.15-1.17l15.26-14.64c1.54-1.44,2.75-2.95,3.62-4.51.87-1.56,2.07-3.06,3.62-4.51,3.11-2.56,6.24-4.88,9.4-6.96,3.15-2.06,6.28-4.39,9.39-6.96l15.5-11.67c2.83-1.88,6-3.62,9.53-5.23,3.52-1.6,5.93-4.61,7.24-9.03.27-.68.91-1.14,1.88-1.39.98-.24,1.96-.4,2.95-.48.63-.38,1.37-.52,2.2-.42.83.1,1.56-.04,2.2-.42,3.8-2.29,7.5-4.74,11.11-7.35,3.6-2.6,7.47-5.07,11.6-7.38,8.22-4.95,16.84-9.2,25.85-12.73,9-3.52,18.41-6.18,28.22-7.95,4.59-.69,7.83-.53,9.74.48,1.9,1.02,3.2,3.81,3.9,8.39,1.07,5.22,1.73,10.39,1.97,15.51.24,5.13.58,10.48,1.02,16.08.71.61,1.42,1.3,2.15,2.07.72.77,1.63,1.78,2.72,3.01,2.87-5.53,5.11-10.92,6.68-16.19,1.57-5.26,1.81-10.67.71-16.22ZM608.83,306.18c-1.44,2.77-2.03,5.8-1.77,9.09.26,3.3.19,6.62-.21,9.96-.43,3.02-.85,6.04-1.28,9.05-.43,3.02-.84,6.21-1.23,9.55-.2,1.68-.31,3.51-.31,5.5-.02,1.99.53,3.61,1.62,4.84,1.88,2.84,2.33,5.38,1.35,7.6-.99,2.24-1.88,4.55-2.69,6.92-.59,1.04-.82,2.14-.73,3.29.09,1.16,0,2.24-.25,3.25-.2,1.68-.14,3.49.18,5.46.32,1.96.21,3.8-.31,5.5-1.03,3.73-1.48,7.5-1.34,11.29.13,3.81-1.51,7.17-4.92,10.09-.91,1.07-.81,2.39.31,3.95,1.85,2.51,2.39,5.04,1.59,7.58-.79,2.55-1.42,5.17-1.87,7.86-.2,1.68-.26,3.09-.16,4.24.09,1.16-.14,2.42-.7,3.79-.2,1.68-.57,3.27-1.11,4.81-.55,1.54-1.07,3.32-1.57,5.35l-3.24-3.23c.24-5.32.49-10.56.75-15.73.25-5.16.5-10.4.75-15.73.29-4.66.69-9.08,1.19-13.27.49-4.18,1.06-8.62,1.68-13.32.99-8.36,2.07-16.74,3.23-25.12,1.16-8.37,2.23-16.75,3.24-25.12.4-3.34.72-6.6.97-9.78.25-3.17.56-6.42.97-9.78.37-3.67.83-7.35,1.36-11.05.53-3.69.99-7.37,1.36-11.05l1.98-.16c-.15,2.34.36,4.53,1.51,6.6,1.16,2.07,1.03,4.64-.38,7.74Z"/>
    <path class="cls-1" d="M767.44,217.56c-5.32,4.08-10.07,8.93-14.27,14.56-2.7,3.53-5.26,6.97-7.64,10.3-2.4,3.34-4.76,6.93-7.11,10.76-.86,1.74-1.29,3.67-1.28,5.82,0,2.16-.26,4.09-.79,5.78,5-8.02,10.19-15.89,15.54-23.61,5.36-7.71,10.53-15.58,15.55-23.61Z"/>
  </g>
  <path class="cls-1" d="M183.82,414.19h-83.16l-9.63,25.09h-53.69l78.49-203.95h52.52l78.78,203.95h-53.69l-9.63-25.09ZM164.86,364.58l-22.76-58.94-22.47,58.94h45.23Z"/>
  <path class="cls-1" d="M315.99,439.28l-78.49-204.24h53.69l51.06,133.64,51.35-133.64h53.69l-78.78,204.24h-52.52Z"/>
  <path class="cls-1" d="M491.04,235.33h49.6v203.37h-49.6v-203.37Z"/>
  <path class="cls-1" d="M890.04,414.19h-83.16l-9.63,25.09h-53.69l78.49-203.95h52.52l78.78,203.95h-53.69l-9.63-25.09ZM871.08,364.58l-22.76-58.94-22.47,58.94h45.23Z"/>
  <rect class="cls-1" x="17.18" y="485.79" width="956.34" height="5.04"/>
  <g>
    <path class="cls-1" d="M886.79,97.72c1.87-1.47,3.75-2.95,5.62-4.42,1.87-1.47,3.73-3.11,5.58-4.92-.03-.33-.13-.49-.29-.48-.17.01-.26-.14-.28-.47-2.23,1.17-4.37,2.42-6.42,3.74-2.06,1.33-4.18,2.74-6.38,4.24.76,1.27,1.48,2.04,2.17,2.31Z"/>
    <path class="cls-1" d="M853.88,124.94c9.13-8.18,18.35-16.45,27.63-24.81-.35-.3-.63-.61-.82-.93-.19-.31-.47-.62-.82-.93-9.29,8.36-18.51,16.63-27.63,24.81-9.13,8.18-18.18,16.44-27.14,24.77.7.61,1.26,1.23,1.64,1.86,8.96-8.33,18-16.59,27.14-24.77Z"/>
    <path class="cls-1" d="M964.45,48.31c-.35-.29-.54-.61-.57-.95-.03-.33-.23-.81-.61-1.45l-41.48,22.68c-.31.36-.43.95-.36,1.77.06.83-.04,1.58-.32,2.26,7.29-4.22,14.52-8.27,21.67-12.15,7.16-3.88,14.37-7.93,21.67-12.16Z"/>
    <path class="cls-1" d="M867.49,124.11l1.6,1.37c2.48-2.19,4.8-4.27,6.97-6.27,2.16-1.99,4.32-4.07,6.47-6.23-.05-.65-.43-1.29-1.14-1.9l-13.89,13.03Z"/>
    <path class="cls-1" d="M903.18,97.42c3.44-2.58,6.81-5.09,10.1-7.51,3.29-2.41,6.65-4.91,10.1-7.51-.36-.3-.63-.61-.82-.93-.19-.31-.46-.62-.82-.93-3.45,2.6-6.81,5.1-10.1,7.51-3.29,2.42-6.66,4.93-10.1,7.51.35.31.62.62.82.93.19.32.46.63.82.93Z"/>
    <path class="cls-1" d="M827.3,163.1c-2.75,2.88-5.61,5.59-8.56,8.13-2.95,2.56-5.8,5.27-8.56,8.14-1.52,1.78-2.93,3.8-4.24,6.06-1.31,2.26-2.72,4.44-4.21,6.55,1.59-.79,2.93-1.64,4.02-2.56,1.08-.91,2.1-1.73,3.03-2.48,3.64-4.27,7.37-8.45,11.19-12.57,3.82-4.11,7.56-8.13,11.23-12.08-.66.05-1.32.1-1.98.16-.66.05-1.3.28-1.94.66Z"/>
    <path class="cls-1" d="M811.85,165.81c3.8-4.28,7.85-8.57,12.16-12.89-1.01-.25-1.73-.86-2.13-1.82-3.97,4.29-7.94,8.67-11.89,13.12-3.96,4.46-8.09,8.85-12.39,13.16.69.28,1.38.72,2.09,1.32,4.3-4.32,8.35-8.62,12.16-12.9Z"/>
    <path class="cls-1" d="M1062.14,63.48c-1.06-4.89-2.35-9.76-3.89-14.62-1.55-4.85-5.36-8.03-11.45-9.54-4.74-1.28-9.57-2.55-14.48-3.83-4.91-1.27-9.67-1.73-14.28-1.36-7.58.6-15.03,1.73-22.36,3.38-7.32,1.66-14.76,3.09-22.29,4.3-.67.05-1.76.91-3.28,2.57,3.32.08,6.92-.54,10.8-1.85,1.62-.45,3.24-.83,4.88-1.13,1.63-.3,3.26-.67,4.89-1.14.08.99.29,1.64.65,1.94-9.93,4.5-19.61,8.91-29.05,13.19-9.44,4.3-18.18,10.14-26.22,17.54,6.41-2.82,13.27-6.18,20.59-10.08,2.53-1.52,5.24-2.97,8.11-4.37,2.88-1.38,5.58-2.84,8.11-4.37.66-.05,1.33.06,2.02.34.69.28,1.37.56,2.05.83-1.21,1.43-2.3,2.34-3.26,2.75-2.23,1.17-4.63,2.27-7.2,3.3-2.58,1.03-4.62,2.44-6.13,4.22-3.01,3.89-6.54,6.4-10.6,7.55-4.06,1.15-7.8,3.03-11.25,5.61-4.4,3.01-9.01,5.53-13.83,7.56-4.81,2.04-8.89,5.01-12.22,8.92-3.64,4.26-7.4,8.21-11.25,11.83-3.87,3.62-8.37,6.47-13.5,8.53-.61.71-1.08,1.08-1.41,1.1-4.33,3.99-8.32,7.95-11.99,11.89-3.67,3.95-7.67,7.91-12,11.89-2.51,1.86-5.01,3.71-7.51,5.56-2.51,1.87-5.02,3.72-7.52,5.57-.77-1.26-1.51-2.2-2.21-2.81,3.41-2.92,6.57-5.99,9.47-9.2,2.89-3.21,6.04-6.27,9.47-9.2l-1.6-1.37c-1.57,1.12-3.15,2.16-4.73,3.11-1.59.96-3.16,1.98-4.72,3.11-2.15,2.16-4.22,4.31-6.2,6.46-1.99,2.15-3.73,4.27-5.22,6.38-1.79,2.47-4.05,4.47-6.74,6.01-2.7,1.54-3.89,4.29-3.58,8.23.38.64.76,1.19,1.13,1.65.36.47.41,1.05.14,1.73-.89,1.4-1.86,2.72-2.92,3.96-1.07,1.25-2.03,2.57-2.92,3.96-3.04,3.56-5.84,7.01-8.38,10.36-2.56,3.36-5.35,6.81-8.39,10.36-3.06,3.23-6.23,6.14-9.51,8.71-3.27,2.58-5.93,5.78-7.94,9.58-2.36,3.84-4.81,7.43-7.35,10.78-2.56,3.36-4.84,6.93-6.86,10.74-1.44,2.77-3,5.13-4.66,7.08-1.67,1.96-3.96,3.38-6.88,4.27.37-3.67,1.53-6.83,3.48-9.48,1.95-2.64,3.97-5.36,6.07-8.18,2.09-2.82,4.03-5.62,5.8-8.42,1.77-2.79,3.54-5.58,5.31-8.38l-1.6-1.37c-1.16,2.08-2.2,3.66-3.11,4.72-8.42,10.95-16.35,21.86-23.78,32.71-1.19,1.76-2.13,3.49-2.82,5.2-.7,1.72-1.47,3.43-2.33,5.15,2.2-1.49,4.42-2.83,6.65-4.01.5,2.28.59,4.27.22,5.95-.37,1.7-1.64,3.45-3.82,5.28-1.6.8-2.83,1.96-3.7,3.52-.87,1.56-2.09,2.9-3.66,4.02.78-2.71,1.49-5.26,2.13-7.62.64-2.37,1.37-4.75,2.17-7.14-1.27.77-2.2,1.51-2.81,2.21-4.18,5.97-8.36,11.77-12.55,17.4-4.2,5.64-7.89,11.4-11.07,17.29-5.2,9.7-11.11,18.96-17.7,27.76-6.6,8.81-11.81,18.34-15.65,28.59l-.42,1.02c-2.71,3.54-5.41,7.07-8.12,10.59-2.7,3.54-5.4,7.06-8.11,10.59-.31.36-1.74,1.14-4.29,2.33.19-1.67.17-3.08-.09-4.22-.26-1.14-.1-2.23.48-3.27,2.35-3.83,4.54-7.57,6.58-11.21,2.03-3.64,4.06-7.36,6.08-11.17,2.32-4.16,4.56-8.4,6.71-12.71,2.15-4.31,4.39-8.39,6.74-12.22,4.09-6.95,8.45-13.68,13.08-20.18,4.62-6.5,9-13.06,13.12-19.69l10.69-15.76c-.63.38-1.37.53-2.2.42-.84-.09-1.4.2-1.67.88-3.29,4.57-6.67,9.07-10.12,13.48-3.47,4.42-6.83,9.08-10.09,13.97-2.68,3.87-5.25,8.05-7.71,12.55-2.46,4.51-4.86,8.84-7.18,13-2.08,3.15-4.16,6.22-6.23,9.2-2.09,2.98-3.84,6.02-5.25,9.12-3.19,5.89-6.13,11.68-8.82,17.36-2.7,5.69-5.64,11.47-8.82,17.36-4.93,9.02-9.84,18.19-14.74,27.52-4.9,9.34-9.81,18.52-14.73,27.52-.56,1.38-1.38,2.52-2.46,3.43-1.09.92-2.09,1.91-3,2.97-.33.03-.85-.26-1.56-.87.5-2.03,1-4.06,1.51-6.09.5-2.03,1.19-3.9,2.04-5.63.53-1.7,1.32-3.25,2.37-4.66,1.05-1.4.33-3.17-2.16-5.3-.72-.6-.91-2.08-.6-4.43.31-2.34.93-3.88,1.87-4.62,2.17-1.83,3.03-3.55,2.57-5.18-.46-1.62-1.76-3.5-3.92-5.65,5.19-1.41,6.32-3.82,3.41-7.24.55-1.36,1.12-2.49,1.72-3.37.59-.87,1.01-1.82,1.26-2.84.58-1.04.83-2.13.74-3.29-.09-1.15-.02-2.24.24-3.25.53-1.7.99-3.23,1.38-4.58.39-1.35.52-2.85.39-4.51.21-9.96,2.43-19.59,6.68-28.88,1.44-2.77,2.44-5.75,3.02-8.95.57-3.19-.11-6.53-2.04-10.03-.79-1.59-.76-3.34.08-5.23.85-1.89,1.7-3.7,2.56-5.43,1.46-2.43,2.37-5.66,2.71-9.67.35-4.01-.22-6.94-1.69-8.82.48-2.36,1.38-4.58,2.71-6.68,1.32-2.09,2.48-4.17,3.48-6.24,1-2.07,1.58-4.18,1.74-6.35.15-2.17-.54-4.69-2.09-7.55-.36-.3-.25-.98.34-2.02,1.33-4.08,2.42-8.15,3.26-12.19.84-4.05.73-8.51-.31-13.4-.95-3.57-.84-7.4.33-11.47,1.17-4.07,2.11-7.95,2.81-11.66.43-3.01.53-5.84.32-8.48-.21-2.63-1.73-5.16-4.57-7.6-1.07-.91-1.68-2.35-1.84-4.33-1.06-4.89-3.32-8.35-6.79-10.4-3.48-2.04-7.42-3.56-11.8-4.54-1.34-.22-2.52-.46-3.54-.71-1.01-.25-2.37-.64-4.07-1.17.57-1.04,1-1.9,1.28-2.59.27-.68.71-1.38,1.33-2.09-1.04-.58-2.22-.74-3.52-.47-1.3.28-2.62.46-3.94.56-1.32.1-2.49-.13-3.53-.71-1.04-.58-1.65-2.02-1.84-4.33-3.85,1.63-8.17,3.63-12.96,5.99.2-1.67.26-3,.18-3.99-.08-.99-.02-2.32.19-3.99-2.49,2.19-3.69,3.61-3.64,4.27-2-.17-3.76-.36-5.27-.58-1.51-.21-2.57.04-3.17.75-2.18,1.83-3.15,4.23-2.91,7.19-.01,8.29.4,16.63,1.23,25.02.83,8.39,1.07,16.75.74,25.06-.61,13.31-1.56,26.48-2.85,39.51-1.29,13.04-2.74,26.25-4.33,39.64-.97,8.7-2.04,17.24-3.2,25.61-1.16,8.38-2.39,16.94-3.69,25.66-1,8.37-2.1,16.58-3.28,24.63-1.19,8.05-2.12,16.25-2.78,24.59-.82,10.68-1.48,21.25-1.97,31.73-.5,10.48.49,20.93,2.98,31.35,1.05,4.89,2.34,9.76,3.89,14.61,1.54,4.86,3.78,9.15,6.74,12.9,2.59,3.45,5.89,6.42,9.91,8.92,4.01,2.5,8.07,4.58,12.18,6.25,3.43,1.38,7.05,2.18,10.88,2.38,3.82.19,7.57.47,11.26.85,3.67.37,6.44-.35,8.28-2.15,3.59-4.93,6.38-9.45,8.38-13.59,2.53-5.83,4.89-11.49,7.11-16.98,2.22-5.47,4.59-11.13,7.11-16.97l18.07-35.74c1.16-2.08,2.32-4.16,3.49-6.24,1.16-2.08,2.32-4.16,3.49-6.24,2.6-4.85,5.19-9.86,7.76-15.04,2.58-5.17,5.16-10.18,7.77-15.04,4.92-9,9.86-17.85,14.81-26.53,4.95-8.68,9.88-17.52,14.81-26.54,4.14-6.3,8.14-12.41,11.98-18.35,3.83-5.94,7.83-12.06,11.97-18.36,2.1-2.81,3.94-5.7,5.54-8.64,1.58-2.94,3.43-5.82,5.53-8.64,4.19-5.63,8.39-11.19,12.6-16.66,4.21-5.47,8.41-11.02,12.61-16.66,3.31-4.24,6.54-8.47,9.69-12.7,3.14-4.23,6.37-8.46,9.69-12.7,2.4-3.17,4.65-6.16,6.75-8.99,2.09-2.82,3.86-5.6,5.31-8.38,2.75-2.87,5.37-5.4,7.85-7.59,2.47-2.18,4.78-4.52,6.9-7.01,3.59-4.92,7.79-9.4,12.62-13.43,4.82-4.02,8.32-8.94,10.52-14.76.28-.68,1.23-1.09,2.89-1.22.63-.38,1.36-.6,2.18-.67.82-.06,1.54-.45,2.15-1.17l15.26-14.64c1.54-1.44,2.75-2.95,3.62-4.51.87-1.56,2.07-3.06,3.62-4.51,3.11-2.56,6.24-4.88,9.4-6.96,3.15-2.06,6.28-4.39,9.39-6.96l15.5-11.67c2.83-1.88,6-3.62,9.53-5.23,3.52-1.6,5.93-4.61,7.24-9.03.27-.68.91-1.14,1.88-1.39.98-.24,1.96-.4,2.95-.48.63-.38,1.37-.52,2.2-.42.83.1,1.56-.04,2.2-.42,3.8-2.29,7.5-4.74,11.11-7.35,3.6-2.6,7.47-5.07,11.6-7.38,8.22-4.95,16.84-9.2,25.85-12.73,9-3.52,18.41-6.18,28.22-7.95,4.59-.69,7.83-.53,9.74.48,1.9,1.02,3.2,3.81,3.9,8.39,1.07,5.22,1.73,10.39,1.97,15.51.24,5.13.58,10.48,1.02,16.08.71.61,1.42,1.3,2.15,2.07.72.77,1.63,1.78,2.72,3.01,2.87-5.53,5.11-10.92,6.68-16.19,1.57-5.26,1.81-10.67.71-16.22ZM608.83,306.18c-1.44,2.77-2.03,5.8-1.77,9.09.26,3.3.19,6.62-.21,9.96-.43,3.02-.85,6.04-1.28,9.05-.43,3.02-.84,6.21-1.23,9.55-.2,1.68-.31,3.51-.31,5.5-.02,1.99.53,3.61,1.62,4.84,1.88,2.84,2.33,5.38,1.35,7.6-.99,2.24-1.88,4.55-2.69,6.92-.59,1.04-.82,2.14-.73,3.29.09,1.16,0,2.24-.25,3.25-.2,1.68-.14,3.49.18,5.46.32,1.96.21,3.8-.31,5.5-1.03,3.73-1.48,7.5-1.34,11.29.13,3.81-1.51,7.17-4.92,10.09-.91,1.07-.81,2.39.31,3.95,1.85,2.51,2.39,5.04,1.59,7.58-.79,2.55-1.42,5.17-1.87,7.86-.2,1.68-.26,3.09-.16,4.24.09,1.16-.14,2.42-.7,3.79-.2,1.68-.57,3.27-1.11,4.81-.55,1.54-1.07,3.32-1.57,5.35l-3.24-3.23c.24-5.32.49-10.56.75-15.73.25-5.16.5-10.4.75-15.73.29-4.66.69-9.08,1.19-13.27.49-4.18,1.06-8.62,1.68-13.32.99-8.36,2.07-16.74,3.23-25.12,1.16-8.37,2.23-16.75,3.24-25.12.4-3.34.72-6.6.97-9.78.25-3.17.56-6.42.97-9.78.37-3.67.83-7.35,1.36-11.05.53-3.69.99-7.37,1.36-11.05l1.98-.16c-.15,2.34.36,4.53,1.51,6.6,1.16,2.07,1.03,4.64-.38,7.74Z"/>
    <path class="cls-1" d="M767.44,217.56c-5.32,4.08-10.07,8.93-14.27,14.56-2.7,3.53-5.26,6.97-7.64,10.3-2.4,3.34-4.76,6.93-7.11,10.76-.86,1.74-1.29,3.67-1.28,5.82,0,2.16-.26,4.09-.79,5.78,5-8.02,10.19-15.89,15.54-23.61,5.36-7.71,10.53-15.58,15.55-23.61Z"/>
  </g>
  <path class="cls-1" d="M68.42,574.9l.29.68c1.26,2.23,3.5,3.01,5.73,3.79,5.15,1.65,10.58,2.82,15.63,4.96,2.04.87,4.08,1.94,5.92,3.2,2.62,1.85,4.95,4.18,6.41,7.09,2.72,5.24,2.52,11.75-.2,17.09-2.62,5.24-7.48,9.32-12.92,11.65-5.44,2.33-11.56,2.91-17.38,2.52-9.61-.68-19.13-4.17-26.12-10.78l13.3-12.33c5.05,5.05,12.24,7.96,19.33,7.77,3.88-.1,8.54-1.85,7.86-6.41-.1-.39-.2-.68-.29-.87-1.36-3.01-4.18-4.18-6.9-5.05-4.27-1.45-8.74-2.33-13.01-3.79s-8.45-3.5-11.46-6.9c-3.2-3.4-4.86-8.06-4.86-12.72.1-4.66,1.94-9.32,5.15-12.72,3.4-3.88,8.25-6.21,13.3-7.57,6.21-1.75,12.82-1.85,19.13-.58,6.51,1.26,12.72,4.08,17.96,8.26l-5.53,5.34c-2.43,2.43-5.05,4.86-7.57,7.28-4.56-5.15-12.04-7.57-18.74-5.92-2.81.68-6.02,2.62-5.05,6.02Z"/>
  <path class="cls-1" d="M126.64,555.57h53.12v16.61h-36.61v9.03h28.65v16.51h-28.65v9.03h36.61v16.51h-53.12v-67.68Z"/>
  <path class="cls-1" d="M245.89,555.77h16.51v67.68h-18.06l-26.61-40.39v40.2h-16.51v-67.78h18.16l26.51,40.2v-39.91Z"/>
  <path class="cls-1" d="M287.63,555.57h16.51v67.68h-16.51v-67.68Z"/>
  <path class="cls-1" d="M391.51,589.37c0,19.23-15.53,34.76-34.76,34.76s-34.76-15.54-34.76-34.76,15.63-34.76,34.76-34.76,34.76,15.63,34.76,34.76ZM375,589.37c0-10.1-8.16-18.25-18.25-18.25s-18.26,8.16-18.26,18.25,8.26,18.26,18.26,18.26,18.25-8.16,18.25-18.26Z"/>
  <path class="cls-1" d="M456.48,594.51l11.65,28.94h-18.16l-10.1-25.83h-16.61v25.83h-16.51v-67.87h38.74c11.56,0,21.07,9.42,21.07,20.98,0,7.57-4.08,14.27-10.1,17.96ZM449.98,576.55c0-2.43-2.04-4.47-4.47-4.47h-22.24v9.03h22.24c2.43,0,4.47-2.04,4.47-4.56Z"/>
  <path class="cls-1" d="M567.68,606.85h37.58v16.6h-54.09v-67.87h16.51v51.27Z"/>
  <path class="cls-1" d="M626.3,555.57h16.51v67.68h-16.51v-67.68Z"/>
  <path class="cls-1" d="M686.75,623.45l-26.12-67.97h17.87l16.99,44.47,17.09-44.47h17.87l-26.22,67.97h-17.48Z"/>
  <path class="cls-1" d="M748.43,555.57h16.51v67.68h-16.51v-67.68Z"/>
  <path class="cls-1" d="M832.81,555.77h16.51v67.68h-18.06l-26.61-40.39v40.2h-16.51v-67.78h18.16l26.51,40.2v-39.91Z"/>
  <path class="cls-1" d="M899.52,584.02h30.3v27.09l-2.33,2.43c-6.21,6.41-16.61,10.58-26.61,10.58-19.13,0-34.66-15.54-34.66-34.66s15.54-34.67,34.66-34.67c10.1,0,19.71,4.47,26.32,12.14l-12.53,10.78c-3.5-4.08-8.54-6.41-13.79-6.41-10,0-18.16,8.16-18.16,18.16s8.16,18.06,18.16,18.06c4.27,0,9.03-1.45,12.43-3.59v-3.4h-13.79v-16.51Z"/>
</svg>