<?xml version="1.0" encoding="UTF-8"?>
<svg id="Layer_1" xmlns="http://www.w3.org/2000/svg" viewBox="0 0 1080 493">
  <defs>
    <style>
      .cls-1 {
        fill: #07124a;
      }
    </style>
  </defs>
  <path class="cls-1" d="M109.15,378.96h-26.88c-9.58,0-15.98-2.94-15.98-17.28v-40.9h22.1c8.57,0,12.92,6.19,12.92,18.39v3.02h6.49v-51.94h-6.49v3.04c0,12.2-4.35,18.38-12.92,18.38h-22.1v-39.58c0-11.97,4.65-17.07,15.54-17.07h24.69c26.72,0,33.54,16.55,36.43,34.96h5.5v-41.01H27.25v1.69l7.5,2.74c6.99,2.57,11.51,9.98,11.51,18.91v89.36c0,12.93-4.03,17.28-15.99,17.28h-.19v6.06h119.45v-44.73h-6.13c-1.11,25.66-12.63,38.67-34.26,38.67Z"/>
  <path class="cls-1" d="M295.98,255.02h7.18c9.6,0,15.99,2.94,15.99,17.3v86.38l-73.54-109.72h-40.95v2.95l7.71,3.77c6.98,3.48,11.3,10.69,11.3,18.81v87.18c0,12.93-4.03,17.28-15.99,17.28h-.19v6.06h51.29v-6.06h-8.28c-9.6,0-15.98-2.94-15.98-17.28v-94.59l77.47,117.93h18v-112.7c0-12.93,4.03-17.3,15.98-17.3h.19v-6.05h-50.19v6.05Z"/>
  <path class="cls-1" d="M466.59,378.96c-31.85,0-49.4-23.37-49.4-65.79,0-14.34,3.51-28.42,9.63-38.64,7.73-12.91,19.37-19.73,33.66-19.73,21.95,0,41.4,14.33,46.94,34.3h4.37v-42.54h-5.56c-.14.34-.32.69-.53,1.03-2.08,4.49-6.7,7.49-11.57,7.49-3.45,0-6.1-1.1-8.91-2.25-.43-.18-.86-.35-1.31-.53-8.56-3.14-16.5-5.74-26.27-5.74-30.37,0-62.89,27.72-62.89,69,0,22.29,6.64,40.8,19.21,53.5,11.87,12,28.33,18.35,47.61,18.35,25.05,0,44.56-15.58,52.55-41.8l-3.86-1.29c-8.6,20.8-25.94,34.62-43.68,34.62Z"/>
  <path class="cls-1" d="M679.69,264.57c-12.4-11.44-29.38-18-46.62-18s-34.23,6.56-46.61,18c-14.08,13.01-21.52,31.17-21.52,52.53,0,26.87,11.7,43.29,21.52,52.34,12.4,11.42,29.38,17.98,46.61,17.98s34.23-6.56,46.62-17.98c9.82-9.05,21.52-25.47,21.52-52.34,0-21.36-7.45-39.52-21.52-52.53ZM670.25,360.71c-7.47,13.23-19.12,20.22-33.68,20.22-33.86,0-49.63-41.48-49.63-69.51,0-8.42,1.16-24.6,8.94-38.37,7.48-13.22,19.12-20.21,33.69-20.21,33.85,0,49.63,41.47,49.63,69.5,0,8.42-1.16,24.61-8.95,38.37Z"/>
  <path class="cls-1" d="M875.81,373.94c-10.49,0-13.34-13.79-15.63-24.87-.45-2.25-.9-4.37-1.37-6.32-1.33-5.57-6.54-18.79-26.09-21.26l-19.57-2.48,19.63-1.93c23.69-2.33,38.41-14.2,38.41-31,0-32.9-32.67-37.11-61.14-37.11h-60.71v3.88l7.5,2.75c6.99,2.56,11.5,9.98,11.5,18.9v87.18c0,12.93-4.03,17.28-15.98,17.28h-.19v6.06h53.9v-6.06h-4.78c-12.92,0-12.92-12.73-12.92-18.16v-41.98h16.85c20.69,0,34.9,13.37,38.03,35.78,2.8,21.64,11.25,32.61,25.12,32.61,6.77,0,12.12-1.97,15.88-5.85,4.72-4.89,7.02-12.66,6.84-23.15-1.8,8.44-5.45,15.73-15.29,15.73ZM788.39,312.75v-40.66c0-11.33,4.42-17.07,13.14-17.07h14.41c24.17,0,34.99,14.94,34.99,29.75,0,17.01-14.5,27.99-36.95,27.99h-25.59Z"/>
  <path class="cls-1" d="M1046.62,340.29c-1.11,25.66-12.63,38.67-34.27,38.67h-26.87c-9.6,0-15.98-2.94-15.98-17.28v-40.9h22.09c8.58,0,12.92,6.19,12.92,18.39v3.02h6.49v-51.94h-6.49v3.04c0,12.2-4.34,18.38-12.92,18.38h-22.09v-39.58c0-11.97,4.64-17.07,15.54-17.07h24.69c26.71,0,33.53,16.55,36.43,34.96h5.48v-41.01h-121.19v1.69l7.5,2.74c6.99,2.57,11.5,9.98,11.5,18.91v89.36c0,12.93-4.03,17.28-15.98,17.28h-.19v6.06h119.45v-44.73h-6.13Z"/>
  <path class="cls-1" d="M234.39,441.04h-4.97c.31,1.73.46,3.4.46,5.03v7.58h-12.42v-7.58c0-1.62.15-3.3.46-5.03h-4.97c.31,1.73.46,3.4.46,5.03v17.47c0,1.62-.15,3.3-.46,5.03h4.97c-.31-1.73-.46-3.4-.46-5.03v-7.46h12.42v7.46c0,1.62-.15,3.3-.46,5.03h4.97c-.31-1.73-.46-3.4-.46-5.03v-17.47c0-1.62.15-3.3.46-5.03Z"/>
  <path class="cls-1" d="M265.84,456.04c1.71,0,3.43.11,5.16.32l.88-2.91c-1.68.16-3.4.24-5.16.24h-6.11v-10.21h5.27c1.63,0,3.35.15,5.16.44l-.84-2.87h-14.1c.31,1.73.46,3.4.46,5.03v17.47c0,1.62-.15,3.3-.46,5.03h14.33l.84-2.87c-1.81.29-3.53.44-5.16.44h-5.5v-10.09h5.23Z"/>
  <path class="cls-1" d="M302.34,441.04h-2.98l-6.99,21.1c-.79,2.37-1.75,4.51-2.87,6.42h3.82c.03-.82.18-1.75.46-2.77.18-.67.41-1.42.68-2.25h11.08c.53,1.83.87,3.51,1.01,5.03h5.43c-.84-1.73-1.62-3.64-2.33-5.74l-7.3-21.78ZM295.27,461.1l4.8-14.61,4.72,14.61h-9.51Z"/>
  <path class="cls-1" d="M335.14,466.13v-20.06c0-1.62.2-3.3.61-5.03h-5.12c.31,1.73.46,3.4.46,5.03v17.47c0,1.49-.13,3.16-.38,5.03h14.41l.84-2.87c-1.81.29-3.53.44-5.16.44h-5.66Z"/>
  <path class="cls-1" d="M360.28,441.04l-.92,2.87c1.86-.29,3.63-.44,5.31-.44h2.75v20.06c0,1.65-.22,3.33-.65,5.03h5.35c-.43-1.7-.65-3.38-.65-5.03v-20.06h2.75c1.66,0,3.42.15,5.31.44l-.96-2.87h-18.31Z"/>
  <path class="cls-1" d="M419.45,441.04h-4.97c.31,1.73.46,3.4.46,5.03v7.58h-12.42v-7.58c0-1.62.15-3.3.46-5.03h-4.97c.31,1.73.46,3.4.46,5.03v17.47c0,1.62-.15,3.3-.46,5.03h4.97c-.31-1.73-.46-3.4-.46-5.03v-7.46h12.42v7.46c0,1.62-.15,3.3-.46,5.03h4.97c-.31-1.73-.46-3.4-.46-5.03v-17.47c0-1.62.15-3.3.46-5.03Z"/>
  <path class="cls-1" d="M445.09,448.02c.74-1.78,1.8-3.12,3.17-4.01,1.38-.89,3.01-1.34,4.89-1.34,1.53,0,2.94.27,4.24.82,1.3.55,2.47,1.32,3.52,2.33l-.46-3.79c-2.19-1.06-4.56-1.59-7.11-1.59-2.8,0-5.26.62-7.36,1.85-2.1,1.24-3.71,2.93-4.83,5.08-1.12,2.15-1.68,4.57-1.68,7.26v.24c0,2.71.56,5.15,1.68,7.3,1.12,2.15,2.73,3.86,4.83,5.1,2.1,1.25,4.57,1.88,7.39,1.88,2.57,0,4.93-.53,7.07-1.6l.46-3.75c-2.24,2.07-4.82,3.11-7.72,3.11-1.94,0-3.59-.46-4.97-1.38-1.37-.92-2.43-2.27-3.15-4.07-.73-1.8-1.09-4-1.09-6.6v-.24c0-2.63.37-4.84,1.11-6.62Z"/>
  <path class="cls-1" d="M490.88,441.04h-2.98l-6.99,21.1c-.79,2.37-1.75,4.51-2.87,6.42h3.82c.03-.82.18-1.75.46-2.77.18-.67.41-1.42.68-2.25h11.08c.53,1.83.87,3.51,1.01,5.03h5.43c-.84-1.73-1.62-3.64-2.33-5.74l-7.3-21.78ZM483.8,461.1l4.79-14.61,4.72,14.61h-9.51Z"/>
  <path class="cls-1" d="M534.98,453.6c1.73-1.41,2.6-3.19,2.6-5.34v-.12c0-1.38-.33-2.6-.99-3.65s-1.77-1.89-3.33-2.51c-1.55-.62-3.62-.94-6.19-.94h-7.91c.31,1.73.46,3.4.46,5.03v17.47c0,1.62-.15,3.3-.46,5.03h5.01c-.31-1.73-.46-3.4-.46-5.03v-7.82h1.57l.26.36c3.57,4.87,5.8,7.95,6.69,9.25.89,1.3,1.52,2.38,1.87,3.23h5.81l-9.96-13.08c2.19-.31,3.87-.93,5.03-1.87ZM523.71,453.8v-10.57h2.56c2.04,0,3.59.23,4.66.68,1.07.45,1.78,1.05,2.14,1.79.36.74.53,1.66.53,2.75v.16c0,1.12-.19,2.04-.55,2.77-.37.73-1.12,1.32-2.25,1.76-1.13.44-2.79.66-4.95.66h-2.14Z"/>
  <path class="cls-1" d="M568.38,456.04c1.71,0,3.43.11,5.16.32l.88-2.91c-1.68.16-3.4.24-5.16.24h-6.12v-10.21h5.27c1.63,0,3.35.15,5.16.44l-.84-2.87h-14.1c.31,1.73.46,3.4.46,5.03v17.47c0,1.62-.15,3.3-.46,5.03h14.33l.84-2.87c-1.81.29-3.53.44-5.16.44h-5.5v-10.09h5.24Z"/>
  <path class="cls-1" d="M628.87,454.48c-.85-.61-1.97-1.29-3.34-2.03-1.1-.58-1.96-1.1-2.6-1.54-.64-.44-1.17-.97-1.59-1.6-.42-.62-.63-1.38-.63-2.25,0-1.28.43-2.29,1.28-3.03.85-.74,1.92-1.12,3.19-1.12.89,0,1.77.21,2.64.62.87.41,1.78,1.03,2.75,1.85l-.34-3.59c-.59-.29-1.35-.57-2.27-.84-.93-.27-1.93-.4-3-.4-2.32,0-4.19.69-5.62,2.07-1.43,1.38-2.14,3.22-2.14,5.51,0,1.41.27,2.6.82,3.57.55.97,1.22,1.75,2.01,2.33.79.58,1.83,1.24,3.13,1.95,1.15.64,2.05,1.19,2.71,1.66.66.47,1.22,1.06,1.66,1.77.45.72.67,1.58.67,2.59,0,1.44-.45,2.55-1.34,3.35-.89.8-2.04,1.2-3.44,1.2-2.17,0-4.27-1.06-6.31-3.19l.31,3.95c.69.48,1.56.89,2.62,1.24,1.06.35,2.22.52,3.5.52,1.73,0,3.24-.35,4.51-1.04,1.27-.69,2.24-1.66,2.9-2.89s.99-2.65.99-4.25-.3-2.88-.9-3.93c-.6-1.05-1.33-1.88-2.18-2.49Z"/>
  <path class="cls-1" d="M661.91,456.04c1.71,0,3.43.11,5.16.32l.88-2.91c-1.68.16-3.4.24-5.16.24h-6.12v-10.21h5.27c1.63,0,3.35.15,5.16.44l-.84-2.87h-14.1c.31,1.73.46,3.4.46,5.03v17.47c0,1.62-.15,3.3-.46,5.03h14.33l.84-2.87c-1.81.29-3.53.44-5.16.44h-5.5v-10.09h5.24Z"/>
  <path class="cls-1" d="M704.44,453.6c1.73-1.41,2.6-3.19,2.6-5.34v-.12c0-1.38-.33-2.6-.99-3.65s-1.77-1.89-3.33-2.51c-1.55-.62-3.62-.94-6.19-.94h-7.91c.31,1.73.46,3.4.46,5.03v17.47c0,1.62-.15,3.3-.46,5.03h5.01c-.31-1.73-.46-3.4-.46-5.03v-7.82h1.57l.26.36c3.57,4.87,5.8,7.95,6.69,9.25.89,1.3,1.52,2.38,1.87,3.23h5.81l-9.96-13.08c2.19-.31,3.87-.93,5.03-1.87ZM693.17,453.8v-10.57h2.56c2.04,0,3.59.23,4.66.68,1.07.45,1.78,1.05,2.14,1.79.36.74.53,1.66.53,2.75v.16c0,1.12-.19,2.04-.55,2.77-.37.73-1.12,1.32-2.25,1.76-1.13.44-2.78.66-4.95.66h-2.14Z"/>
  <path class="cls-1" d="M741.51,447.46l-5.14,15.65-5.14-15.93c-.74-2.34-1.19-4.39-1.34-6.14h-5.43c1.07,2.42,1.9,4.49,2.48,6.22l7.26,21.3h2.83l7.03-21.1c.79-2.37,1.74-4.51,2.87-6.42h-3.98c-.1,1.54-.59,3.68-1.45,6.42Z"/>
  <path class="cls-1" d="M770.56,441.04h-4.97c.31,1.73.46,3.4.46,5.03v17.47c0,1.62-.15,3.3-.46,5.03h4.97c-.31-1.73-.46-3.4-.46-5.03v-17.47c0-1.62.15-3.3.46-5.03Z"/>
  <path class="cls-1" d="M796.21,448.02c.74-1.78,1.8-3.12,3.17-4.01,1.38-.89,3.01-1.34,4.89-1.34,1.53,0,2.94.27,4.24.82,1.3.55,2.47,1.32,3.52,2.33l-.46-3.79c-2.19-1.06-4.56-1.59-7.11-1.59-2.8,0-5.26.62-7.36,1.85-2.1,1.24-3.71,2.93-4.83,5.08-1.12,2.15-1.68,4.57-1.68,7.26v.24c0,2.71.56,5.15,1.68,7.3,1.12,2.15,2.73,3.86,4.83,5.1,2.1,1.25,4.57,1.88,7.39,1.88,2.57,0,4.93-.53,7.07-1.6l.46-3.75c-2.24,2.07-4.82,3.11-7.72,3.11-1.94,0-3.59-.46-4.97-1.38-1.38-.92-2.43-2.27-3.15-4.07-.73-1.8-1.09-4-1.09-6.6v-.24c0-2.63.37-4.84,1.11-6.62Z"/>
  <path class="cls-1" d="M841.95,456.04c1.71,0,3.43.11,5.16.32l.88-2.91c-1.68.16-3.4.24-5.16.24h-6.12v-10.21h5.27c1.63,0,3.35.15,5.16.44l-.84-2.87h-14.1c.31,1.73.46,3.4.46,5.03v17.47c0,1.62-.15,3.3-.46,5.03h14.33l.84-2.87c-1.81.29-3.53.44-5.16.44h-5.5v-10.09h5.24Z"/>
  <path class="cls-1" d="M879.01,454.48c-.85-.61-1.97-1.29-3.34-2.03-1.1-.58-1.96-1.1-2.6-1.54-.64-.44-1.17-.97-1.59-1.6-.42-.62-.63-1.38-.63-2.25,0-1.28.43-2.29,1.28-3.03.85-.74,1.92-1.12,3.19-1.12.89,0,1.77.21,2.64.62.87.41,1.78,1.03,2.75,1.85l-.34-3.59c-.59-.29-1.35-.57-2.27-.84-.93-.27-1.93-.4-3-.4-2.32,0-4.19.69-5.62,2.07-1.43,1.38-2.14,3.22-2.14,5.51,0,1.41.27,2.6.82,3.57.55.97,1.22,1.75,2.01,2.33.79.58,1.83,1.24,3.13,1.95,1.15.64,2.05,1.19,2.71,1.66.66.47,1.22,1.06,1.66,1.77.45.72.67,1.58.67,2.59,0,1.44-.45,2.55-1.34,3.35-.89.8-2.04,1.2-3.44,1.2-2.17,0-4.27-1.06-6.31-3.19l.31,3.95c.69.48,1.56.89,2.62,1.24,1.06.35,2.22.52,3.5.52,1.73,0,3.24-.35,4.51-1.04,1.27-.69,2.24-1.66,2.9-2.89s.99-2.65.99-4.25-.3-2.88-.9-3.93c-.6-1.05-1.33-1.88-2.18-2.49Z"/>
  <path class="cls-1" d="M621.78,101.05h0V23.84h-154.81v77.21h0v77.61h154.81v-77.61ZM617.9,101.05h0v73.73h-147.06v-73.73h0V27.72h147.06v73.33Z"/>
  <path class="cls-1" d="M502.45,61.95v39.1h0v39.11c0,11.32-3.53,15.13-13.98,15.13h-.16v5.3h104.54v-39.15h-5.36c-.98,22.47-11.06,33.84-29.99,33.84h-23.52c-8.4,0-13.98-2.57-13.98-15.13v-35.78h19.34c7.51,0,11.31,5.41,11.31,16.09v2.65h5.68v-22.06h0v-23.39h-5.68v2.65c0,10.68-3.8,16.09-11.31,16.09h-19.34v-34.64c0-10.47,4.06-14.94,13.6-14.94h21.62c23.38,0,29.34,14.5,31.88,30.59h4.8v-35.89h-106.07v1.48l6.57,2.4c6.12,2.24,10.07,8.74,10.07,16.54Z"/>
</svg>