<?xml version="1.0" encoding="UTF-8"?>
<svg id="Layer_1" xmlns="http://www.w3.org/2000/svg" viewBox="0 0 1080 623">
  <defs>
    <style>
      .cls-1 {
        fill: #07124a;
      }
    </style>
  </defs>
  <g>
    <g>
      <g>
        <path class="cls-1" d="M54.22,246.87h48.14s-3.17,3.48-5.7,14.25l-28.66,113.85s-2.37,11.24-1.58,18.69H17.32s4.75-6.49,6.65-13.94l29.77-119.08s1.74-6.02.48-13.78Z"/>
        <path class="cls-1" d="M98.87,393.65h-18.21s3.8-8.08,5.54-13.78l21.22-85.51s.79-5.07,0-9.34h39.9l33.73,85.82,18.37-71.73s2.38-7.76,1.11-14.09h18.53s-2.38,4.12-4.12,9.82l-25.02,98.81h-36.1l-34.2-88.36-19,73.47s-1.74,9.03-1.74,14.89Z"/>
        <path class="cls-1" d="M223.33,300.86l6.49-15.83h93.9l-1.42,16.94s-3.48-3.17-9.18-3.17h-22.8l-22.17,85.35s-.32,6.97,1.58,9.5h-38.16s3.8-6.02,5.07-10.29l20.9-84.56h-24.23s-5.7.16-9.98,2.06Z"/>
        <path class="cls-1" d="M661.31,300.86l6.49-15.83h93.9l-1.43,16.94s-3.48-3.17-9.18-3.17h-22.8l-22.17,85.35s-.32,6.97,1.58,9.5h-38.16s3.8-6.02,5.07-10.29l20.9-84.56h-24.23s-5.7.16-9.98,2.06Z"/>
        <path class="cls-1" d="M849.43,300.86l6.49-15.83h93.9l-1.43,16.94s-3.48-3.17-9.18-3.17h-22.8l-22.17,85.35s-.32,6.97,1.58,9.5h-38.16s3.8-6.02,5.07-10.29l20.9-84.56h-24.23s-5.7.16-9.98,2.06Z"/>
        <path class="cls-1" d="M332.12,285.03h89.47l-1.11,16.31s-4.28-2.38-9.03-2.38h-48.45l-8.39,31.99h45.45s5.07-.16,7.6-1.74l-4.91,19.16s-4.91-3.01-11.4-3.17h-39.9l-8.87,33.89h50.99s4.75-.63,7.13-2.06l-6.02,16.63h-89.78s3.01-4.28,5.38-11.56l21.54-86.93s.63-6.02.32-10.13Z"/>
        <path class="cls-1" d="M958.16,285.03h89.47l-1.11,16.31s-4.28-2.38-9.03-2.38h-48.45l-8.39,31.99h45.45s5.07-.16,7.6-1.74l-4.91,19.16s-4.91-3.01-11.4-3.17h-39.9l-8.87,33.89h50.99s4.75-.63,7.13-2.06l-6.02,16.63h-89.78s3.01-4.28,5.38-11.56l21.53-86.93s.63-6.02.32-10.13Z"/>
        <path class="cls-1" d="M523.4,285.03h-88.51s.63,4.43-.79,10.61l-21.85,88.51s-2.53,7.29-5.7,8.87h38s-.95-3.8,0-9.5l9.18-38,23.75-.63,7.28,48.77h36.42s-2.69-2.69-4.59-8.87c-1.9-6.17-5.38-38.8-5.38-38.8,0,0,15.52-1.74,19.95-15.04l6.81-27.55s4.43-19.16-14.57-18.37ZM507.09,303.4l-5.86,22.96c-1.74,5.22-5.54,5.07-5.54,5.07h-38.48l8.71-32.14h36.58c5.54.48,4.59,4.12,4.59,4.12Z"/>
        <path class="cls-1" d="M577.08,285h76.8l-1.11,16.49s-5.7-2.06-11.4-2.85h-50.67s-4.91.32-6.02,4.59l-3.64,13.14s-1.11,4.75,3.8,5.38h43.23s17.73.13,15.68,17.57l-8.23,35.32s-4.59,17.74-24.7,19h-76.01l1.27-17.1s4.91,3.17,10.77,3.01h51.46s3.48.32,5.38-4.28l4.75-16.94s2.53-7.13-4.75-6.33h-43.7s-17.58-1.58-14.09-17.42l10.13-36.74s4.75-12.85,21.06-12.85Z"/>
        <path class="cls-1" d="M847.53,393.65c-1.74-1.43-3.8-8.71-3.8-8.71l-21.06-99.94h-35l2.85,6.67s-52.89,76.01-57.96,82.82c-5.07,6.81-14.57,19.16-14.57,19.16h20.43c-.16-3.01,3.01-9.66,3.01-9.66l13.93-21.69h49.72l4.43,23.28c0,3.32-1.58,8.08-1.58,8.08h39.59ZM765.83,348.37l28.66-40.69,7.6,40.69h-36.26Z"/>
      </g>
      <g>
        <g>
          <path class="cls-1" d="M178.6,418.04s-8.55,7.84-11.99,10.57c-3.44,2.73-4.39,5.11,2.02,2.61,6.41-2.49,20.19-10.21,20.19-10.21,0,0-3.21,24.34-5.82,40.38-2.61,16.03-3.21,29.45-2.61,32.18.59,2.73,5.7,7.48,8.43,8.79,2.73,1.31,6.29-.95,8.43-4.16,2.14-3.21,27.43-39.55,40.14-57,12.71-17.46,24.82-33.02,25.42-33.37.59-.36-1.54,9.14-1.54,9.14,0,0,5.11-4.99,8.43-13.42,3.32-8.43,3.68-15.08-.95-16.63-4.63-1.54-8.31.24-12,7.72,0,0-17.69,29.81-27.91,45.72-10.21,15.91-36.7,49.52-36.7,49.52,0,0-.83.12-.48-5.58.36-5.7,5.7-54.75,7.13-63.06,1.43-8.31,1.9-11.28-.48-13.78-2.38-2.49-5.58-3.56-7.01-3.09-1.42.47-9.09,10.37-12.71,13.66Z"/>
          <path class="cls-1" d="M282.87,408.54s3.72-4.99,4.35-6.25c.63-1.27-.71-3.48-2.77-4.99-2.06-1.5-4.28.56-6.73,3.88-2.45,3.33-4.75,8.95-3.48,10.77,1.27,1.82,3.8,2.69,4.67,1.74s3.96-5.15,3.96-5.15Z"/>
          <path class="cls-1" d="M352.26,391.26s3.72-4.99,4.35-6.26c.63-1.27-.71-3.48-2.77-4.99-2.06-1.5-4.27.55-6.73,3.88-2.45,3.32-4.75,8.95-3.48,10.77,1.27,1.82,3.8,2.69,4.67,1.74.87-.95,3.96-5.15,3.96-5.15Z"/>
        </g>
        <path class="cls-1" d="M484.41,393.69c-4.63,2.02-14.25,7.24-14.25,7.24,0,0-.24-1.31-3.09-1.19-2.85.12-12.59,1.31-15.08,0-2.49-1.31-.59-4.16,3.09-7.13,3.68-2.97,8.91-6.18,8.91-6.18.24,1.9,1.31,3.92,1.31,3.92,0,0,.48-2.61,1.9-4.51,1.43-1.9,6.53-5.11,8.79-6.77,2.26-1.66,1.54-3.68-.95-6.06-2.49-2.38-9.62,2.61-9.62,2.61-8.91,4.75-20.07,15.32-23.87,19.72-3.8,4.39-1.07,9.62-1.07,9.62-10.81,4.39-16.63,10.45-16.63,10.45,2.97-10.57,9.86-23.4,10.21-26.6.36-3.21-3.8-5.58-5.46-5.46-1.66.12-4.16,2.85-12.71,13.89-8.55,11.04-16.86,23.51-16.86,23.51,2.61-5.94,8.91-19.36,9.62-20.43.71-1.07,1.66-3.09,1.19-6.06-.48-2.97-4.51-4.99-5.23-4.39-.71.59-5.34,8.79-9.38,13.3-4.04,4.51-7.24,7.01-7.24,7.01,2.85,0,7.96-2.73,7.96-2.73l-3.68,9.03c-6.65,2.97-15.08,8.55-15.08,8.55.83-2.61,4.87-14.73,5.7-19.71.83-4.99-3.33-7.72-6.65-8.67-3.32-.95-8.43,3.8-8.43,3.8-9.26,7.01-20.31,27.67-20.31,27.67-10.45,3.68-18.53,12-18.53,12,1.9-6.53,7.24-18.65,8.79-21.5,1.54-2.85,2.49-4.75,2.02-7.24-.48-2.49-3.21-5.58-4.63-4.87s-2.85,3.68-7.72,10.45c-4.87,6.77-9.62,10.69-9.62,10.69,2.37-.12,7.48-1.78,7.48-1.78l-3.8,8.37c-3.56,1.48-13.42,6.95-13.42,6.95,0,0,0-.59-1.07-1.07-1.07-.48-9.98-.12-13.78.47-3.8.59-6.89.24-3.8-3.92,3.09-4.16,12.11-10.09,12.11-10.09l1.78,4.39s.36-1.43,2.14-4.16c1.78-2.73,6.18-5.34,8.67-7.84,2.49-2.49-1.31-6.41-3.21-6.29s-9.14,4.27-9.14,4.27c-13.42,6.65-23.04,19-24.46,22.61-1.43,3.61.71,6.02.71,6.02-7.13,2.97-17.7,10.21-17.7,10.21l2.14-5.46c2.14-5.46,7.96-17.34,8.55-19.95.59-2.61-3.56-6.53-4.63-7.01-1.07-.47-3.09,3.68-6.65,9.14-3.56,5.46-10.33,12.05-10.33,12.05,2.73-.66,6.29-2.43,6.29-2.43,0,0-7.72,24.46-9.14,29.45-1.42,4.99.48,6.41,2.85,8.79,2.38,2.38,5.11,1.43,5.34,0,.24-1.42,3.09-13.89,10.81-21.61,7.72-7.72,16.74-12.11,16.74-12.11,2.14-.36,6.41-1.31,11.4-2.09,4.99-.78,4.39,0,4.39,0-5.11,3.14-21.73,18.24-25.87,22.16-4.14,3.92-3.58,6.29-2.16,8.07,1.43,1.78,3.09,4.16,6.18,1.07,3.09-3.09,9.26-8.79,19.48-18.88,10.21-10.09,24.11-17.58,24.11-17.58-1.07,2.49-4.75,16.86-4.39,20.19.36,3.32,7.36,4.87,8.19,4.16.83-.71,1.78-6.53,7.01-16.27,5.23-9.74,14.25-14.49,14.37-14.01.12.48-2.61,8.79-2.02,14.01.59,5.22,9.03,9.5,10.57,9.5s3.33-2.38,6.89-6.41c3.56-4.04,13.54-17.1,13.54-17.1,8.43-7.6,16.39-11.99,16.39-11.99,0,0-4.28,13.66-5.22,18.65-.95,4.99,5.7,7.48,7.01,6.53s1.9-6.06,6.53-15.44c4.63-9.38,13.54-22.68,16.63-25.42,3.09-2.73,3.56-1.54,3.56-1.54-4.04,7.48-8.31,24.82-7.96,30.76s7.01,6.65,8.31,4.51c1.31-2.14,2.97-13.42,9.03-20.78,6.06-7.36,16.86-12.71,16.86-12.71,8.31-2.26,15.56-2.14,15.56-2.14-3.8,2.85-22.09,17.69-26.13,22.68-4.04,4.99-3.56,7.01-.95,9.38,2.61,2.38,4.04,1.19,4.04,1.19,0,0,6.77-7.6,20.43-20.43,13.66-12.83,26.01-19,28.5-20.66,2.49-1.66,2.49-4.39-2.14-2.38ZM355.08,444.57c-2.73,1.24-4.39-2.55.59-13,4.99-10.45,14.49-20.54,16.98-22.68,2.49-2.14,6.29-2.02,4.04,4.04-1.02,2.74-1.43,7.01-7.96,17.34-4.97,7.86-12.16,13.62-13.66,14.3Z"/>
      </g>
      <g>
        <path class="cls-1" d="M577.71,234.74c-.62.9-.91,1.39-1.52,2.59l-14.75,28.47h-11.95l.48-21.5-11.33,21.5h-11.9l.53-27.17c.05-.4.05-.85.05-1.29,0-.65-.05-1.39-.19-2.19-.19-1.29-.29-1.54-.71-2.54h13.99c-.86,1.54-1.19,2.89-1.24,5.08l-.43,16.72,11.42-21.8h11.85l-.38,21.45,9.14-17.32c.48-.9.81-2.19.81-3.04v-.65c0-.1,0-.25-.05-.45h7.8c-.81,1-1.09,1.39-1.62,2.14Z"/>
        <path class="cls-1" d="M614.99,234.04c-.52.99-1,2.29-1.48,4.23l-5.71,23.14c-.05.25-.09.6-.14,1-.09.7-.14,1.24-.14,1.59,0,.7.05,1,.29,1.79h-14.23c.48-.75.67-1.04.86-1.39.57-1.05,1-2.34,1.48-4.28l2.24-8.91h-8.57l-2.57,10.2c-.05.25-.1.6-.14,1-.09.7-.14,1.19-.14,1.59,0,.7.05,1,.33,1.79h-14.23c.48-.75.62-1.04.86-1.39.52-1.05.95-2.34,1.43-4.28l5.76-23.14c.05-.2.1-.55.14-.99.09-.7.14-1.19.14-1.59,0-.65-.05-1-.33-1.79h14.23c-.47.8-.67,1.09-.86,1.44-.52.99-.95,2.29-1.43,4.23l-1.86,7.47h8.57l2.14-8.76c.05-.2.14-.55.19-.99.1-.65.14-1.19.14-1.59,0-.65-.05-1-.33-1.79h14.23c-.48.8-.67,1.09-.86,1.44Z"/>
        <path class="cls-1" d="M654.21,242.25l-4.05,16.32c-.71,2.84-1.38,4.08-2.81,5.33-1.62,1.34-3.67,1.89-7.09,1.89h-16.23c-2.52,0-3.43-.1-4.43-.45-2.19-.8-3.76-3.23-3.76-6.02,0-.7.05-1.29.24-1.89l.38-1.24,4-16.32c.76-3.09,1.86-4.78,3.66-5.82,1.71-1,3.76-1.44,6.71-1.44h15.47c3.81,0,5.42.6,6.9,2.44.9,1.2,1.43,2.74,1.43,4.28,0,.85-.14,1.74-.43,2.94ZM640.27,238.07h-4.43c-2.29,0-2.81.5-3.47,3.19l-4,16.03-.19.85c-.1.4-.1.55-.1.7,0,1.1.72,1.49,2.72,1.49h4.57c1.29,0,1.62-.05,1.95-.4.38-.4.48-.65.95-2.49l3.95-16.08.24-.9c.09-.4.14-.75.14-.95,0-1-.71-1.44-2.33-1.44Z"/>
        <path class="cls-1" d="M683.68,265.79h-29.03c.47-.75.67-1.04.86-1.39.52-1.05.95-2.34,1.43-4.28l5.76-23.14c.05-.2.09-.55.14-.99.09-.7.14-1.19.14-1.59,0-.65-.05-1-.33-1.79h14.23c-.48.8-.67,1.09-.86,1.44-.52.99-.95,2.29-1.43,4.23l-5.47,22.05h7.95c3.24,0,5.09-.05,6.52-.2.81-.1,1.33-.2,2.48-.6l-2.38,6.27Z"/>
        <path class="cls-1" d="M722.99,238.92c-.81-.45-1.14-.6-1.66-.7-.52-.05-1.43-.15-2.14-.15h-11.66l-2,8.11h11.8c1.1,0,2.09-.15,3.14-.5l-1.62,6.67c-1.05-.55-1.76-.7-3.76-.7h-10.95l-2.14,8.66h12.47c1.33,0,2.14-.15,3.38-.75l-2.33,6.22h-27.99c.48-.75.67-1.04.86-1.39.52-1.05.95-2.34,1.43-4.28l5.76-23.14c.05-.2.1-.55.14-.99.1-.7.14-1.19.14-1.59,0-.65-.05-1-.33-1.79h28.18l-.71,6.32Z"/>
        <path class="cls-1" d="M756.87,239.47c-.76-.6-1.19-.8-1.81-1-.81-.25-1.95-.4-3.09-.4h-11.14c-1.71,0-2.28.3-2.62,1.49l-.28,1.09c-.14.55-.24.9-.24,1.14,0,.9.57,1.24,1.9,1.24h9.66c2.19,0,3.09.35,4.05,1.49.76.95,1.05,1.69,1.05,2.94,0,.9-.05,1.09-.43,2.59l-2.09,8.46c-.29,1.19-.86,2.94-1.14,3.58-.38.8-1.05,1.54-1.9,2.19-1.52,1.14-2.86,1.49-5.95,1.49h-22.61l.91-6.72c.76.5,1.09.65,1.66.85.67.25,1.29.4,1.9.4h13.37c.76,0,1.19-.3,1.47-1,.19-.35.33-.75.43-1.14.14-.8.24-1.15.24-1.44,0-.8-.57-1.2-1.81-1.2h-8.95c-3.95,0-5.95-1.54-5.95-4.53,0-1,.09-1.79.62-3.88l1.9-7.66.33-1.24c.43-1.54,1.57-3.14,3.09-4.18.71-.45,1.38-.75,2.05-.95.95-.25,2.57-.5,3.76-.5h22.32l-.72,6.87Z"/>
        <path class="cls-1" d="M784.71,265.79c.57-1.14.76-1.74.76-2.59,0-.65-.14-1.94-.33-2.94l-.67-3.43h-14.9l-3.62,5.53c-.71,1.04-1.05,1.89-1.05,2.59,0,.2.05.45.09.85h-8.52c1-.9,1.38-1.24,1.95-1.99.24-.25.57-.7,1.05-1.29.48-.6.81-1.09,1-1.39l17.18-26.63c-.91-1.04-1.29-1.34-2.62-1.89h16.8l5.57,27.72c.24,1.14.62,2.59.91,3.38.28.8.57,1.24,1.33,2.09h-14.94ZM781,238.97l-8.14,12.69h10.57l-2.43-12.69Z"/>
        <path class="cls-1" d="M830,265.79h-29.03c.48-.75.67-1.04.86-1.39.52-1.05.95-2.34,1.43-4.28l5.76-23.14c.05-.2.1-.55.14-.99.09-.7.14-1.19.14-1.59,0-.65-.05-1-.33-1.79h14.23c-.47.8-.67,1.09-.86,1.44-.52.99-.95,2.29-1.43,4.23l-5.47,22.05h7.95c3.24,0,5.09-.05,6.52-.2.81-.1,1.33-.2,2.48-.6l-2.38,6.27Z"/>
        <path class="cls-1" d="M867.84,238.92c-.81-.45-1.14-.6-1.66-.7-.52-.05-1.43-.15-2.14-.15h-11.66l-2,8.11h11.81c1.09,0,2.09-.15,3.14-.5l-1.62,6.67c-1.05-.55-1.76-.7-3.76-.7h-10.95l-2.14,8.66h12.47c1.33,0,2.14-.15,3.38-.75l-2.33,6.22h-27.99c.48-.75.67-1.04.86-1.39.52-1.05.95-2.34,1.43-4.28l5.76-23.14c.05-.2.09-.55.14-.99.09-.7.14-1.19.14-1.59,0-.65-.05-1-.33-1.79h28.18l-.71,6.32Z"/>
        <path class="cls-1" d="M921.59,239.07c-.71-.55-1-.65-1.95-.8-.9-.1-1.33-.2-2.95-.2h-10.71l-1.95,7.86h10.76l1.43-.05c.86-.05,1.38-.05,1.52-.1.71-.05,1.24-.15,2.38-.55l-1.71,6.82c-1.52-.6-1.91-.65-3.95-.65h-11.8l-2.47,10c-.05.25-.09.6-.14,1-.1.7-.14,1.24-.14,1.64,0,.65.05.95.34,1.74h-14.23c.48-.75.66-1.04.86-1.39.53-1.05.95-2.34,1.43-4.28l5.76-23.14c.05-.2.1-.55.14-.99.09-.7.14-1.19.14-1.59,0-.65-.05-1-.33-1.79h28.32l-.71,6.47Z"/>
        <path class="cls-1" d="M953.63,238.92c-.81-.45-1.15-.6-1.67-.7-.53-.05-1.43-.15-2.14-.15h-11.66l-2,8.11h11.8c1.1,0,2.1-.15,3.14-.5l-1.62,6.67c-1.05-.55-1.76-.7-3.76-.7h-10.94l-2.14,8.66h12.47c1.33,0,2.14-.15,3.38-.75l-2.33,6.22h-27.99c.47-.75.67-1.04.86-1.39.52-1.05.95-2.34,1.43-4.28l5.76-23.14c.05-.2.09-.55.14-.99.1-.7.14-1.19.14-1.59,0-.65-.05-1-.33-1.79h28.18l-.71,6.32Z"/>
        <path class="cls-1" d="M995.3,234.04c-.53.99-1,2.29-1.48,4.23l-6.81,27.52h-13.42l-8.23-25.08-5.09,20.7c-.05.25-.14.6-.19,1-.09.7-.14,1.24-.14,1.59,0,.7.09,1,.33,1.79h-7.23c.47-.75.67-1.04.86-1.39.52-1.05.95-2.34,1.43-4.28l5.76-23.14c.05-.2.09-.55.14-.99.1-.7.14-1.19.14-1.59,0-.65-.05-1-.33-1.79h14.23l8.42,25.58,5.24-21.2c.05-.2.14-.55.19-.99.09-.7.14-1.19.14-1.59,0-.65-.09-1-.33-1.79h7.24c-.48.8-.67,1.09-.86,1.44Z"/>
        <path class="cls-1" d="M1028.37,239.07c-1-.45-1.33-.6-1.81-.75-.62-.15-1.38-.25-2.47-.25h-8.43c-1.52,0-1.95.05-2.38.25-.67.25-1.1.95-1.43,2.29l-4.14,16.67c-.1.35-.14.6-.19.7-.05.3-.09.55-.09.8,0,1,.81,1.54,2.14,1.54h9.04c.86,0,1.71-.1,2.62-.3,1-.2,1.33-.35,2.24-.85l-2.57,6.62h-16.33l-1.57-.05c-3.76-.1-4.38-.2-5.86-1.34-1.24-.95-2.09-2.79-2.09-4.53,0-.75.09-1.19.52-2.99l4.33-17.47c.38-1.59,1-2.94,1.76-3.83.52-.7,1.24-1.24,2.09-1.74,1.71-.95,2.81-1.24,5.9-1.24h19.37l-.67,6.47Z"/>
        <path class="cls-1" d="M1061.96,238.92c-.81-.45-1.14-.6-1.67-.7-.52-.05-1.43-.15-2.14-.15h-11.66l-2,8.11h11.8c1.09,0,2.09-.15,3.14-.5l-1.62,6.67c-1.05-.55-1.76-.7-3.76-.7h-10.94l-2.14,8.66h12.47c1.33,0,2.14-.15,3.38-.75l-2.33,6.22h-27.99c.48-.75.66-1.04.86-1.39.52-1.05.95-2.34,1.43-4.28l5.76-23.14c.05-.2.09-.55.14-.99.09-.7.14-1.19.14-1.59,0-.65-.05-1-.33-1.79h28.18l-.71,6.32Z"/>
      </g>
    </g>
    <g>
      <path class="cls-1" d="M199.58,201.1s-22.64,10.13-48.14,15.52c-25.49,5.38-47.03.63-47.03.63,0,0,33.41-3.48,60.17-12.98,26.76-9.5,39.59-27.71,43.39-36.58,0,0-13.62,6.33-25.02,13.14-11.4,6.81-24.38,12.86-38.48,12.61,0,0,20.59-8.65,47.82-33.51,27.24-24.86,56.53-63.02,88.36-70.15,0,0-27.71,18.68-45.76,49.72-18.05,31.04-17.42,66.03-17.42,66.03,0,0,4.75,5.07,9.5,6.97,4.75,1.9,8.08,4.75,9.34,9.5,0,0-8.39-7.28-19-6.49-10.61.79-22.01,6.97-24.78,19.32-2.77,12.35,6.57,23.12,25.42,23.44,18.84.32,26.76-16.15,29.93-28.5,3.17-12.35,8.23-43.07,15.68-59.06,7.44-15.99,18.68-19.95,25.97-19.63,0,0-7.44-22.96,11.08-32.78,18.53-9.82,33.57-.16,37.21,3.17,0,0-2.38,14.73,9.98,26.29,12.35,11.56,27.71,17.42,27.71,17.42,0,0-26.76-8.23-38-14.73,0,0-1.9.79-.79,1.9,1.11,1.11,12.98,8.23,19.32,11.24,0,0-7.44.79-15.84-2.85-8.39-3.64-22.96-12.51-27.08-13.93,0,0,11.56.48,15.83-5.7,4.27-6.18-.95-18.53-13.62-18.84-12.67-.32-22.49,19.79-12.19,35.94s34.52,19.48,45.92,22.8c11.4,3.33,28.98,11.4,36.26,20.27,7.28,8.87,9.5,15.68,9.5,15.68,0,0,11.56-4.12,15.99-7.6,0,0-.48,6.97-5.7,10.13-5.22,3.17-15.2,2.69-15.2,2.69,0,0-5.7-13.14-22.17-19.95-16.47-6.81-40.06-11.4-52.89-13.93-12.83-2.53-30.09-11.24-33.41-18.53,0,0-10.61,8.08-13.62,28.98-3.01,20.9-3.33,64.76-3.33,64.76,0,0-1.58-10.93-6.89-15.68,0,0-3.56,19.95-24.46,22.8-20.9,2.85-46.55-5.38-83.29.95,0,0,9.82-9.66,22.8-16.63,0,0,1.58-5.06-4.43-8.07-6.02-3.01-13.3-.95-20.43-1.74-7.13-.79-10.29-4.28-10.29-4.28,0,0,8.55-2.22,16.86-5.7,8.31-3.48,16.7-6.02,16.7-6.02,0,0-.16-7.13,6.65-11.88,6.81-4.75,20.9-9.5,21.85-16.15Z"/>
      <path class="cls-1" d="M283.82,68.09s-29.14.79-62.55,27.71c-33.41,26.92-49.4,46.71-76.16,62.07-26.76,15.36-57,10.61-57,10.61,0,0,33.41-2.22,43.39-14.25,0,0-12.83-2.06-15.36-7.92,0,0,10.77,5.22,23.75,1.58,12.98-3.64,18.37-8.23,15.99-12.67-2.37-4.43-21.69-1.68-30.24-16.6,0,0,12.67,4.88,26.29,5.83,13.62.95,20.11-.32,24.54-7.76,0,0,.63-.95-1.11-1.58-1.74-.63-25.49-5.38-26.13-15.83,0,0,12.03,6.81,28.03,6.18,15.99-.63,19.95-8.39,21.38-13.3,0,0-24.7-1.74-33.73-4.43-9.03-2.69-13.46-10.29-13.46-10.29,0,0,17.26,5.07,35.79,5.23,18.53.16,29.93-2.69,37.37-5.54,7.44-2.85,13.46-9.03,13.46-9.03,0,0-25.02-.95-38.32,0-13.3.95-40.69-1.27-48.14-11.4,0,0,6.81,2.69,27.39,3.17,20.58.48,50.99-5.07,71.1-4.12,20.11.95,29.61,8.55,33.73,12.35Z"/>
      <path class="cls-1" d="M318.82,23.92s.47,4.75-2.06,9.5c-2.53,4.75-8.39,19.42-9.34,22.22s-.79,4.86.95,4.7c1.74-.16,4.59-3.39,5.7-4.7,1.11-1.32,2.38-.36,2.53.74.16,1.11-3.48,4.91-7.13,7.44-3.64,2.53-6.81,4.59-6.18,6.33.63,1.74,4.39,1.74,7.74-2.06,3.35-3.8,5.09-6.02,5.72-6.02s2.6,1.11,2.09,2.53c-.51,1.43-4.47,5.7-8.43,10.29-3.96,4.59-6.33,8.08-5.7,12.98,0,0-7.76-4.75-9.5-17.42-1.74-12.67,14.57-39.11,23.59-46.55Z"/>
      <path class="cls-1" d="M328.16,35.95s-3.33,8.71-3.64,17.58c-.32,8.87,1.58,16.63,2.85,16.94,1.27.32,3.17-9.03,3.64-17.26.48-8.23-2.85-17.26-2.85-17.26Z"/>
      <path class="cls-1" d="M338.61,94.06s.95.48,1.58,3.01c.63,2.53,2.85,2.85,6.02,6.49,3.17,3.64,4.43,6.02,5.23,7.92.79,1.9,2.22,3.01,1.43,3.48-.79.48-4.75-.32-7.92-1.43-3.17-1.11-7.13-1.43-9.5-1.9-2.37-.48-5.45-2.38-4.39-2.06,1.06.32,2.65.63,3.6,0,.95-.63,4.27-7.76,4.91-10.13.63-2.38-.95-5.38-.95-5.38Z"/>
      <path class="cls-1" d="M347,84.25s4.75,9.82,10.61,19.32c5.86,9.5,20.74,34.04,31.35,46.24,10.61,12.19,24.39,26.29,25.49,29.29,0,0-3.01,3.64-7.92,3.96-4.91.32-9.82,3.17-13.14,7.44-3.32,4.28-1.58,11.72-.48,12.98,1.11,1.27,8.39,2.38,13.14,1.11,0,0-6.18-2.53-8.23-6.81-2.06-4.27.95-8.71,10.77-8.87,9.82-.16,11.24,3.32,11.56,4.27.32.95,0,13.62-3.8,19,0,0,9.34-5.54,12.35-12.35,3.01-6.81-1.74-16.78-5.23-21.22-3.48-4.43-27.55-31.35-36.74-46.08-9.18-14.73-19.32-30.09-24.54-35.94-5.23-5.86-15.2-12.35-15.2-12.35Z"/>
    </g>
  </g>
  <g>
    <path class="cls-1" d="M265.65,549.29c-1.94.54-3.95.81-6.03.81-1.71,0-3.43-.18-5.17-.53-1.74-.36-3.45-.81-5.13-1.37-1.68-.56-3.34-1.19-4.98-1.9-1.64-.71-3.2-1.43-4.68-2.14-.31-.14-.69-.33-1.13-.56-.44-.23-.82-.43-1.13-.6-.57-.34-1.18-.67-1.84-.98-.65-.31-1.27-.58-1.84-.81h-.21c-.31,0-.68.07-1.09.19-.41.13-.86.26-1.35.41-.57.17-1.15.33-1.75.47-.6.14-1.23.21-1.88.21-2.51,0-4.79-.41-6.84-1.22-2.05-.81-3.8-1.95-5.26-3.42-1.45-1.47-2.58-3.23-3.38-5.28-.8-2.05-1.2-4.3-1.2-6.75s.44-4.56,1.32-6.58c.88-2.02,2.09-3.78,3.61-5.28,1.52-1.5,3.31-2.66,5.36-3.5s4.26-1.26,6.63-1.26,4.43.38,6.45,1.13c2.02.75,3.78,1.82,5.28,3.2,1.5,1.38,2.68,3.04,3.55,4.96.87,1.92,1.3,4.06,1.3,6.39,0,2.74-.6,5.34-1.8,7.82-1.2,2.48-2.91,4.56-5.13,6.24,1.85,1.11,3.77,2.21,5.75,3.29,1.98,1.09,4.01,2.05,6.09,2.91,2.08.85,4.18,1.55,6.31,2.07,2.12.53,4.27.79,6.43.79,1.54,0,3.04-.16,4.51-.47,1.47-.32,2.9-.76,4.3-1.33l.47.68c-1.77,1.05-3.62,1.85-5.56,2.39ZM238.57,519.92c-.53-1.65-1.3-3.1-2.33-4.36-1.03-1.25-2.28-2.26-3.76-3.01-1.48-.75-3.18-1.13-5.09-1.13-1.8,0-3.43.29-4.92.86-1.48.57-2.76,1.38-3.83,2.44-1.07,1.05-1.9,2.32-2.48,3.8-.58,1.48-.88,3.14-.88,4.96,0,2.08.35,4.08,1.05,5.98.7,1.91,1.67,3.62,2.93,5.13,1.25,1.51,2.75,2.77,4.49,3.76,1.74,1,3.65,1.62,5.73,1.88,1.57-.57,2.96-1.37,4.19-2.39,1.23-1.02,2.26-2.2,3.1-3.52.84-1.33,1.48-2.76,1.92-4.32.44-1.55.66-3.17.66-4.85,0-1.83-.26-3.56-.79-5.22Z"/>
    <path class="cls-1" d="M277.64,511.69c-.5.31-.75.88-.75,1.71v16.16c0,1.8-.29,3.48-.86,5.05-.57,1.57-1.39,2.94-2.46,4.1-1.07,1.17-2.36,2.1-3.87,2.78-1.51.68-3.21,1.03-5.09,1.03-1.43,0-2.79-.22-4.08-.66-1.3-.44-2.49-1.05-3.57-1.84-1.08-.78-2.04-1.72-2.86-2.82-.83-1.1-1.48-2.29-1.97-3.57-.06-.11-.12-.31-.17-.6-.06-.28-.11-.58-.15-.9-.04-.31-.09-.61-.13-.88-.04-.27-.06-.46-.06-.58v-16.97c0-.46-.06-.88-.17-1.28-.11-.4-.36-.67-.73-.81-.09-.03-.17-.03-.26-.02-.09.01-.21,0-.38-.02-.4-.03-.81-.1-1.24-.22-.43-.11-.67-.33-.73-.64-.03-.11.01-.2.13-.28.11-.07.24-.11.38-.11l1.62.04c1.4.06,2.79.04,4.19-.06,1.4-.1,2.81-.08,4.23.06.28.03.43.16.43.38s-.14.36-.43.38c-.77.08-1.38.27-1.82.56-.44.28-.66.86-.66,1.71v4.58c0,1.51-.01,3.03-.04,4.57-.03,1.54-.04,3.06-.02,4.57.01,1.51.02,3.04.02,4.57,0,1.28.21,2.44.64,3.46.43,1.03,1.02,1.91,1.77,2.65.75.74,1.65,1.31,2.69,1.71,1.04.4,2.17.6,3.4.6s2.37-.21,3.44-.62c1.07-.41,1.99-.99,2.78-1.73.78-.74,1.4-1.64,1.84-2.69.44-1.05.66-2.22.66-3.5v-4.53c0-1.48-.01-2.98-.04-4.49v-2.14c0-.77,0-1.55-.02-2.33-.01-.78-.02-1.56-.02-2.33v-2.18c0-.46-.06-.88-.17-1.28-.11-.4-.36-.67-.73-.81-.09-.03-.17-.04-.26-.02-.09.01-.21,0-.38-.02-.4-.03-.81-.09-1.24-.19-.43-.1-.67-.31-.73-.62-.03-.11.01-.21.13-.28.11-.07.24-.11.38-.11,1.54,0,3.06-.02,4.57-.06,1.51-.04,3.04,0,4.57.11l.04.77c-.74.12-1.36.33-1.86.64Z"/>
    <path class="cls-1" d="M308.79,541.25c-.83-.01-1.67-.02-2.52-.02-.63,0-1.38.01-2.27.04-.88.03-1.62.01-2.22-.04-.23-.03-.38-.1-.47-.21-.08-.11-.04-.24.13-.39l1.5-.77c-.68-1.8-1.38-3.59-2.07-5.39-.7-1.8-1.37-3.59-2.03-5.39h-8.42c-.23.51-.52,1.26-.88,2.25-.36.98-.7,1.99-1.05,3.03-.34,1.04-.63,2.03-.88,2.95-.24.93-.36,1.58-.36,1.95,0,.49.22.81.66.96.44.16.88.27,1.3.32.28.06.42.19.4.41-.01.21-.16.32-.45.32l-8.89-.04c-.11-.11-.19-.2-.21-.26-.06-.11-.03-.23.08-.34.06-.09.15-.12.28-.11.13.01.21.02.24.02.37,0,.73-.11,1.09-.32.35-.21.7-.48,1.02-.81.33-.33.61-.68.86-1.07.24-.38.43-.75.58-1.09.74-1.88,1.45-3.81,2.12-5.79.67-1.98,1.35-3.91,2.03-5.79,1-2.76,2.01-5.52,3.04-8.25,1.03-2.74,2.07-5.48,3.12-8.25.06-.11.16-.22.3-.3.14-.09.27-.06.38.09.48.54.93,1.33,1.32,2.35.4,1.02.76,1.98,1.07,2.86.11.17.19.34.24.51.04.17.09.32.15.43.34.91.72,1.84,1.13,2.78.41.94.8,1.91,1.18,2.91.51,1.37,1.05,2.79,1.6,4.28.56,1.48,1.13,2.98,1.73,4.49.6,1.51,1.2,2.98,1.82,4.42.61,1.44,1.22,2.8,1.82,4.08.4.83.96,1.41,1.69,1.75.73.34,1.5.54,2.33.6v.77c-.83.06-1.65.08-2.48.06ZM294.46,516.52c-.57,1.8-1.12,3.51-1.65,5.15-.53,1.64-1.11,3.36-1.73,5.15h6.88l-3.51-10.3Z"/>
    <path class="cls-1" d="M334.37,536.11c-.01.12-.02.24-.02.39-.11,1.05-.2,2-.26,2.84-.06.84-.11,1.63-.17,2.37-.86-.09-1.7-.13-2.54-.15-.84-.01-1.67-.02-2.5-.02h-2.27c-.77,0-1.54.01-2.31.04-.8.03-1.58.03-2.35,0-.77-.03-1.55-.04-2.35-.04s-1.62.04-2.39.13c-.77.09-1.54.1-2.31.04-.28-.03-.42-.16-.41-.41.01-.24.16-.36.45-.36.51-.03.93-.15,1.24-.36.31-.22.56-.49.73-.84s.29-.73.36-1.16c.07-.43.11-.88.11-1.37v-23.6c0-.48-.06-.87-.17-1.15-.11-.29-.26-.49-.43-.62-.17-.13-.36-.22-.58-.26-.21-.04-.42-.08-.62-.11-.37-.03-.7-.09-.98-.17-.29-.09-.49-.27-.6-.56-.09-.14-.08-.27.02-.38.1-.11.25-.17.45-.17h5.86c.77,0,1.55-.02,2.33-.07.78-.04,1.53.05,2.24.28.23.06.32.21.28.45-.04.24-.19.35-.45.32l-.6-.04c-.66-.06-1.2.11-1.62.51-.43.4-.64.96-.64,1.66v21.72c0,1.51.48,2.69,1.45,3.55.97.86,2.17,1.29,3.59,1.29s2.68-.4,3.85-1.2c1.17-.8,2.07-1.85,2.69-3.16.06-.09.15-.14.28-.17.13-.03.24-.04.34-.02.1.02.19.06.28.13.09.07.11.16.09.28-.03.14-.05.27-.07.38Z"/>
    <path class="cls-1" d="M351.04,541.54c-.07.13-.22.19-.45.19-.74-.03-1.41-.06-2.01-.09-.6-.03-1.27-.05-2.01-.07-.74-.01-1.5-.02-2.27-.02-1.25,0-2.39.02-3.4.06-1.01.04-1.62.02-1.82-.06-.11-.06-.17-.14-.17-.26s.03-.23.09-.34c.06-.11.14-.21.26-.28.11-.07.23-.08.34-.02.14.06.41.04.79-.06.38-.1.62-.15.7-.15.31,0,.57-.14.77-.43.2-.28.36-.63.49-1.03.13-.4.21-.8.26-1.22.04-.41.06-.76.06-1.05v-23.34c0-.86-.27-1.45-.81-1.77-.54-.33-1.18-.53-1.92-.62-.26-.03-.38-.15-.38-.38s.13-.36.38-.38c.83-.06,1.65-.08,2.46-.06.81.01,1.63.02,2.46.02s1.6-.02,2.39-.04c.8-.03,1.61-.01,2.44.04.28.03.44.15.47.36.03.21-.1.35-.38.41-.77.14-1.4.36-1.88.64-.49.29-.73.87-.73,1.75v23.55c0,.14.03.38.08.71.06.33.13.68.22,1.05.08.37.18.72.28,1.05.1.33.19.55.28.66.14.06.33.12.56.17.23.06.41.09.56.09.31,0,.63.02.94.06.31.04.6.19.86.45.14.14.18.28.11.41Z"/>
    <path class="cls-1" d="M382.57,513.41c-.07.79-.19,1.55-.36,2.29-.06.2-.23.3-.51.3-.26,0-.41-.1-.47-.3-.26-1.31-.8-2.18-1.65-2.61-.84-.43-1.86-.64-3.06-.64-.31,0-.6,0-.86.02-.26.01-.53.04-.81.07-.26.03-.55.05-.88.06-.33.01-.61.02-.83.02h-.73c-.23,0-.44-.02-.64-.04v24.28c0,.09.02.29.06.62.04.33.09.66.13,1,.04.34.09.66.15.94.06.28.1.44.13.47.28.28.57.46.86.51.28.06.56.1.81.13.4.03.74.07,1.03.13.28.06.5.23.64.51.09.14.09.26,0,.36-.09.1-.23.15-.43.15-1.74,0-3.47.01-5.19.04-1.72.03-3.46.02-5.19-.04-.28-.03-.44-.14-.47-.34-.03-.2.1-.33.39-.38.6-.12,1.07-.24,1.41-.36.34-.13.6-.32.77-.58.17-.26.28-.58.32-.98.04-.4.06-.94.06-1.62v-24.92h-6.63c-.83,0-1.55.29-2.18.88-.63.58-1.11,1.25-1.45,1.99-.08.17-.25.25-.49.24-.24-.01-.39-.12-.45-.32-.03-.11-.05-.22-.06-.32-.01-.1-.02-.22-.02-.36,0-.51.08-1.07.26-1.69.17-.61.36-1.23.56-1.86.09-.26.15-.5.19-.73.04-.23.09-.46.15-.69.06-.14.16-.24.32-.28.16-.04.31-.03.45.02.17.11.41.22.73.32.31.1.65.19,1,.28.36.09.7.15,1.03.19.33.04.58.07.75.07h18.3c.17,0,.39-.04.66-.11.27-.07.52-.14.75-.19.14-.06.31-.09.49-.11.19-.01.35-.03.49-.07.14-.03.28-.01.4.04.13.06.19.16.19.3v.94c0,.8-.04,1.59-.11,2.37Z"/>
    <path class="cls-1" d="M410.64,512.04c-.87.79-1.78,1.73-2.74,2.84-.96,1.11-1.9,2.32-2.82,3.63-.93,1.31-1.77,2.59-2.52,3.85-.75,1.25-1.36,2.41-1.82,3.46-.46,1.05-.68,1.89-.68,2.52v9.36c0,1.08.33,1.83,1,2.22.67.4,1.5.57,2.5.51.29-.03.44.08.47.32.03.24-.1.38-.38.41-.97.06-1.95.11-2.95.17-1,.06-1.99.09-2.99.09-.77,0-1.55-.02-2.33-.06-.78-.04-1.53-.15-2.24-.32l.3-.77c.2.08.38.13.56.13.29,0,.53-.09.73-.28.2-.18.36-.41.47-.68.11-.27.19-.57.24-.9.04-.33.06-.62.06-.88v-8.68c0-.51-.25-1.31-.75-2.39-.5-1.08-1.14-2.28-1.92-3.59-.78-1.31-1.65-2.67-2.61-4.08-.96-1.41-1.91-2.71-2.86-3.89-.96-1.19-1.84-2.18-2.65-2.99-.81-.81-1.46-1.29-1.94-1.43-.26-.05-.38-.19-.36-.4.01-.21.16-.34.45-.36,1.42-.11,2.84-.18,4.25-.19,1.41-.01,2.84-.02,4.3-.02.23,0,.38.07.45.22.07.14.04.28-.11.43-.09.09-.21.19-.38.3-.14.11-.27.23-.39.34-.11.11-.17.26-.17.43,0,.23.26.83.77,1.82.51.98,1.13,2.12,1.86,3.4.73,1.28,1.48,2.59,2.27,3.93.78,1.34,1.46,2.49,2.03,3.46.2.31.31.5.34.56.03.06.1.16.21.3.31-.68.66-1.37,1.05-2.07.38-.7.76-1.36,1.13-1.99.14-.23.32-.5.53-.81.21-.31.43-.63.66-.94.4-.57.82-1.2,1.28-1.88.46-.68.88-1.36,1.26-2.03.38-.67.7-1.29.94-1.86.24-.57.36-1.02.36-1.37,0-.31-.09-.58-.28-.79-.19-.21-.41-.38-.66-.49-.26-.05-.37-.19-.34-.38.03-.2.19-.31.47-.34.66-.06,1.3-.1,1.94-.13.64-.03,1.29-.04,1.95-.04.71,0,1.42.01,2.12.04.7.03,1.37.07,2.03.13l.13.73c-.6.2-1.33.69-2.2,1.48Z"/>
    <path class="cls-1" d="M449.29,535.43c-.41,1.01-.98,1.92-1.69,2.71-.71.8-1.55,1.48-2.52,2.03-.97.55-2.01.93-3.12,1.13-.26.06-.58.09-.98.11-.4.02-.84.02-1.33.02s-1,0-1.54-.02c-.54-.01-1.07-.03-1.58-.06-.4-.03-.77-.04-1.11-.04h-6.67l-.17-.73c.6-.2,1.07-.38,1.43-.55.36-.17.63-.38.81-.64.18-.26.3-.6.34-1.03.04-.43.06-1,.06-1.71v-23.6c0-.43-.04-.77-.13-1.03-.09-.26-.21-.45-.36-.58-.16-.13-.33-.21-.51-.24-.19-.03-.36-.06-.53-.09-.37-.06-.7-.12-1-.19-.3-.07-.56-.26-.79-.58-.14-.14-.15-.28-.02-.43.13-.14.31-.2.54-.17.77.2,1.57.3,2.39.3.57,0,1.14-.02,1.71-.06.57-.04,1.15-.09,1.75-.15.57-.05,1.15-.11,1.73-.15.58-.04,1.2-.07,1.86-.07,1,0,2.03.14,3.1.41,1.07.27,2.04.69,2.91,1.26.87.57,1.59,1.28,2.16,2.14.57.85.85,1.87.85,3.03,0,.69-.11,1.35-.32,1.99-.21.64-.5,1.26-.86,1.86-.36.6-.76,1.17-1.22,1.71-.46.54-.93,1.04-1.41,1.5.97.32,1.87.75,2.71,1.31.84.56,1.57,1.2,2.18,1.94.61.74,1.09,1.58,1.43,2.5.34.93.51,1.92.51,2.97,0,1.11-.21,2.17-.62,3.19ZM445.23,531.11c-.24-.78-.58-1.52-1.03-2.2-.44-.68-.97-1.3-1.58-1.86-.61-.55-1.28-1-1.99-1.35-.68-.34-1.47-.55-2.37-.62-.9-.07-1.75-.11-2.54-.11v11.54c0,.48.14.92.43,1.3.28.39.64.72,1.07,1.01.43.28.89.5,1.39.64.5.14.95.22,1.35.22.83,0,1.59-.17,2.29-.49.7-.33,1.3-.78,1.8-1.35.5-.57.88-1.22,1.15-1.97.27-.74.41-1.52.41-2.35s-.12-1.63-.36-2.41ZM442.39,514.93c-.23-.69-.55-1.29-.96-1.82-.41-.53-.93-.95-1.54-1.26-.61-.31-1.3-.47-2.07-.47s-1.43.1-2.05.3v11.2c1.03,0,1.96-.07,2.8-.21.84-.14,1.57-.43,2.2-.86.63-.43,1.11-1.02,1.45-1.77.34-.75.51-1.73.51-2.93,0-.77-.11-1.5-.34-2.18Z"/>
    <path class="cls-1" d="M488.07,533.43c-.77,1.71-1.82,3.19-3.14,4.45-1.33,1.25-2.87,2.3-4.64,3.12-1.77.83-3.65,1.47-5.64,1.92-.17.03-.38.05-.62.09-.24.03-.5.05-.77.06-.27.01-.55.02-.83.02h-.64c-1.17,0-2.38-.21-3.64-.64-1.25-.43-2.46-1-3.63-1.73-1.17-.73-2.27-1.59-3.31-2.59-1.04-1-1.94-2.07-2.71-3.23-.77-1.15-1.38-2.36-1.84-3.61-.46-1.25-.68-2.51-.68-3.76,0-2.51.27-4.73.81-6.67.54-1.94,1.41-3.62,2.61-5.04,1.2-1.42,2.74-2.61,4.62-3.57,1.88-.95,4.16-1.72,6.84-2.29.4-.08.82-.15,1.26-.19.44-.04.86-.06,1.26-.06,2.68,0,5.01.54,7.01,1.62,1.99,1.09,3.65,2.48,4.96,4.19,1.31,1.71,2.29,3.63,2.93,5.75.64,2.12.96,4.22.96,6.31,0,2.2-.38,4.15-1.15,5.86ZM484.1,521.95c-.54-1.84-1.35-3.48-2.42-4.94-1.07-1.45-2.38-2.63-3.93-3.55-1.55-.91-3.34-1.37-5.36-1.37-1.91,0-3.6.35-5.07,1.05-1.47.7-2.71,1.65-3.72,2.86-1.01,1.21-1.78,2.62-2.31,4.23-.53,1.61-.79,3.33-.79,5.15s.28,3.71.83,5.56c.56,1.85,1.37,3.52,2.46,5,1.08,1.48,2.42,2.68,4,3.61,1.58.93,3.38,1.39,5.41,1.39,1.91,0,3.59-.36,5.04-1.09,1.45-.73,2.67-1.7,3.66-2.93.98-1.23,1.73-2.66,2.24-4.3.51-1.64.77-3.36.77-5.15s-.27-3.7-.81-5.54Z"/>
    <path class="cls-1" d="M523.63,511.75c-.5.31-.75.88-.75,1.71v16.16c0,1.79-.29,3.48-.86,5.04-.57,1.57-1.39,2.94-2.46,4.1s-2.36,2.1-3.87,2.78c-1.51.68-3.21,1.03-5.09,1.03-1.42,0-2.79-.22-4.08-.66s-2.49-1.05-3.57-1.84c-1.08-.79-2.04-1.72-2.86-2.82-.83-1.1-1.48-2.29-1.97-3.57-.06-.11-.12-.31-.17-.6-.06-.28-.11-.58-.15-.9-.04-.31-.09-.61-.13-.88-.04-.27-.06-.46-.06-.58v-16.97c0-.45-.06-.88-.17-1.28-.12-.4-.36-.67-.73-.81-.09-.03-.17-.04-.26-.02-.09.02-.21,0-.38-.02-.4-.03-.81-.1-1.24-.21-.43-.11-.67-.33-.73-.64-.03-.11.01-.21.13-.28.11-.07.24-.11.38-.11l1.62.04c1.4.06,2.79.04,4.19-.06,1.4-.1,2.81-.08,4.23.06.28.03.43.16.43.38s-.14.36-.43.39c-.77.09-1.38.27-1.82.55-.44.29-.66.86-.66,1.71v4.57c0,1.51-.01,3.03-.04,4.58-.03,1.54-.04,3.06-.02,4.57.01,1.51.02,3.03.02,4.58,0,1.28.21,2.44.64,3.46.43,1.02,1.02,1.91,1.77,2.65.75.74,1.65,1.31,2.69,1.71,1.04.4,2.17.6,3.4.6s2.37-.21,3.44-.62c1.07-.41,1.99-.99,2.78-1.73.78-.74,1.4-1.64,1.84-2.69.44-1.05.66-2.22.66-3.51v-4.53c0-1.48-.01-2.98-.04-4.49v-2.14c0-.77,0-1.54-.02-2.33-.01-.78-.02-1.56-.02-2.33v-2.18c0-.46-.06-.88-.17-1.28-.11-.4-.36-.67-.73-.81-.08-.03-.17-.03-.26-.02-.09.01-.22,0-.38-.02-.4-.03-.81-.09-1.24-.19-.43-.1-.67-.3-.73-.62-.03-.11.01-.21.13-.28.11-.07.24-.11.39-.11,1.54,0,3.06-.02,4.57-.07,1.51-.04,3.03,0,4.57.11l.04.77c-.74.11-1.36.33-1.86.64Z"/>
    <path class="cls-1" d="M563.25,511.24c-.1.08-.19.14-.28.17-.46.14-.9.3-1.35.47-.44.17-.66.5-.66.98,0,4.76.02,9.52.06,14.28.04,4.76-.12,9.5-.49,14.24-.03.17-.14.28-.32.34-.19.06-.36.03-.53-.08-1.82-1.54-3.63-3.18-5.41-4.92-1.78-1.74-3.53-3.53-5.26-5.37-1.72-1.84-3.43-3.69-5.11-5.56-1.68-1.87-3.34-3.7-4.96-5.49-.48-.57-.9-1.04-1.24-1.41-.34-.37-.77-.84-1.28-1.41-.08.83-.13,1.61-.13,2.35,0,1.43.03,2.84.09,4.23.06,1.4.11,2.79.17,4.19.06,1.45.11,2.89.17,4.3.06,1.41.09,2.83.09,4.26,0,.68.06,1.22.17,1.62.11.4.26.71.45.94.19.23.41.39.66.49.26.1.51.18.77.24.28.06.58.13.88.23.3.1.61.25.92.45.2.12.26.25.17.41-.09.16-.24.24-.47.24l-5.43-.13c-.74-.03-1.5,0-2.27.11-.77.1-1.5.08-2.18-.06-.26-.06-.36-.19-.32-.39.04-.2.19-.33.45-.38l.6-.13c.66-.14,1.19-.43,1.6-.88.41-.44.62-1.02.62-1.73v-26.93c0-.23.06-.42.17-.58.11-.16.26-.32.43-.49.23-.17.46-.17.68,0,7.89,8.07,15.6,16.25,23.13,24.54,0-.23,0-.45.02-.66.01-.21.02-.43.02-.66,0-3.13-.05-6.26-.15-9.36-.1-3.11-.15-6.23-.15-9.36,0-.65-.07-1.17-.21-1.54-.14-.37-.32-.65-.53-.84-.22-.18-.45-.3-.71-.36-.26-.06-.51-.11-.77-.17-.31-.05-.59-.11-.83-.17-.24-.06-.44-.17-.58-.34-.17-.11-.22-.24-.15-.38.07-.14.22-.22.45-.22h3.08c1,0,2.01,0,3.03-.02,1.03-.01,2.05,0,3.08.06l.09.73c-.09.03-.18.09-.28.17Z"/>
    <path class="cls-1" d="M601.4,532.59c-.87,2.08-2.1,3.81-3.7,5.17-1.6,1.37-3.51,2.39-5.75,3.06-2.24.67-4.72,1-7.46,1-1,0-1.99-.03-2.99-.09-1-.06-1.98-.13-2.95-.22-1.14-.08-2.29-.16-3.44-.23-1.15-.07-2.3-.08-3.44-.02-.28,0-.45-.11-.49-.34-.04-.23.08-.37.36-.43.57-.11,1.02-.27,1.37-.47.34-.2.61-.45.79-.75.19-.3.31-.67.36-1.11.06-.44.09-.98.09-1.6v-23.64c0-.43-.06-.77-.19-1.03-.13-.26-.29-.46-.49-.6-.2-.14-.41-.24-.64-.3-.23-.06-.44-.1-.64-.13-.34-.06-.64-.12-.9-.19-.26-.07-.43-.22-.51-.45-.09-.14-.08-.27.02-.39.1-.11.24-.17.4-.17.51,0,1.03.01,1.54.04.51.03,1.01.06,1.5.09.63.06,1.23.1,1.82.13.59.03,1.19.04,1.82.04.77,0,1.52-.02,2.26-.07.74-.04,1.51-.09,2.31-.15.74-.06,1.51-.09,2.31-.11.8-.02,1.55-.02,2.27-.02,1,0,2.06.16,3.18.47,1.12.31,2.25.75,3.38,1.3,1.12.56,2.22,1.21,3.27,1.97,1.05.75,1.99,1.59,2.8,2.5.81.91,1.49,1.88,2.03,2.9.54,1.03.86,2.07.94,3.12.06.54.09,1.11.09,1.71v1.58c0,2.85-.44,5.32-1.3,7.39ZM597.12,520.53c-.75-1.85-1.81-3.43-3.16-4.72-1.35-1.29-2.98-2.3-4.87-3.01-1.9-.71-3.97-1.07-6.22-1.07-.74,0-1.46.04-2.16.13-.7.09-1.39.24-2.07.47v22.61c0,.23,0,.53.02.9.01.37.05.73.11,1.09.06.36.13.69.24,1,.1.31.22.53.36.64.65.46,1.46.76,2.42.92.95.16,1.82.24,2.59.24,2.05,0,3.93-.27,5.64-.81,1.71-.54,3.17-1.35,4.38-2.42,1.21-1.07,2.16-2.41,2.84-4.04.68-1.62,1.02-3.52,1.02-5.69,0-2.31-.38-4.39-1.13-6.24Z"/>
    <path class="cls-1" d="M633.11,541.17c-.83-.01-1.67-.02-2.52-.02-.63,0-1.38.01-2.26.04-.88.03-1.62.01-2.22-.04-.23-.03-.39-.1-.47-.21-.09-.11-.04-.24.13-.39l1.5-.77c-.69-1.8-1.38-3.59-2.08-5.39-.7-1.8-1.37-3.59-2.03-5.39h-8.42c-.23.51-.52,1.26-.88,2.24-.36.98-.71,1.99-1.05,3.03-.34,1.04-.63,2.02-.88,2.95-.24.92-.36,1.58-.36,1.94,0,.49.22.81.66.96.44.16.88.27,1.3.32.28.06.42.19.4.41-.01.21-.16.32-.45.32l-8.89-.04c-.11-.11-.19-.2-.21-.26-.06-.12-.03-.23.09-.34.06-.09.15-.12.28-.11.13.01.21.02.24.02.37,0,.73-.11,1.09-.32.36-.21.7-.48,1.02-.81.33-.33.61-.69.86-1.07.24-.39.44-.75.58-1.09.74-1.88,1.45-3.81,2.12-5.79.67-1.98,1.35-3.91,2.03-5.79,1-2.76,2.01-5.51,3.03-8.25,1.03-2.74,2.07-5.49,3.12-8.25.06-.11.15-.22.3-.3.14-.09.27-.05.38.09.49.54.93,1.33,1.33,2.35.4,1.02.75,1.98,1.07,2.86.11.17.19.34.24.51.04.17.09.32.15.43.34.91.72,1.84,1.13,2.78.41.94.8,1.91,1.18,2.91.51,1.37,1.05,2.79,1.6,4.27.56,1.48,1.13,2.98,1.73,4.49.6,1.51,1.2,2.99,1.82,4.42.61,1.44,1.22,2.8,1.82,4.08.4.83.96,1.41,1.69,1.75.73.34,1.5.54,2.33.6v.77c-.83.06-1.65.08-2.48.06ZM618.79,516.44c-.57,1.8-1.12,3.51-1.65,5.15-.53,1.64-1.11,3.36-1.73,5.15h6.88l-3.5-10.3Z"/>
    <path class="cls-1" d="M667.92,542.39c-.71.17-1.44.26-2.18.26-1.2,0-2.27-.22-3.23-.66-.96-.44-1.84-1.02-2.65-1.75-.81-.73-1.57-1.54-2.27-2.46-.7-.91-1.37-1.84-2.03-2.78-.65-.91-1.3-1.8-1.94-2.67-.64-.87-1.3-1.6-1.99-2.2-.51-.46-1.15-.74-1.9-.86-.75-.11-1.43-.17-2.03-.17h-.77c-.26,0-.5.01-.73.04v7.95c0,.14.02.38.06.73.04.34.11.71.19,1.09.08.38.17.73.26,1.04.08.31.17.5.26.56.14.06.34.1.58.13.24.03.43.06.58.09.31.03.63.07.96.13.33.06.62.2.88.43.17.14.22.29.13.43-.09.14-.24.21-.47.21h-5.22c-1.74,0-3.48-.04-5.22-.13-.29-.03-.44-.15-.45-.36-.01-.22.12-.35.41-.41.63-.11,1.11-.24,1.45-.38s.59-.34.75-.6c.16-.26.25-.6.28-1.05.03-.44.04-1,.04-1.69v-23.68c0-.48-.06-.87-.17-1.15-.11-.28-.26-.49-.43-.62-.17-.13-.36-.21-.56-.26-.2-.04-.4-.08-.6-.11-.4-.03-.74-.09-1.03-.17-.28-.09-.47-.27-.56-.55-.08-.14-.08-.26,0-.36.09-.1.23-.15.43-.15h3.59c.48.03.94.04,1.37.02.43-.01.87-.02,1.32-.02.26,0,.51,0,.75-.02.24-.01.49-.02.75-.02h2.27c1.2,0,2.37.08,3.53.24,1.15.15,2.22.47,3.21.94.98.47,1.83,1.14,2.54,2.01.71.87,1.24,2.02,1.58,3.44.06.14.09.33.11.55.01.23.02.44.02.64,0,.88-.14,1.76-.43,2.63-.28.87-.66,1.72-1.11,2.54-.46.83-.98,1.6-1.56,2.33-.58.73-1.19,1.39-1.82,1.99.46.49.93,1.07,1.43,1.75.5.68,1,1.37,1.52,2.05.86,1.14,1.74,2.32,2.67,3.53.93,1.21,1.89,2.3,2.91,3.25,1.01.96,2.05,1.71,3.1,2.26,1.05.56,2.12.75,3.21.58l.26.73c-.66.31-1.34.55-2.05.73ZM654.73,517.21c-.27-1-.68-1.89-1.22-2.67-.54-.78-1.22-1.42-2.03-1.92-.81-.5-1.76-.75-2.84-.75-.83,0-1.62.13-2.39.38v14.06c1.14.17,2.32.26,3.55.26.48,0,1.04-.03,1.67-.08.63-.06,1.14-.24,1.54-.56.4-.31.73-.69,1-1.13.27-.44.49-.92.66-1.43.17-.51.29-1.04.36-1.58.07-.54.11-1.07.11-1.58,0-1-.14-1.99-.41-2.99Z"/>
    <path class="cls-1" d="M682.09,541.61c-.07.13-.22.19-.45.19-.74-.03-1.41-.06-2.01-.09-.6-.03-1.27-.05-2.01-.06s-1.5-.02-2.26-.02c-1.25,0-2.39.02-3.4.06-1.01.04-1.62.02-1.82-.06-.11-.06-.17-.14-.17-.26s.03-.23.09-.34c.06-.11.14-.21.26-.28.11-.07.23-.08.34-.02.14.06.41.03.79-.07.38-.1.62-.15.71-.15.31,0,.57-.14.77-.43.2-.28.36-.63.49-1.03.13-.4.21-.8.26-1.22.04-.41.06-.76.06-1.05v-23.34c0-.86-.27-1.45-.81-1.77-.54-.33-1.18-.53-1.93-.62-.26-.03-.38-.16-.38-.39s.13-.35.38-.38c.83-.06,1.65-.08,2.46-.06.81.01,1.63.02,2.46.02s1.6-.01,2.39-.04c.8-.03,1.61-.01,2.44.04.28.03.44.15.47.36.03.21-.1.35-.38.41-.77.14-1.4.36-1.88.64-.48.28-.73.87-.73,1.75v23.55c0,.14.03.38.09.71.05.33.13.68.21,1.05.09.37.18.72.28,1.05.1.33.19.55.28.66.14.06.33.11.56.17.23.06.41.09.56.09.31,0,.63.02.94.06.31.04.6.19.86.45.14.14.18.28.11.41Z"/>
    <path class="cls-1" d="M707.95,538.46c-.1.67-.19,1.35-.28,2.03l-.13,1.02c-.06.2-.2.3-.43.3l-.77.21h-5.43c-.66,0-1.31,0-1.97.02-.65.02-1.31.02-1.97.02-1.2,0-2.38-.01-3.55-.04-1.17-.03-2.27-.1-3.29-.21-.29,0-.42-.12-.41-.36.01-.24.16-.36.45-.36.54-.03.97-.14,1.3-.34.33-.2.58-.47.75-.81.17-.34.29-.73.34-1.17.06-.44.09-.9.09-1.39v-23.81c0-.37-.04-.67-.13-.9-.09-.23-.21-.4-.36-.53-.16-.13-.33-.22-.51-.28-.19-.06-.38-.11-.58-.17-.31-.06-.61-.14-.9-.26-.29-.11-.57-.27-.86-.47-.23-.11-.3-.26-.21-.43.09-.17.24-.26.47-.26h16.41c.17,0,.43-.1.77-.3.2-.05.38-.05.53.02.16.07.22.18.19.32-.09.8-.21,1.6-.36,2.39-.16.8-.32,1.57-.49,2.31-.03.11-.06.22-.09.3-.03.09-.06.2-.09.34-.06.23-.23.34-.51.34s-.44-.11-.47-.34c-.11-1.31-.55-2.17-1.3-2.59-.75-.41-1.72-.62-2.88-.62h-.73c-.26,0-.51.01-.77.04-.28.03-.58.04-.9.04h-.9c-.23,0-.38.01-.45.04-.07.03-.22.01-.45-.04v11.41h6.29c.14,0,.35-.05.64-.15.28-.1.57-.22.86-.36.31-.14.59-.26.83-.36s.43-.16.58-.19c.17-.03.33,0,.47.09.14.09.2.2.17.34-.06.43-.11.86-.17,1.3-.06.44-.11.88-.17,1.3-.17,1.05-.3,2.14-.38,3.25,0,.17-.1.29-.3.34-.2.06-.39.01-.56-.13-.17-.17-.31-.37-.41-.6s-.18-.43-.24-.6c-.09-.26-.16-.51-.23-.77-.07-.26-.18-.44-.32-.55-.17-.17-.53-.31-1.07-.41-.54-.1-1.13-.17-1.77-.21-.64-.04-1.27-.07-1.9-.07h-2.26v11.54c.51.89,1.27,1.52,2.29,1.9,1.01.38,1.99.58,2.93.58,1.22,0,2.29-.33,3.19-.98.9-.66,1.5-1.63,1.82-2.91.03-.11.1-.19.21-.21.11-.03.23-.04.34-.02.11.01.22.06.32.13.1.07.13.16.11.28-.17.66-.31,1.32-.41,1.99Z"/>
    <path class="cls-1" d="M731.42,537.18c-.73,1.11-1.64,2.07-2.76,2.86-1.11.8-2.34,1.42-3.68,1.86-1.34.44-2.62.66-3.85.66-.6,0-1.23-.06-1.88-.19-.65-.13-1.25-.34-1.79-.64-.54-.3-.99-.71-1.35-1.22-.36-.51-.54-1.14-.54-1.88,0-.45.04-.88.13-1.28s.18-.8.3-1.2c.06-.31.11-.6.17-.88.06-.27.11-.52.17-.75.03-.11.09-.19.19-.24.1-.04.21-.07.32-.07.14,0,.26.03.34.09.09.06.13.14.13.26l-.04.68c-.06.77.06,1.46.36,2.08.3.61.72,1.13,1.26,1.56.54.43,1.15.75,1.84.98.68.23,1.39.34,2.14.34.66,0,1.33-.11,2.01-.34.68-.23,1.3-.55,1.86-.98.56-.43,1.01-.94,1.37-1.54.36-.6.53-1.27.53-2.01s-.17-1.42-.51-2.14c-.34-.71-.79-1.42-1.35-2.12-.56-.7-1.19-1.4-1.9-2.12-.71-.71-1.44-1.44-2.18-2.18v.04c-.83-.8-1.64-1.6-2.46-2.39-.81-.8-1.53-1.61-2.16-2.44-.63-.83-1.13-1.66-1.52-2.5-.38-.84-.58-1.7-.58-2.59,0-1.31.38-2.44,1.13-3.38.75-.94,1.69-1.72,2.8-2.33,1.11-.61,2.31-1.06,3.59-1.35,1.28-.28,2.46-.43,3.55-.43,1.51,0,2.92.19,4.23.56.23.06.34.18.34.38v1.54c0,.77-.03,1.56-.09,2.37-.06.81-.28,1.49-.68,2.03-.14.14-.33.19-.56.13-.23-.06-.34-.19-.34-.38,0-.71-.12-1.35-.36-1.92-.24-.57-.59-1.05-1.05-1.45-.46-.4-.98-.71-1.56-.92-.59-.22-1.22-.32-1.9-.32s-1.28.11-1.86.34c-.58.23-1.1.55-1.54.98-.44.43-.79.93-1.05,1.52-.26.59-.38,1.23-.38,1.95s.16,1.44.47,2.1c.31.65.73,1.29,1.26,1.9.53.61,1.12,1.2,1.79,1.77.67.57,1.35,1.15,2.03,1.75.83.68,1.64,1.38,2.44,2.09.8.71,1.51,1.46,2.14,2.25.63.78,1.13,1.62,1.52,2.5.39.88.58,1.84.58,2.86,0,1.37-.36,2.61-1.09,3.72Z"/>
    <path class="cls-1" d="M742.97,539.47c-.16.26-.36.48-.6.68-.24.2-.51.36-.81.47-.3.11-.59.17-.88.17-.66,0-1.16-.28-1.52-.83-.36-.56-.53-1.11-.53-1.65,0-.57.19-1.07.58-1.5.38-.43.92-.64,1.6-.64s1.22.26,1.69.79c.47.53.71,1.08.71,1.65,0,.31-.08.6-.24.86Z"/>
    <path class="cls-1" d="M753.7,539.47c-.16.26-.36.48-.6.68-.24.2-.51.36-.81.47-.3.11-.59.17-.88.17-.66,0-1.16-.28-1.52-.83-.36-.56-.53-1.11-.53-1.65,0-.57.19-1.07.58-1.5.38-.43.92-.64,1.6-.64s1.22.26,1.69.79c.47.53.71,1.08.71,1.65,0,.31-.08.6-.24.86Z"/>
    <path class="cls-1" d="M764.43,539.47c-.16.26-.36.48-.6.68-.24.2-.51.36-.81.47-.3.11-.59.17-.88.17-.66,0-1.16-.28-1.52-.83-.36-.56-.53-1.11-.53-1.65,0-.57.19-1.07.58-1.5.38-.43.92-.64,1.6-.64s1.22.26,1.69.79c.47.53.71,1.08.71,1.65,0,.31-.08.6-.24.86Z"/>
  </g>
  <g>
    <path class="cls-1" d="M499.52,594.87c-.1.67-.19,1.35-.28,2.03l-.13,1.03c-.06.2-.2.3-.43.3l-.77.21h-5.43c-.66,0-1.31,0-1.97.02-.66.01-1.31.02-1.97.02-1.2,0-2.38-.01-3.55-.04-1.17-.03-2.26-.1-3.29-.21-.29,0-.42-.12-.41-.36.01-.24.16-.36.45-.36.54-.03.98-.14,1.3-.34.33-.2.58-.47.75-.81.17-.34.28-.73.34-1.17.06-.44.09-.91.09-1.39v-23.81c0-.37-.04-.67-.13-.9-.08-.23-.21-.4-.36-.53-.16-.13-.33-.22-.51-.28-.19-.06-.38-.11-.58-.17-.31-.06-.61-.14-.9-.26-.29-.11-.57-.27-.86-.47-.23-.11-.3-.26-.21-.43.09-.17.24-.26.47-.26h16.41c.17,0,.43-.1.77-.3.2-.05.38-.05.53.02.16.07.22.18.19.32-.09.8-.21,1.6-.36,2.4-.16.8-.32,1.57-.49,2.31-.03.11-.06.21-.08.3-.03.09-.06.2-.09.34-.06.23-.23.34-.51.34s-.44-.11-.47-.34c-.11-1.31-.55-2.17-1.3-2.59-.76-.41-1.72-.62-2.89-.62h-.73c-.26,0-.51.01-.77.04-.28.03-.58.04-.9.04h-.9c-.23,0-.38.01-.45.04-.07.03-.22.01-.45-.04v11.41h6.28c.14,0,.36-.05.64-.15.28-.1.57-.22.85-.36.31-.14.59-.26.84-.36.24-.1.43-.16.58-.19.17-.03.33,0,.47.09.14.09.2.2.17.34-.06.43-.11.86-.17,1.3-.06.44-.11.88-.17,1.31-.17,1.05-.3,2.14-.38,3.25,0,.17-.1.28-.3.34-.2.06-.38.01-.56-.13-.17-.17-.31-.37-.41-.6-.1-.23-.18-.43-.23-.6-.09-.26-.16-.51-.24-.77-.07-.26-.18-.44-.32-.55-.17-.17-.53-.31-1.07-.41-.54-.1-1.13-.17-1.77-.21-.64-.04-1.28-.07-1.9-.07h-2.27v11.54c.51.88,1.27,1.52,2.29,1.9,1.01.38,1.99.58,2.93.58,1.23,0,2.29-.33,3.19-.98.9-.65,1.5-1.62,1.82-2.91.03-.11.1-.19.21-.22.11-.03.23-.03.34-.02.11.01.22.06.32.13.1.07.13.16.11.28-.17.66-.31,1.32-.4,1.99Z"/>
    <path class="cls-1" d="M538.34,568.26c-.1.09-.19.14-.28.17-.46.14-.9.3-1.35.47-.44.17-.66.5-.66.98,0,4.76.02,9.52.06,14.28.04,4.76-.12,9.51-.49,14.24-.03.17-.14.28-.32.34-.19.06-.36.03-.53-.09-1.82-1.54-3.63-3.18-5.41-4.92-1.78-1.74-3.53-3.52-5.26-5.36-1.73-1.84-3.43-3.69-5.11-5.56-1.68-1.87-3.34-3.7-4.96-5.49-.48-.57-.9-1.04-1.24-1.41-.34-.37-.77-.84-1.28-1.41-.08.83-.13,1.61-.13,2.35,0,1.42.03,2.84.09,4.23.06,1.4.11,2.79.17,4.19.06,1.45.11,2.88.17,4.3.06,1.41.09,2.83.09,4.25,0,.69.06,1.23.17,1.63.11.4.26.71.45.94.19.23.41.39.66.49.26.1.51.18.77.24.28.06.58.14.88.24.3.1.61.25.92.45.2.11.26.25.17.41-.09.15-.24.23-.47.23l-5.43-.13c-.74-.03-1.5,0-2.27.11-.77.1-1.5.08-2.18-.07-.26-.05-.36-.19-.32-.38.04-.2.19-.33.45-.39l.6-.13c.65-.14,1.19-.43,1.6-.88.41-.44.62-1.02.62-1.73v-26.93c0-.23.06-.42.17-.58.11-.15.26-.32.43-.49.23-.17.45-.17.68,0,7.89,8.06,15.6,16.24,23.12,24.54,0-.23,0-.45.02-.66.01-.21.02-.43.02-.66,0-3.13-.05-6.25-.15-9.36-.1-3.11-.15-6.23-.15-9.36,0-.65-.07-1.17-.21-1.54-.14-.37-.32-.65-.53-.83-.22-.19-.45-.31-.71-.36-.26-.06-.51-.11-.77-.17-.31-.06-.59-.11-.83-.17-.24-.06-.44-.17-.58-.34-.17-.11-.22-.24-.15-.38.07-.14.22-.21.45-.21h3.08c1,0,2.01,0,3.03-.02,1.03-.01,2.05,0,3.08.07l.09.73c-.09.03-.18.09-.28.17Z"/>
    <path class="cls-1" d="M576.84,589.55c-.87,2.08-2.1,3.81-3.7,5.17-1.6,1.37-3.51,2.38-5.75,3.06-2.24.67-4.72,1-7.46,1-1,0-1.99-.03-2.99-.09-1-.06-1.98-.13-2.95-.22-1.14-.08-2.29-.16-3.44-.23-1.15-.07-2.3-.08-3.44-.02-.29,0-.45-.11-.49-.34-.04-.23.08-.37.36-.43.57-.11,1.03-.27,1.37-.47.34-.2.6-.45.79-.75.19-.3.31-.67.36-1.11.06-.44.08-.98.08-1.6v-23.64c0-.43-.06-.77-.19-1.02-.13-.26-.29-.46-.49-.6-.2-.14-.42-.24-.64-.3-.23-.06-.44-.1-.64-.13-.34-.06-.64-.12-.9-.19-.26-.07-.43-.22-.51-.45-.08-.14-.08-.27.02-.39.1-.11.24-.17.41-.17.51,0,1.03.01,1.54.04.51.03,1.01.06,1.5.09.63.06,1.23.1,1.82.13.58.03,1.19.04,1.82.04.77,0,1.52-.02,2.27-.07.74-.04,1.51-.09,2.31-.15.74-.05,1.51-.09,2.31-.11.8-.01,1.55-.02,2.26-.02,1,0,2.06.16,3.19.47,1.12.31,2.25.75,3.38,1.3,1.12.56,2.22,1.21,3.27,1.97,1.05.75,1.99,1.59,2.8,2.5.81.91,1.49,1.88,2.03,2.9.54,1.03.86,2.07.94,3.12.06.54.09,1.11.09,1.71v1.58c0,2.85-.44,5.32-1.3,7.39ZM572.57,577.5c-.75-1.85-1.81-3.43-3.16-4.72-1.35-1.29-2.98-2.3-4.87-3.01-1.9-.71-3.97-1.07-6.22-1.07-.74,0-1.46.04-2.16.13-.7.09-1.39.24-2.07.47v22.61c0,.23,0,.53.02.9.01.37.05.73.11,1.09.06.36.14.69.24,1,.1.31.22.53.36.64.65.46,1.46.76,2.41.92.96.16,1.82.24,2.59.24,2.05,0,3.93-.27,5.64-.81,1.71-.54,3.17-1.35,4.38-2.42,1.21-1.07,2.16-2.41,2.84-4.04.69-1.62,1.03-3.52,1.03-5.69,0-2.31-.38-4.39-1.13-6.24Z"/>
    <path class="cls-1" d="M605.68,592.8c-.01.12-.02.24-.02.39-.11,1.05-.2,2-.26,2.84-.06.84-.11,1.63-.17,2.37-.86-.09-1.7-.14-2.54-.15-.84-.01-1.68-.02-2.5-.02h-2.27c-.77,0-1.54.01-2.31.04-.8.03-1.58.03-2.35,0-.77-.03-1.56-.04-2.35-.04s-1.62.04-2.39.13c-.77.09-1.54.1-2.31.04-.28-.03-.42-.16-.4-.41.01-.24.16-.36.45-.36.51-.03.92-.15,1.24-.36.31-.22.56-.49.73-.84.17-.34.29-.73.36-1.15.07-.43.11-.88.11-1.37v-23.6c0-.49-.06-.87-.17-1.15-.11-.29-.26-.49-.43-.62-.17-.13-.36-.22-.58-.26-.22-.04-.42-.08-.62-.11-.37-.03-.7-.09-.98-.17-.28-.09-.49-.27-.6-.56-.09-.14-.08-.27.02-.38.1-.11.25-.17.45-.17h5.86c.77,0,1.55-.02,2.33-.07.78-.04,1.53.05,2.24.28.23.06.32.21.28.45-.04.24-.19.35-.45.32l-.6-.04c-.65-.06-1.2.11-1.62.51-.43.4-.64.96-.64,1.67v21.72c0,1.51.49,2.7,1.45,3.55.97.86,2.16,1.28,3.59,1.28s2.68-.4,3.85-1.2c1.17-.8,2.07-1.85,2.69-3.16.06-.09.15-.14.28-.17.13-.03.24-.03.34-.02.1.01.19.06.28.13.09.07.11.17.09.28-.03.14-.05.27-.06.38Z"/>
    <path class="cls-1" d="M629.2,594.87c-.1.67-.19,1.35-.28,2.03l-.13,1.03c-.06.2-.2.3-.43.3l-.77.21h-5.43c-.66,0-1.31,0-1.97.02-.65.01-1.31.02-1.97.02-1.2,0-2.38-.01-3.55-.04-1.17-.03-2.27-.1-3.29-.21-.29,0-.42-.12-.41-.36.01-.24.16-.36.45-.36.54-.03.98-.14,1.3-.34.33-.2.58-.47.75-.81.17-.34.28-.73.34-1.17s.09-.91.09-1.39v-23.81c0-.37-.04-.67-.13-.9-.09-.23-.21-.4-.36-.53-.16-.13-.33-.22-.51-.28-.19-.06-.38-.11-.58-.17-.31-.06-.61-.14-.9-.26-.28-.11-.57-.27-.86-.47-.23-.11-.3-.26-.21-.43.09-.17.24-.26.47-.26h16.41c.17,0,.43-.1.77-.3.2-.05.38-.05.53.02.15.07.22.18.19.32-.09.8-.21,1.6-.36,2.4-.16.8-.32,1.57-.49,2.31-.03.11-.06.21-.09.3-.03.09-.06.2-.09.34-.06.23-.23.34-.51.34s-.44-.11-.47-.34c-.11-1.31-.55-2.17-1.3-2.59-.75-.41-1.72-.62-2.88-.62h-.73c-.26,0-.51.01-.77.04-.28.03-.58.04-.9.04h-.9c-.23,0-.38.01-.45.04-.07.03-.22.01-.45-.04v11.41h6.29c.14,0,.36-.05.64-.15.28-.1.57-.22.86-.36.31-.14.59-.26.83-.36.24-.1.43-.16.58-.19.17-.03.33,0,.47.09.14.09.2.2.17.34-.06.43-.11.86-.17,1.3-.06.44-.11.88-.17,1.31-.17,1.05-.3,2.14-.38,3.25,0,.17-.1.28-.3.34-.2.06-.39.01-.56-.13-.17-.17-.31-.37-.41-.6-.1-.23-.18-.43-.24-.6-.09-.26-.16-.51-.24-.77-.07-.26-.18-.44-.32-.55-.17-.17-.53-.31-1.07-.41-.54-.1-1.13-.17-1.77-.21-.64-.04-1.27-.07-1.9-.07h-2.26v11.54c.51.88,1.27,1.52,2.29,1.9,1.01.38,1.99.58,2.93.58,1.23,0,2.29-.33,3.19-.98.9-.65,1.5-1.62,1.82-2.91.03-.11.1-.19.21-.22.11-.03.23-.03.34-.02.11.01.22.06.32.13.1.07.14.16.11.28-.17.66-.31,1.32-.41,1.99Z"/>
    <path class="cls-1" d="M652.12,593.7c-.73,1.11-1.64,2.07-2.76,2.86-1.11.8-2.34,1.42-3.68,1.86-1.34.44-2.62.66-3.85.66-.6,0-1.23-.06-1.88-.19-.66-.13-1.25-.34-1.79-.64-.54-.3-.99-.71-1.35-1.22-.36-.51-.53-1.14-.53-1.88,0-.46.04-.88.13-1.28.09-.4.19-.8.3-1.2.06-.31.11-.61.17-.88.06-.27.11-.52.17-.75.03-.11.09-.19.19-.24.1-.04.21-.06.32-.06.14,0,.26.03.34.09.09.06.13.14.13.26l-.04.68c-.06.77.06,1.46.36,2.07.3.61.72,1.13,1.26,1.56.54.43,1.16.75,1.84.98.68.23,1.39.34,2.14.34.65,0,1.33-.11,2.01-.34.68-.23,1.3-.56,1.86-.98.56-.43,1.01-.94,1.37-1.54.36-.6.53-1.27.53-2.01s-.17-1.42-.51-2.14c-.34-.71-.79-1.42-1.35-2.12-.56-.7-1.19-1.4-1.9-2.12-.71-.71-1.44-1.44-2.18-2.18v.04c-.83-.8-1.65-1.6-2.46-2.39-.81-.8-1.53-1.61-2.16-2.44-.63-.83-1.13-1.66-1.52-2.5-.38-.84-.58-1.7-.58-2.59,0-1.31.38-2.44,1.13-3.38.75-.94,1.69-1.72,2.8-2.33,1.11-.61,2.31-1.06,3.59-1.35,1.28-.28,2.46-.43,3.55-.43,1.51,0,2.92.19,4.23.55.23.06.34.19.34.39v1.54c0,.77-.03,1.56-.09,2.37-.06.81-.28,1.49-.68,2.03-.14.14-.33.18-.56.13-.23-.06-.34-.19-.34-.38,0-.71-.12-1.35-.36-1.92-.24-.57-.59-1.05-1.05-1.45-.46-.4-.98-.71-1.56-.92-.59-.21-1.22-.32-1.9-.32s-1.28.11-1.86.34c-.58.23-1.1.55-1.54.98-.44.43-.79.93-1.05,1.52-.26.59-.38,1.23-.38,1.95s.15,1.44.47,2.1c.31.65.73,1.29,1.26,1.9s1.13,1.2,1.8,1.77c.67.57,1.35,1.15,2.03,1.75.83.69,1.64,1.38,2.44,2.1.8.71,1.51,1.46,2.14,2.25.63.78,1.13,1.62,1.52,2.5.38.89.58,1.84.58,2.87,0,1.37-.36,2.61-1.09,3.72Z"/>
    <path class="cls-1" d="M676.39,593.7c-.73,1.11-1.65,2.07-2.76,2.86-1.11.8-2.34,1.42-3.68,1.86-1.34.44-2.62.66-3.85.66-.6,0-1.23-.06-1.88-.19-.66-.13-1.25-.34-1.8-.64-.54-.3-.99-.71-1.35-1.22-.36-.51-.53-1.14-.53-1.88,0-.46.04-.88.13-1.28.09-.4.18-.8.3-1.2.06-.31.11-.61.17-.88.06-.27.11-.52.17-.75.03-.11.09-.19.19-.24.1-.04.21-.06.32-.06.14,0,.26.03.34.09.09.06.13.14.13.26l-.04.68c-.06.77.06,1.46.36,2.07.3.61.72,1.13,1.26,1.56.54.43,1.16.75,1.84.98.68.23,1.39.34,2.14.34.65,0,1.33-.11,2.01-.34.68-.23,1.3-.56,1.86-.98.56-.43,1.01-.94,1.37-1.54.36-.6.53-1.27.53-2.01s-.17-1.42-.51-2.14c-.34-.71-.79-1.42-1.35-2.12-.56-.7-1.19-1.4-1.9-2.12-.71-.71-1.44-1.44-2.18-2.18v.04c-.83-.8-1.65-1.6-2.46-2.39-.81-.8-1.53-1.61-2.16-2.44-.63-.83-1.13-1.66-1.52-2.5-.38-.84-.58-1.7-.58-2.59,0-1.31.38-2.44,1.13-3.38.76-.94,1.69-1.72,2.8-2.33,1.11-.61,2.31-1.06,3.59-1.35,1.28-.28,2.46-.43,3.55-.43,1.51,0,2.92.19,4.23.55.23.06.34.19.34.39v1.54c0,.77-.03,1.56-.09,2.37-.06.81-.29,1.49-.68,2.03-.14.14-.33.18-.56.13-.23-.06-.34-.19-.34-.38,0-.71-.12-1.35-.36-1.92-.24-.57-.59-1.05-1.05-1.45-.46-.4-.98-.71-1.56-.92-.58-.21-1.22-.32-1.9-.32s-1.28.11-1.86.34c-.59.23-1.1.55-1.54.98-.44.43-.79.93-1.05,1.52-.26.59-.38,1.23-.38,1.95s.15,1.44.47,2.1c.31.65.73,1.29,1.26,1.9s1.13,1.2,1.8,1.77c.67.57,1.35,1.15,2.03,1.75.82.69,1.64,1.38,2.44,2.1.8.71,1.51,1.46,2.14,2.25.63.78,1.13,1.62,1.52,2.5.38.89.58,1.84.58,2.87,0,1.37-.36,2.61-1.09,3.72Z"/>
    <path class="cls-1" d="M717.46,578.05c-.46,1.2-1.1,2.27-1.92,3.23-.83.95-1.81,1.72-2.95,2.31-1.14.58-2.38.88-3.72.88-.88,0-1.71-.11-2.48-.34-.14-.03-.24-.11-.28-.24-.04-.13-.05-.27-.02-.43.03-.16.09-.29.17-.39.09-.1.2-.15.34-.15.14.03.29.04.43.04h.43c2.11,0,3.75-.59,4.94-1.75,1.18-1.17,1.77-2.79,1.77-4.87,0-.94-.14-1.88-.43-2.82-.29-.94-.7-1.78-1.24-2.52-.54-.74-1.2-1.35-1.99-1.82-.78-.47-1.68-.71-2.67-.71-.48,0-.95.06-1.41.17-.46.12-.88.24-1.28.38v24.58c0,.11.03.34.08.66.06.33.12.68.19,1.05.07.37.15.71.24,1.03.09.32.15.5.21.56.14.14.36.24.64.28.28.04.54.08.77.11.4.03.74.07,1.03.11.28.04.5.22.64.53.09.14.08.26-.02.36-.1.1-.25.15-.45.15-1.71,0-3.43.01-5.15.04-1.73.03-3.46,0-5.2-.08-.28-.03-.43-.15-.45-.36-.02-.21.12-.35.4-.4.6-.11,1.07-.24,1.41-.38.34-.14.6-.34.77-.6.17-.26.27-.6.3-1.03.03-.43.04-1,.04-1.71v-23.85c0-.43-.05-.77-.15-1.03-.1-.26-.23-.45-.38-.58-.16-.13-.34-.21-.53-.26-.2-.04-.4-.08-.6-.11-.34-.06-.68-.12-1-.19-.33-.07-.56-.26-.71-.58-.08-.14-.08-.27,0-.38.09-.12.24-.17.47-.17h2.27c.46,0,.92.01,1.41.04.46.03.9.03,1.33,0,.43-.03.86-.04,1.28-.04h3.46c1.31,0,2.61.07,3.89.22,1.28.14,2.42.47,3.42.98,1,.51,1.81,1.27,2.44,2.29.63,1.01.94,2.39.94,4.12,0,1.25-.23,2.48-.68,3.68Z"/>
    <path class="cls-1" d="M755.47,589.42c-.77,1.71-1.82,3.19-3.14,4.45-1.33,1.25-2.87,2.3-4.64,3.12-1.77.83-3.65,1.47-5.64,1.93-.17.03-.38.05-.62.08-.24.03-.5.05-.77.06-.27.01-.55.02-.83.02h-.64c-1.17,0-2.38-.21-3.63-.64-1.25-.43-2.47-1-3.63-1.73-1.17-.73-2.27-1.59-3.31-2.59-1.04-1-1.94-2.07-2.72-3.23-.77-1.15-1.38-2.36-1.84-3.61-.46-1.25-.68-2.51-.68-3.76,0-2.51.27-4.73.81-6.67.54-1.94,1.41-3.62,2.61-5.04,1.2-1.43,2.74-2.61,4.62-3.57,1.88-.95,4.16-1.72,6.84-2.29.4-.09.82-.15,1.26-.19.44-.04.86-.06,1.26-.06,2.68,0,5.02.54,7.01,1.62,1.99,1.08,3.65,2.48,4.96,4.19,1.31,1.71,2.29,3.62,2.93,5.75.64,2.12.96,4.22.96,6.31,0,2.19-.38,4.15-1.15,5.85ZM751.5,577.95c-.54-1.84-1.35-3.48-2.41-4.94-1.07-1.45-2.38-2.63-3.93-3.55-1.55-.91-3.34-1.37-5.36-1.37-1.91,0-3.6.35-5.07,1.05-1.47.7-2.71,1.65-3.72,2.87-1.01,1.21-1.78,2.62-2.31,4.23-.53,1.61-.79,3.33-.79,5.15s.28,3.71.83,5.56c.56,1.85,1.38,3.52,2.46,5,1.08,1.48,2.41,2.69,4,3.61,1.58.92,3.38,1.39,5.41,1.39,1.91,0,3.59-.36,5.05-1.09,1.45-.73,2.67-1.7,3.65-2.93.98-1.23,1.73-2.66,2.24-4.3.51-1.64.77-3.36.77-5.15s-.27-3.7-.81-5.54Z"/>
    <path class="cls-1" d="M779.31,593.7c-.73,1.11-1.64,2.07-2.76,2.86-1.11.8-2.34,1.42-3.68,1.86-1.34.44-2.62.66-3.85.66-.6,0-1.23-.06-1.88-.19-.66-.13-1.25-.34-1.8-.64-.54-.3-.99-.71-1.35-1.22-.36-.51-.53-1.14-.53-1.88,0-.46.04-.88.13-1.28.09-.4.18-.8.3-1.2.06-.31.11-.61.17-.88.06-.27.11-.52.17-.75.03-.11.09-.19.19-.24.1-.04.21-.06.32-.06.14,0,.26.03.34.09.09.06.13.14.13.26l-.04.68c-.06.77.07,1.46.36,2.07.3.61.72,1.13,1.26,1.56.54.43,1.15.75,1.84.98.68.23,1.4.34,2.14.34.66,0,1.33-.11,2.01-.34.68-.23,1.3-.56,1.86-.98.56-.43,1.01-.94,1.37-1.54.36-.6.53-1.27.53-2.01s-.17-1.42-.51-2.14c-.34-.71-.79-1.42-1.35-2.12-.55-.7-1.19-1.4-1.9-2.12-.71-.71-1.44-1.44-2.18-2.18v.04c-.83-.8-1.65-1.6-2.46-2.39-.81-.8-1.53-1.61-2.16-2.44-.63-.83-1.13-1.66-1.52-2.5-.38-.84-.58-1.7-.58-2.59,0-1.31.38-2.44,1.13-3.38.75-.94,1.69-1.72,2.8-2.33,1.11-.61,2.31-1.06,3.59-1.35,1.28-.28,2.47-.43,3.55-.43,1.51,0,2.92.19,4.23.55.23.06.34.19.34.39v1.54c0,.77-.03,1.56-.09,2.37-.06.81-.29,1.49-.69,2.03-.14.14-.33.18-.56.13-.23-.06-.34-.19-.34-.38,0-.71-.12-1.35-.36-1.92-.24-.57-.59-1.05-1.05-1.45-.46-.4-.98-.71-1.56-.92-.59-.21-1.22-.32-1.9-.32s-1.27.11-1.86.34c-.59.23-1.1.55-1.54.98-.44.43-.79.93-1.05,1.52-.26.59-.38,1.23-.38,1.95s.16,1.44.47,2.1c.31.65.73,1.29,1.26,1.9.53.61,1.12,1.2,1.79,1.77.67.57,1.35,1.15,2.03,1.75.83.69,1.64,1.38,2.44,2.1.8.71,1.51,1.46,2.14,2.25.63.78,1.13,1.62,1.52,2.5.38.89.58,1.84.58,2.87,0,1.37-.36,2.61-1.09,3.72Z"/>
    <path class="cls-1" d="M802.87,593.7c-.73,1.11-1.64,2.07-2.76,2.86-1.11.8-2.34,1.42-3.68,1.86-1.34.44-2.62.66-3.85.66-.6,0-1.23-.06-1.88-.19-.66-.13-1.25-.34-1.8-.64-.54-.3-.99-.71-1.35-1.22-.36-.51-.53-1.14-.53-1.88,0-.46.04-.88.13-1.28.09-.4.18-.8.3-1.2.06-.31.11-.61.17-.88.06-.27.11-.52.17-.75.03-.11.09-.19.19-.24.1-.04.21-.06.32-.06.14,0,.26.03.34.09.09.06.13.14.13.26l-.04.68c-.06.77.07,1.46.36,2.07.3.61.72,1.13,1.26,1.56.54.43,1.15.75,1.84.98.68.23,1.4.34,2.14.34.66,0,1.33-.11,2.01-.34.68-.23,1.3-.56,1.86-.98.56-.43,1.01-.94,1.37-1.54.36-.6.53-1.27.53-2.01s-.17-1.42-.51-2.14c-.34-.71-.79-1.42-1.35-2.12-.55-.7-1.19-1.4-1.9-2.12-.71-.71-1.44-1.44-2.18-2.18v.04c-.83-.8-1.65-1.6-2.46-2.39-.81-.8-1.53-1.61-2.16-2.44-.63-.83-1.13-1.66-1.52-2.5-.38-.84-.58-1.7-.58-2.59,0-1.31.38-2.44,1.13-3.38.75-.94,1.69-1.72,2.8-2.33,1.11-.61,2.31-1.06,3.59-1.35,1.28-.28,2.47-.43,3.55-.43,1.51,0,2.92.19,4.23.55.23.06.34.19.34.39v1.54c0,.77-.03,1.56-.09,2.37-.06.81-.29,1.49-.69,2.03-.14.14-.33.18-.56.13-.23-.06-.34-.19-.34-.38,0-.71-.12-1.35-.36-1.92-.24-.57-.59-1.05-1.05-1.45-.46-.4-.98-.71-1.56-.92-.59-.21-1.22-.32-1.9-.32s-1.27.11-1.86.34c-.59.23-1.1.55-1.54.98-.44.43-.79.93-1.05,1.52-.26.59-.38,1.23-.38,1.95s.16,1.44.47,2.1c.31.65.73,1.29,1.26,1.9.53.61,1.13,1.2,1.79,1.77.67.57,1.35,1.15,2.03,1.75.83.69,1.64,1.38,2.44,2.1.8.71,1.51,1.46,2.14,2.25.63.78,1.13,1.62,1.52,2.5.38.89.58,1.84.58,2.87,0,1.37-.36,2.61-1.09,3.72Z"/>
    <path class="cls-1" d="M822.66,598.21c-.07.13-.22.19-.45.19-.74-.03-1.41-.06-2.01-.09-.6-.03-1.27-.05-2.01-.06-.74-.01-1.5-.02-2.27-.02-1.25,0-2.39.02-3.4.07-1.01.04-1.62.02-1.82-.07-.11-.06-.17-.14-.17-.26s.03-.23.09-.34c.06-.11.14-.21.26-.28.12-.07.23-.08.34-.02.14.06.4.04.79-.06.38-.1.62-.15.71-.15.31,0,.57-.14.77-.43.2-.28.36-.63.49-1.02.13-.4.21-.81.26-1.22.04-.41.07-.76.07-1.05v-23.34c0-.85-.27-1.45-.81-1.77-.54-.33-1.18-.53-1.92-.62-.26-.03-.38-.15-.38-.38s.13-.36.38-.38c.83-.06,1.65-.08,2.46-.07.81.02,1.63.02,2.46.02s1.6-.02,2.39-.05c.8-.03,1.61-.01,2.44.05.28.03.44.15.47.36.03.22-.1.35-.38.41-.77.14-1.4.36-1.88.64-.48.28-.73.87-.73,1.75v23.56c0,.14.03.38.09.7.06.33.13.68.22,1.05.08.37.18.72.28,1.05.1.33.19.55.28.66.14.06.33.11.56.17.23.06.41.09.55.09.31,0,.63.02.94.07.31.04.6.19.86.45.14.14.18.28.11.41Z"/>
    <path class="cls-1" d="M850.48,592.35c-.41,1.01-.98,1.92-1.69,2.72-.71.8-1.55,1.48-2.52,2.03-.97.56-2.01.93-3.12,1.13-.26.06-.58.09-.98.11-.4.01-.84.02-1.33.02s-1,0-1.54-.02c-.54-.01-1.07-.03-1.58-.07-.4-.03-.77-.04-1.11-.04h-6.67l-.17-.73c.6-.2,1.08-.38,1.43-.55.36-.17.63-.38.81-.64.18-.26.3-.6.34-1.03.04-.43.06-1,.06-1.71v-23.6c0-.43-.04-.77-.13-1.02s-.21-.45-.36-.58c-.16-.13-.33-.21-.51-.23-.19-.03-.36-.06-.53-.09-.37-.06-.71-.12-1-.19-.3-.07-.56-.26-.79-.58-.14-.14-.15-.28-.02-.43.13-.14.31-.2.53-.17.77.2,1.57.3,2.39.3.57,0,1.14-.02,1.71-.07.57-.04,1.15-.09,1.75-.15.57-.06,1.15-.11,1.73-.15.58-.04,1.2-.06,1.86-.06,1,0,2.03.13,3.1.41,1.07.27,2.04.69,2.91,1.26.87.57,1.59,1.28,2.16,2.14.57.85.86,1.87.86,3.03,0,.68-.11,1.35-.32,1.99-.21.64-.5,1.26-.86,1.86-.36.6-.76,1.17-1.22,1.71-.46.54-.93,1.04-1.41,1.5.97.32,1.87.75,2.71,1.3.84.56,1.57,1.21,2.18,1.95.61.74,1.09,1.58,1.43,2.5.34.92.51,1.92.51,2.97,0,1.11-.21,2.17-.62,3.18ZM846.42,588.03c-.24-.78-.58-1.52-1.02-2.2-.44-.68-.97-1.3-1.58-1.86-.61-.55-1.28-1-1.99-1.35-.68-.34-1.47-.55-2.37-.62-.9-.07-1.74-.11-2.54-.11v11.54c0,.48.14.92.43,1.3.29.38.64.72,1.07,1,.43.29.89.5,1.39.64.5.14.95.22,1.35.22.83,0,1.59-.17,2.29-.49.7-.33,1.3-.78,1.8-1.35.5-.57.88-1.23,1.15-1.97.27-.74.41-1.52.41-2.35s-.12-1.63-.36-2.41ZM843.57,571.85c-.23-.68-.55-1.29-.96-1.82-.41-.53-.93-.95-1.54-1.26-.61-.31-1.3-.47-2.07-.47s-1.43.1-2.05.3v11.2c1.03,0,1.96-.07,2.8-.21.84-.14,1.57-.43,2.2-.86.63-.43,1.11-1.02,1.46-1.77.34-.75.51-1.73.51-2.93,0-.77-.11-1.5-.34-2.18Z"/>
    <path class="cls-1" d="M871.31,598.21c-.07.13-.22.19-.45.19-.74-.03-1.41-.06-2.01-.09-.6-.03-1.27-.05-2.01-.06-.74-.01-1.5-.02-2.26-.02-1.25,0-2.39.02-3.4.07-1.01.04-1.62.02-1.82-.07-.11-.06-.17-.14-.17-.26s.03-.23.09-.34c.06-.11.14-.21.26-.28.11-.07.23-.08.34-.02.14.06.4.04.79-.06.38-.1.62-.15.71-.15.31,0,.57-.14.77-.43.2-.28.36-.63.49-1.02.13-.4.21-.81.26-1.22.04-.41.07-.76.07-1.05v-23.34c0-.85-.27-1.45-.81-1.77-.54-.33-1.18-.53-1.92-.62-.26-.03-.38-.15-.38-.38s.13-.36.38-.38c.83-.06,1.65-.08,2.46-.07.81.02,1.63.02,2.46.02s1.6-.02,2.39-.05c.8-.03,1.61-.01,2.44.05.28.03.44.15.47.36.03.22-.1.35-.38.41-.77.14-1.4.36-1.88.64-.49.28-.73.87-.73,1.75v23.56c0,.14.03.38.09.7.06.33.13.68.22,1.05.08.37.18.72.28,1.05.1.33.19.55.28.66.14.06.33.11.56.17.23.06.41.09.56.09.31,0,.63.02.94.07.31.04.6.19.86.45.14.14.18.28.11.41Z"/>
    <path class="cls-1" d="M898.61,592.8c-.01.12-.02.24-.02.39-.12,1.05-.2,2-.26,2.84-.06.84-.11,1.63-.17,2.37-.86-.09-1.7-.14-2.54-.15-.84-.01-1.68-.02-2.5-.02h-2.26c-.77,0-1.54.01-2.31.04-.8.03-1.58.03-2.35,0-.77-.03-1.56-.04-2.35-.04s-1.62.04-2.39.13-1.54.1-2.31.04c-.28-.03-.42-.16-.4-.41.01-.24.16-.36.45-.36.51-.03.93-.15,1.24-.36.31-.22.56-.49.73-.84.17-.34.29-.73.36-1.15.07-.43.11-.88.11-1.37v-23.6c0-.49-.06-.87-.17-1.15-.11-.29-.26-.49-.43-.62-.17-.13-.36-.22-.58-.26-.21-.04-.42-.08-.62-.11-.37-.03-.7-.09-.98-.17-.29-.09-.49-.27-.6-.56-.09-.14-.08-.27.02-.38.1-.11.25-.17.45-.17h5.86c.77,0,1.54-.02,2.33-.07.78-.04,1.53.05,2.24.28.23.06.32.21.28.45-.04.24-.19.35-.45.32l-.6-.04c-.65-.06-1.2.11-1.62.51-.43.4-.64.96-.64,1.67v21.72c0,1.51.48,2.7,1.45,3.55.97.86,2.16,1.28,3.59,1.28s2.68-.4,3.85-1.2c1.17-.8,2.07-1.85,2.69-3.16.06-.09.15-.14.28-.17.13-.03.24-.03.34-.02.1.01.19.06.28.13.09.07.11.17.09.28-.03.14-.05.27-.06.38Z"/>
    <path class="cls-1" d="M914.85,598.21c-.07.13-.22.19-.45.19-.74-.03-1.41-.06-2.01-.09-.6-.03-1.27-.05-2.01-.06-.74-.01-1.5-.02-2.27-.02-1.25,0-2.39.02-3.4.07-1.01.04-1.62.02-1.82-.07-.11-.06-.17-.14-.17-.26s.03-.23.09-.34c.06-.11.14-.21.26-.28.11-.07.23-.08.34-.02.14.06.41.04.79-.06.38-.1.62-.15.71-.15.31,0,.57-.14.77-.43.2-.28.36-.63.49-1.02.13-.4.21-.81.26-1.22.04-.41.06-.76.06-1.05v-23.34c0-.85-.27-1.45-.81-1.77-.54-.33-1.18-.53-1.92-.62-.26-.03-.38-.15-.38-.38s.13-.36.38-.38c.83-.06,1.64-.08,2.46-.07.81.02,1.63.02,2.46.02s1.6-.02,2.39-.05c.8-.03,1.61-.01,2.44.05.28.03.44.15.47.36.03.22-.1.35-.38.41-.77.14-1.4.36-1.88.64-.48.28-.73.87-.73,1.75v23.56c0,.14.03.38.09.7.06.33.13.68.21,1.05.09.37.18.72.28,1.05.1.33.19.55.28.66.14.06.33.11.56.17.23.06.41.09.56.09.31,0,.63.02.94.07.31.04.6.19.86.45.14.14.18.28.11.41Z"/>
    <path class="cls-1" d="M945.95,570.21c-.07.78-.19,1.54-.36,2.28-.06.2-.23.3-.51.3-.26,0-.41-.1-.47-.3-.26-1.31-.8-2.18-1.64-2.61-.84-.43-1.86-.64-3.06-.64-.31,0-.6,0-.86.02-.26.01-.53.04-.81.06-.26.03-.55.05-.88.06-.33.01-.61.02-.83.02h-.73c-.23,0-.44-.01-.64-.04v24.28c0,.08.02.29.06.62.04.33.09.66.13,1,.04.34.09.66.15.94.06.29.1.44.13.47.28.28.57.46.86.51.28.06.56.1.81.13.4.03.74.07,1.03.13.28.06.5.23.64.51.09.14.09.26,0,.36s-.23.15-.43.15c-1.74,0-3.47.02-5.19.04-1.72.03-3.46.01-5.19-.04-.28-.03-.44-.14-.47-.34-.03-.2.1-.33.39-.38.6-.12,1.07-.24,1.41-.36.34-.13.6-.32.77-.58.17-.26.28-.59.32-.98.04-.4.06-.94.06-1.62v-24.92h-6.63c-.83,0-1.55.29-2.18.88-.63.59-1.11,1.25-1.45,1.99-.09.17-.25.25-.49.24-.24-.01-.39-.12-.45-.32-.03-.11-.05-.22-.06-.32-.01-.1-.02-.22-.02-.36,0-.51.09-1.07.26-1.69.17-.61.36-1.23.55-1.86.09-.26.15-.5.19-.73.04-.23.09-.46.15-.68.06-.14.16-.24.32-.28s.31-.03.45.02c.17.11.41.22.73.32.31.1.65.19,1,.28.36.09.7.15,1.03.19.33.04.58.06.75.06h18.3c.17,0,.39-.03.66-.11.27-.07.52-.13.75-.19.14-.05.31-.09.49-.11.18-.01.35-.03.49-.06.14-.03.28-.01.4.04.13.06.19.16.19.3v.94c0,.8-.04,1.59-.11,2.37Z"/>
    <path class="cls-1" d="M963.26,598.21c-.07.13-.22.19-.45.19-.74-.03-1.41-.06-2.01-.09-.6-.03-1.27-.05-2.01-.06-.74-.01-1.5-.02-2.26-.02-1.25,0-2.39.02-3.4.07-1.01.04-1.62.02-1.82-.07-.11-.06-.17-.14-.17-.26s.03-.23.09-.34c.06-.11.14-.21.26-.28.11-.07.23-.08.34-.02.14.06.41.04.79-.06.38-.1.62-.15.7-.15.31,0,.57-.14.77-.43.2-.28.36-.63.49-1.02.13-.4.21-.81.26-1.22.04-.41.06-.76.06-1.05v-23.34c0-.85-.27-1.45-.81-1.77-.54-.33-1.18-.53-1.93-.62-.26-.03-.38-.15-.38-.38s.13-.36.38-.38c.83-.06,1.65-.08,2.46-.07.81.02,1.63.02,2.46.02s1.6-.02,2.39-.05c.8-.03,1.61-.01,2.44.05.28.03.44.15.47.36.03.22-.1.35-.38.41-.77.14-1.4.36-1.88.64-.49.28-.73.87-.73,1.75v23.56c0,.14.03.38.08.7.06.33.13.68.22,1.05.09.37.18.72.28,1.05.1.33.19.55.28.66.14.06.33.11.56.17.23.06.41.09.56.09.31,0,.63.02.94.07.31.04.6.19.86.45.14.14.18.28.11.41Z"/>
    <path class="cls-1" d="M989.7,594.87c-.1.67-.19,1.35-.28,2.03l-.13,1.03c-.06.2-.2.3-.43.3l-.77.21h-5.43c-.66,0-1.31,0-1.97.02-.66.01-1.31.02-1.97.02-1.2,0-2.38-.01-3.55-.04-1.17-.03-2.26-.1-3.29-.21-.28,0-.42-.12-.4-.36.01-.24.16-.36.45-.36.54-.03.98-.14,1.3-.34.33-.2.58-.47.75-.81.17-.34.28-.73.34-1.17.06-.44.08-.91.08-1.39v-23.81c0-.37-.04-.67-.13-.9-.09-.23-.21-.4-.36-.53-.16-.13-.33-.22-.51-.28-.18-.06-.38-.11-.58-.17-.31-.06-.61-.14-.9-.26-.29-.11-.57-.27-.86-.47-.23-.11-.3-.26-.21-.43.08-.17.24-.26.47-.26h16.41c.17,0,.43-.1.77-.3.2-.05.38-.05.53.02s.22.18.19.32c-.08.8-.21,1.6-.36,2.4-.16.8-.32,1.57-.49,2.31-.03.11-.06.21-.09.3-.03.09-.06.2-.08.34-.06.23-.23.34-.51.34s-.44-.11-.47-.34c-.11-1.31-.55-2.17-1.3-2.59-.75-.41-1.72-.62-2.88-.62h-.73c-.26,0-.51.01-.77.04-.28.03-.58.04-.9.04h-.9c-.23,0-.38.01-.45.04-.07.03-.22.01-.45-.04v11.41h6.28c.14,0,.36-.05.64-.15.28-.1.57-.22.85-.36.31-.14.59-.26.84-.36.24-.1.43-.16.58-.19.17-.03.33,0,.47.09.14.09.2.2.17.34-.06.43-.12.86-.17,1.3-.06.44-.11.88-.17,1.31-.17,1.05-.3,2.14-.38,3.25,0,.17-.1.28-.3.34-.2.06-.38.01-.56-.13-.17-.17-.31-.37-.41-.6s-.18-.43-.23-.6c-.09-.26-.17-.51-.24-.77-.07-.26-.18-.44-.32-.55-.17-.17-.53-.31-1.07-.41-.54-.1-1.13-.17-1.77-.21-.64-.04-1.28-.07-1.9-.07h-2.27v11.54c.51.88,1.27,1.52,2.29,1.9,1.01.38,1.99.58,2.93.58,1.23,0,2.29-.33,3.19-.98.9-.65,1.5-1.62,1.82-2.91.03-.11.1-.19.21-.22.11-.03.23-.03.34-.02.11.01.22.06.32.13.1.07.13.16.11.28-.17.66-.31,1.32-.4,1.99Z"/>
    <path class="cls-1" d="M1012.85,593.7c-.73,1.11-1.64,2.07-2.76,2.86-1.11.8-2.34,1.42-3.68,1.86-1.34.44-2.62.66-3.85.66-.6,0-1.23-.06-1.88-.19-.66-.13-1.25-.34-1.8-.64-.54-.3-.99-.71-1.35-1.22-.36-.51-.53-1.14-.53-1.88,0-.46.04-.88.13-1.28.09-.4.18-.8.3-1.2.06-.31.11-.61.17-.88.06-.27.11-.52.17-.75.03-.11.09-.19.19-.24.1-.04.21-.06.32-.06.14,0,.26.03.34.09.09.06.13.14.13.26l-.04.68c-.06.77.06,1.46.36,2.07.3.61.72,1.13,1.26,1.56.54.43,1.16.75,1.84.98.69.23,1.4.34,2.14.34.66,0,1.33-.11,2.01-.34.68-.23,1.3-.56,1.86-.98.56-.43,1.01-.94,1.37-1.54.36-.6.53-1.27.53-2.01s-.17-1.42-.51-2.14c-.34-.71-.79-1.42-1.35-2.12-.56-.7-1.19-1.4-1.9-2.12-.71-.71-1.44-1.44-2.18-2.18v.04c-.83-.8-1.65-1.6-2.46-2.39-.81-.8-1.53-1.61-2.16-2.44-.63-.83-1.13-1.66-1.52-2.5-.38-.84-.58-1.7-.58-2.59,0-1.31.38-2.44,1.13-3.38.75-.94,1.69-1.72,2.8-2.33,1.11-.61,2.31-1.06,3.59-1.35,1.28-.28,2.47-.43,3.55-.43,1.51,0,2.92.19,4.23.55.23.06.34.19.34.39v1.54c0,.77-.03,1.56-.09,2.37-.06.81-.29,1.49-.69,2.03-.14.14-.33.18-.55.13-.23-.06-.34-.19-.34-.38,0-.71-.12-1.35-.36-1.92-.24-.57-.59-1.05-1.05-1.45-.45-.4-.98-.71-1.56-.92-.59-.21-1.22-.32-1.9-.32s-1.27.11-1.86.34c-.59.23-1.1.55-1.54.98-.44.43-.79.93-1.05,1.52-.26.59-.39,1.23-.39,1.95s.16,1.44.47,2.1c.31.65.73,1.29,1.26,1.9.53.61,1.12,1.2,1.8,1.77.67.57,1.35,1.15,2.03,1.75.83.69,1.64,1.38,2.44,2.1.8.71,1.51,1.46,2.14,2.25.63.78,1.13,1.62,1.52,2.5.38.89.58,1.84.58,2.87,0,1.37-.36,2.61-1.09,3.72Z"/>
    <path class="cls-1" d="M1024.79,596.82c-.16.26-.36.48-.6.68-.24.2-.51.36-.81.47-.3.11-.59.17-.88.17-.66,0-1.16-.28-1.52-.83-.36-.56-.53-1.1-.53-1.64,0-.57.19-1.07.58-1.5.38-.43.92-.64,1.6-.64s1.22.26,1.69.79c.47.53.71,1.08.71,1.65,0,.31-.08.6-.24.86Z"/>
  </g>
</svg>