<?xml version="1.0" encoding="UTF-8"?>
<svg id="Layer_1" xmlns="http://www.w3.org/2000/svg" viewBox="0 0 1080 298">
  <defs>
    <style>
      .cls-1, .cls-2 {
        fill: #07124a;
      }

      .cls-2 {
        fill-rule: evenodd;
      }
    </style>
  </defs>
  <path class="cls-2" d="M1060.18,65.53h-32.32l-23.44,46.52,1.94-46.52h-32.32l-52.04,103.27h32.32l23.72-46.93-3.7,46.93h33.8l52.05-103.27ZM929.27,126l8.89-17.67c5.35-10.65,8.75-18,10.23-22.33,1.33-4.24.89-8.17-1.04-11.79-1.92-3.62-5.63-6.3-11.11-8.17-5.49-1.76-12-2.69-19.88-2.69-8.45,0-16.3.93-23.56,2.89-7.27,1.87-13.64,4.65-18.97,8.27-5.64,3.51-9.79,7.44-12.76,11.78-2.82,4.34-6.82,11.69-12.01,22.03l-8.9,17.67c-5.48,10.65-8.89,18.09-10.22,22.33-1.49,4.34-1.04,8.17.89,11.89,2.07,3.61,5.78,6.31,11.27,8.06,5.33,1.77,12,2.59,20.01,2.59s16-.93,23.27-2.68c7.27-1.97,13.64-4.66,19.14-8.27,5.49-3.51,9.63-7.55,12.59-11.89,2.82-4.24,6.83-11.58,12.16-22.03ZM907.77,92.1l-24.02,47.44c-2.97,6.1-5.19,9.92-6.82,11.57-1.49,1.56-3.57,2.38-6.23,2.38-2.52,0-3.86-.61-3.86-2.06s1.49-5.06,4.61-11.06l24.31-48.27c2.68-5.28,4.9-8.59,6.38-9.62,1.64-1.14,3.41-1.65,5.49-1.65,2.38,0,3.56.61,3.7,1.96.15,1.35-1.18,4.55-3.56,9.31ZM856.17,65.53h-38.55l-52.04,103.27h38.56l52.03-103.27ZM808.88,65.53h-84.21l-10.38,20.68h22.83l-41.66,82.59h38.39l41.67-82.59h22.98l10.37-20.68ZM713.1,65.53h-55.74l-71.61,103.27h39.74l11.71-18.5h13.79l-7.4,18.5h39.57l29.95-103.27ZM659.13,132h-13.19c5.48-9.2,15.42-23.67,29.35-43.42-6.81,17.26-12.16,31.73-16.16,43.42ZM612.58,103.58l2.23-4.44c4.3-8.48,6.37-14.99,6.37-19.43-.14-4.35-2.96-8.17-8.74-11.47-5.78-3.22-14.38-4.87-25.65-4.87s-21.8,1.86-30.84,5.58c-9.19,3.73-15.56,7.86-19.41,12.3-3.71,4.44-8.15,11.58-13.05,21.5l-15.57,30.71c-3.55,7.03-5.93,12.4-6.96,15.92-1.03,3.61-.89,7.03.3,10.23,1.33,3.21,4.3,5.89,8.89,8.07,4.44,2.17,10.07,3.2,16.61,3.2,5.48,0,10.38-.72,15.26-2.27,4.75-1.56,9.36-3.92,13.65-7.14l-.29,7.34h24.31l27.87-55.41h-45.21l-7.87,15.72h7.87l-6.24,12.19c-2.36,4.86-4.44,8.07-6.36,9.72-1.78,1.66-4.15,2.48-6.97,2.48-2.53,0-4-.72-4.15-2.17,0-1.44,1.19-4.44,3.56-9.19l24.9-49.52c2.68-5.27,4.74-8.58,6.08-9.82,1.64-1.34,3.56-1.96,5.93-1.96,2.82,0,4,.82,4,2.27s-1.33,5.16-4.3,11.06l-4.74,9.41h38.54ZM527.78,65.53h-38.54l-52.04,103.27h38.55l52.03-103.27ZM388.27,65.53l-52.03,103.27h38.54l23.42-46.52c5.35,0,8.3.63,8.89,1.97.6,1.34-.59,4.76-3.26,10.23l-17.34,34.32h35.87l13.64-27.18c4.3-8.37,6.53-13.45,6.67-15.3.44-1.86-.29-3.83-1.78-6.1-1.48-2.17-5.63-3.92-12.75-5.27,8.75-.62,15.27-2.27,19.57-4.96,4.16-2.79,8.45-8.17,12.46-16.23,4.44-8.79,5.63-15.3,3.69-19.22-2.21-4.03-6.08-6.52-12-7.54-6.08-.94-18.09-1.45-36.33-1.45h-27.28ZM417.92,83.21h0c4.45,0,7.27.51,8.6,1.55,1.05,1.04.75,3.2-.89,6.42l-2.82,5.69c-2.37,4.54-4.44,7.23-6.66,8.06-2.24.83-5.49,1.24-9.79,1.24l11.55-22.96ZM287.31,65.53l-52.04,103.27h38.53l23.44-46.52c5.33,0,8.31.63,8.88,1.97.6,1.34-.58,4.76-3.25,10.23l-17.34,34.32h35.88l13.64-27.18c4.3-8.37,6.52-13.45,6.66-15.3.46-1.86-.29-3.83-1.77-6.1-1.49-2.17-5.64-3.92-12.75-5.27,8.74-.62,15.26-2.27,19.57-4.96,4.14-2.79,8.45-8.17,12.45-16.23,4.45-8.79,5.63-15.3,3.72-19.22-2.23-4.03-6.09-6.52-12.03-7.54-6.07-.94-18.08-1.45-36.3-1.45h-27.29ZM316.96,83.21h0c4.44,0,7.26.51,8.59,1.55,1.04,1.04.75,3.2-.89,6.42l-2.82,5.69c-2.36,4.54-4.44,7.23-6.67,8.06-2.21.83-5.48,1.24-9.78,1.24l11.57-22.96ZM271.88,65.53h-38.53l-52.05,103.27h38.56l52.02-103.27Z"/>
  <path class="cls-2" d="M1007.76,219.64h0c.45-2.67-2.27-5.03-8.05-7.15-5.87-1.95-13.66-3-23.52-3-11.5,0-21.44,1.14-29.76,3.32-11.04,2.93-18.45,6.42-22.24,10.73-2.9,3.33-4.34,6.58-4.34,9.91,0,2.35.9,4.46,2.7,6.42,2,2.27,5.26,4.47,9.59,6.57,7.41,3.74,18.37,7.72,32.93,12.27.55.33.73.5.73.57,0,.32-.55.41-1.81.56-4.52.41-12.3-.32-23.34-2.27-5.61-.97-11.22-2.03-16.74-3.08-6.88-1.05-12.11-1.71-15.65-1.62-2.35.16-4.52.73-6.34,2.03-1.63,1.3-2.53,2.92-2.53,5.04,0,2.51,2.26,4.15,6.6,4.79.09,0,3.34-.09,9.5-.25,1.81,0,7.05.74,15.83,2.36,9.77,1.71,17.27,2.84,22.62,3.08,2.8.16,5.96.24,9.58.24,18.01,0,27.13-2.19,27.22-6.82.09-2.69-1.99-5.6-6.14-8.61-2.82-2.03-11.94-6.34-27.51-13.08-10.4-4.63-16-7.3-16.65-8.36-.81-1.05-.46-2.11.99-3.01,4.88-3.32,11.59-5.77,20.19-7.64,7.51-1.54,14.91-2.35,22.24-2.35,2.35,0,4.43.08,6.16.24-6.97,4.31-11.5,8.77-13.57,13.16-1.09,2.03-1.64,3.66-1.64,4.87,0,.73.28,1.47.55,2.11.72,1.06,1.9,1.87,3.62,2.36,1.72.49,3.35.74,4.88.65,1.81-.25,3.98-1.06,6.43-2.52,2.07-1.3,5.61-4.72,10.12-10.24,4.61-5.69,6.97-9.35,7.34-11.3ZM857.18,269.36h0c6.97-.16,14.12-1.87,21.63-5.2,3.16-1.54,7.61-3.74,12.86-6.66,6.14-3.5,10.67-6.34,13.47-8.61,1.45-1.14,2.17-1.95,2.17-2.36,0-.16-.27-.24-.54-.24-.82,0-2.09.41-3.8,1.05-3.62,1.62-8.87,3.74-15.92,6.26-7.69,2.84-12.66,4.39-14.74,4.72-1.09.24-1.72.07-1.72-.41,0-.16.18-.48.37-.8l17.81-24.46c2.55-3.58,3.81-6.18,3.81-7.88,0-1.3-.72-2.2-2.17-2.52-2.9-.65-7.05-1.05-12.48-1.14-7.33-.16-17,2.44-29.31,7.72-13.66,5.69-24.07,10.16-31.21,13.16,6.51-6.74,11.67-11.86,15.47-15.2,4.06-3.33,7.31-5.69,9.58-7.31,1.37-1.3,2-2.84,2-4.63,0-1.14-.37-1.95-.91-2.51-2.08-2.12-5.15-3.09-8.96-3.09-4.34,0-8.04,1.14-11.03,3.49-6.15,4.87-13.85,12.11-23.33,21.86-10.41,10.8-16.56,18.11-18.36,22.09-.82,1.96-1.28,3.42-1.28,4.63,0,2.35,2.08,4.96,6.07,7.96.99.65,2.44.9,4.53.65,3.6-.49,7.13-1.47,10.12-3.17,2.89-1.95,5.78-3.81,8.68-5.77,9.77-6.26,23.7-13.32,41.71-21.29,1.26-.56,2.26-.9,2.8-.9.46,0,.73.25.73.65s-.37,1.21-1.19,2.52c-4.61,8.28-6.96,14.22-6.96,17.71,0,2.36.63,4.47,1.9,6.34,1.46,2.35,4.26,3.41,8.23,3.32ZM774.27,216.47h0c2.53.17,3.89,1.06,3.89,2.77,0,.73-.19,1.62-.63,2.6-4.43,10.06-13.12,18.92-26.24,26.55-5.33,3.1-11.39,5.94-18.09,8.46-7.77,2.84-14.29,4.39-19.53,4.47-2.62.08-3.8-.16-3.8-.9,0-.16.1-.48.18-.81,3.17-7.15,11.23-15.51,24.07-25.43,6.06-4.55,12.39-8.53,19-11.78,8.59-4.39,15.65-6.25,21.17-5.94ZM724.64,197.95h0c.27-2.68-1.18-4.71-4.16-6.18-2.72-1.29-5.7-1.87-9.14-1.54-2.26.08-4.61.8-7.05,2.03-1.81.9-3.52,2.35-5.06,4.63-1.72,2.19-2.26,3.98-1.9,5.52.54,1.87,1.8,3.49,3.79,4.55,1.99,1.14,4.34,1.71,6.96,1.71,1.17,0,2.35-.08,3.53-.32,8.14-1.96,12.39-5.36,13.03-10.4ZM692.31,251.96c-1.44,2.88-2.16,5.56-2.16,7.96,0,3.26,1.44,6.04,4.57,8.14,4.34,2.98,10.12,4.51,17.81,4.51,4.34,0,9.27-.57,14.57-1.62,11.9-2.3,24.07-6.71,36.45-13.42,8.05-4.03,14.92-8.92,20.82-14.18,8.18-7.48,12.27-14.38,12.27-20.9,0-2.11-.37-4.13-1.08-6.04-1.68-3.65-5.04-6.23-9.98-8.15-4.57-1.54-9.27-2.3-14.43-2.01h-5.42c-.48-.1-1.2-.2-2.17-.38-1.07-.2-1.92-.29-2.77-.29-3.13,0-6.48.57-9.99,1.82-12.51,4.41-23.69,10.25-33.57,17.64-5.17,3.83-10.1,8.34-15.16,13.7-2.29,2.4-4.21,4.71-5.78,6.91-6.99,2.3-12.64,4.12-16.84,5.56-4.34,1.44-8.55,2.87-12.88,4.21-6.49,2.11-10.72,3.17-12.64,3.17-1.21,0-.85-.96.85-2.79,9.75-10.54,17.08-17.53,22.02-20.98,3.6-2.5,7.22-5.08,10.84-7.58,5.17-4.03,7.69-7.1,7.69-9.2,0-1.62-1.68-2.97-4.93-4.03-2.53-.86-4.82-1.33-7.22-1.33-2.77,0-6.13,1.05-9.87,3.25-11.43,7.2-21.9,15.15-30.93,24.07-.12.19-.24.29-.48.47-11.32,3.65-20.81,6.81-28.15,9.4-6.13,2.11-12.16,4.31-18.3,6.42-6.37,2.11-10.59,3.07-12.63,3.07-1.09-.1-1.45-.29-1.45-.87,0-.29,0-.57.36-1.05,7.82-11.69,17.09-22.23,28.29-31.73l2.27-1.92c12.87-1.72,20.34-2.78,22.39-3.07,18.76-2.48,28.4-3.92,28.87-4.02,2.64-.77,5.3-1.92,7.82-3.55l-44.76-2.78c0-.38,1.56-1.63,4.69-3.55,3.49-2.4,5.3-3.64,5.42-3.74,1.33-1.24,1.8-2.5,1.8-3.64,0-1.82-1.2-3.07-3.6-3.65-1.08-.28-2.16-.37-3.37-.37-3.73,0-7.95,1.14-12.75,3.25-4.34,1.92-8.05,4.31-11.07,6.91-1.69,1.43-3.25,2.87-4.58,4.41-11.32-.1-19.87,1.14-25.63,4.02-2.17.86-3.13,2.4-3.13,4.31,0,2.01,1.2,3.56,3.6,4.7,3.73.86,6.61,1.53,8.8,1.63-2.18,1.62-4.45,3.54-6.98,6.13-5.66,5.17-10,10.06-13.23,14.47-16.86,5.95-28.89,10.16-36.47,12.76-.48.28-.85.38-1.2.38-.72,0-.72-.86.48-2.5,3.5-5.08,8.67-10.83,14.92-17.63,5.54-5.75,10.84-11.32,16.26-17.06,1.32-1.06,2.39-1.63,3.01-2.11,1.44-1.62,2.29-2.97,2.29-4.51,0-2.11-1.34-3.54-3.98-4.21-1.32-.38-2.77-.58-4.45-.58-3.73,0-6.99.77-10,2.5-3.73,1.92-7.81,4.51-12.15,8.05-4.56,3.55-8.29,7.1-11.3,10.45-.72.86-1.56,1.53-2.41,1.72-24.43,12.17-41.27,19.55-50.55,22.43-.85.38-1.56.38-1.68.38-.12,0-.24,0-.24-.1,0-.19.24-.57.72-1.43,2.29-3.64,4.81-7,7.7-10.06.84-.87,4.92-4.99,12.26-12.37,7.35-7.38,11.44-11.6,12.29-12.65,1.79-2.3,2.76-4.31,2.76-6.04,0-.57-.12-1.06-.35-1.63-.85-1.53-3.63-2.3-8.43-2.3-2.53,0-4.69.3-6.39,1.05-6.12,2.59-13.23,7.78-20.93,15.73-6.85,6.9-12.27,13.51-16.36,19.94-.12.09-.12.19-.24.19-3.86,1.05-8.92,2.59-15.17,4.6-14.2,4.6-22.62,7.19-25.16,7.77-.95.28-1.68.28-1.8.18-.37-.18-.37-.57,0-1.24,1.2-3.35,6.99-10.64,17.09-22.04,10.94-11.89,20.34-20.9,28.53-27.03,2.53-1.91,5.17-3.74,7.81-5.65,3.38-2.79,5.18-5.18,5.18-7.2,0-.76-.37-1.43-.72-2.11-1.45-2.11-4.46-3.17-9.5-3.46-2.52-.09-4.7.1-6.26.86-2.77,1.05-6.99,4.12-12.65,9.01-1.07.77-3.83,3.26-8.53,7.58-6.39,5.94-13.36,13.03-20.82,21.18-9.02,9.96-15.28,18.21-18.65,24.25-2.29,3.74-3.25,6.91-3.25,9.68,0,.86.12,1.53.37,2.3.84,1.92,3,3.46,6.5,4.61,3,.95,5.52,1.34,7.81,1.14,6.13-.38,16.61-4.02,31.29-10.93,2.39-1.05,7.35-3.54,14.92-7.38-1.33,3.35-2.05,6.52-2.05,9.58,0,3.64,1.33,6.23,3.61,7.58,1.45.86,3.37,1.24,5.53,1.24,3.38,0,7.46-.86,12.51-2.59,3.5-1.34,8.8-3.74,15.76-7.19,7.7-3.84,13.73-6.62,17.58-8.15,2.88-1.15,6.01-2.3,9.25-3.55-2.88,6.13-4.21,11.31-4.21,15.44,0,1.43.24,2.68.97,3.45.95,1.24,2.52,2.21,4.69,2.97,2.05.77,4.1.96,6.14.77,2.65-.28,6.97-1.63,12.51-4.12,3.25-1.63,6.62-3.27,9.86-4.79,8.43-4.61,15.89-8.63,22.28-12.37-1.81,3.07-2.9,6.04-3.38,8.73,0,.85-.12,1.72-.12,2.58,0,4.89,1.43,7.77,4.21,8.63,1.68.47,3.73.76,6.13.76,6.14,0,13.85-1.43,22.87-4.5,5.53-1.92,15.04-5.84,28.53-11.8,5.05-2.2,9.37-4.12,12.99-5.84-3.37,4.51-5.05,8.34-5.05,11.51,0,2.4,1.09,4.31,3.01,5.55,2.77,2.01,6.38,3.27,10.47,3.65,5.29.48,16.73-3.07,34.29-10.84,5.42-2.3,10.35-4.41,14.8-6.52ZM369.34,257.51h0c7.97-4.06,14.93-8.94,20.81-14.23,8.13-7.47,12.29-14.38,12.29-20.87,0-2.11-.45-4.15-1.17-6.09-1.62-3.58-4.96-6.18-9.94-8.13-4.52-1.53-9.32-2.27-14.47-1.95h-5.43c-.46-.16-1.18-.24-2.16-.4-1-.24-1.91-.32-2.72-.32-3.16,0-6.52.56-10.05,1.78-12.48,4.47-23.69,10.31-33.56,17.71-5.16,3.82-10.12,8.29-15.11,13.65-7.86,8.53-11.94,15.51-11.94,21.2,0,3.26,1.45,6.02,4.52,8.13,4.34,3,10.23,4.55,17.82,4.55,4.43,0,9.32-.57,14.57-1.62,11.94-2.35,24.15-6.75,36.54-13.41ZM380.02,216.47h0c2.53.17,3.89,1.06,3.89,2.77,0,.73-.18,1.62-.63,2.6-4.43,10.06-13.12,18.92-26.24,26.55-5.33,3.1-11.39,5.94-18.08,8.46-7.79,2.84-14.3,4.39-19.55,4.47-2.62.08-3.79-.16-3.79-.9,0-.16.09-.48.18-.81,3.16-7.15,11.22-15.51,24.06-25.43,6.06-4.55,12.39-8.53,19-11.78,8.6-4.39,15.65-6.25,21.17-5.94ZM316.98,208.55h0c.2-.55.29-1,.29-1.54,0-3.55-2.51-6.73-7.49-9.82-9.41-5.81-21.56-8.73-36.45-8.73s-29.18,2.55-42.96,7.73c-8.1,3.01-14.78,6.64-20.15,10.55-7.4,5.64-11.04,11.45-11.04,17.54,0,7.91,7.71,16.09,23.1,24.72,6.99,3.91,19.05,9.37,35.96,16.19.4.36-1.21.55-4.77.63-8.3.46-15.89.73-22.78.73-12.46,0-24.73-.81-36.88-2.27-.81-.09-3.34-.55-7.68-1.36-3.14-.55-5.69-.74-7.31-.74-.8,0-1.41,0-2.02.09-2.83.46-5.78,1.64-8.62,3.55-2.93,2.1-4.14,3.82-4.04,5.37.29,1.9,3.54,3.54,9.61,4.91,13.16,2.99,33.84,4.35,62,4.35,17,0,28.96-.72,35.85-2.27,7.4-1.63,11.05-4.09,10.84-7.18-.2-5.26-7.49-11.9-21.77-20.09-9.62-5.27-19.34-10.45-29.18-15.73-5.76-3.91-8.6-7.64-8.6-11.09,0-5.09,5.67-9.54,16.8-13.54,7.4-2.55,15.2-4.46,23.91-5.74,8.81-1.18,19.23-1.82,31.1-1.54-4.46,3.9-8.62,7.18-12.37,10-6.38,4.64-9.93,7.19-10.53,7.73-4.57,4.19-6.69,7.91-6.39,11,.41,3,1.52,5.27,3.64,7,2.13,1.72,4.66,2.46,7.59,2.27,2.95-.36,5.57-1.36,7.92-3.08,9.32-6.73,18.23-13.91,26.52-21.55,3.45-3.18,5.48-5.82,5.88-8.09ZM1045.75,266.71l-1.16,4.05h-4.69l1.15-4.05h4.7ZM1041.5,259.52h-6.5l.97-3.45c.31-1.01.43-1.63.35-1.89-.04-.26-.35-.38-.81-.38-.54,0-.94.16-1.16.46-.22.32-.46.95-.77,1.97l-2.63,9.25c-.27.97-.37,1.59-.32,1.88.05.31.35.44.85.44.46,0,.81-.13,1.09-.44.2-.29.48-.99.77-2.09l.73-2.49h6.5l-.23.78c-.57,2.05-1.17,3.52-1.77,4.38-.63.86-1.63,1.61-3.07,2.27-1.43.62-3.08.95-4.94.95s-3.37-.27-4.45-.81c-1.08-.55-1.68-1.31-1.8-2.29-.12-.95.07-2.4.63-4.36l1.68-5.81c.4-1.46.75-2.51,1.1-3.25.33-.71.9-1.39,1.7-2.06.81-.67,1.81-1.19,3-1.58,1.17-.39,2.5-.57,3.9-.57,1.93,0,3.41.3,4.48.9,1.1.58,1.68,1.32,1.82,2.19.13.9-.05,2.25-.57,4.1l-.55,1.9ZM1023.76,250.86l-4.56,15.91h3.93l-1.12,3.99h-10.44l5.69-19.9h6.5ZM1011.74,250.86l-4.56,15.91h3.96l-1.13,3.99h-10.45l5.68-19.9h6.51Z"/>
  <path class="cls-2" d="M167.65,164.43c-.86-9.44-3.1-19.61-6.08-28.87-1.65-5.14-4.82-11.99-7.31-16.91-2.02-3.94-3.86-7.95-5.5-12.02l-1.5-3.92c-1.86-4.8-3.65-9.62-5.34-14.47-1.64-4.69-3.01-9.45-4.11-14.23-.77-3.39-1.32-6.79-1.66-10.2-.29-3.01-.46-6.01-.52-9.01l-.65-37.11-15.63,32.74c-12.14,25.45-26.9,49.55-44.09,72.01-2.01,2.58-4.11,5.09-6.29,7.53-2.3,2.6-4.63,5.17-7,7.71-3.06,3.26-6.06,6.57-8.99,9.93-3.01,3.45-5.8,7.07-8.37,10.84-2.87,4.2-5.7,8.44-8.48,12.7-2.39,3.65-4.63,7.39-6.71,11.22-1.75,3.29-3.29,6.69-4.59,10.18-1.53,4.08-2.62,8.33-3.26,12.68-.73,4.9-1.25,9.85-1.54,14.83-.12,2.38-.11,4.78.01,7.18.14,2.86.52,5.72,1.13,8.56,2.23,10.27,8.06,18.68,17.25,25.3,10.24,7.37,23.27,11.16,35.6,11.54,8.68.26,16.43-1.4,24.23-4.18,3.69-1.3,7.31-2.74,10.86-4.31,17.44-7.68,31.36-19.78,41.65-34.62,4.96-7.1,8.87-14.85,11.64-23.06,2.99-8.9,4.81-18.18,5.41-27.68.33-4.75.27-9.55-.16-14.36ZM149.88,173.01c-1.06,13.14-4.32,26.43-11.52,37.98-2.86,4.22-4.84,9.13-9.44,12.3-3.84,2.64-8.58,4.89-13.57,4.6-2.8-.29-5.88-.43-7.75-2.71-2.32-2.54-1.56-5.85-.18-8.9s5.19-4.23,7.45-6.62c8.03-7.93,14.78-16.95,18.9-27.03,4.23-10.62,5.12-22.05,4.53-33.09-.6-8.79-2.39-17.42-5.82-25.56-1.28-2.94-2.55-5.84-4.12-8.79,9.57,9.61,16.3,21.22,19.67,33.71,2.07,7.9,2.42,15.99,1.85,24.11Z"/>
  <path class="cls-1" d="M167.77,164.42c-.2-2.22-.47-4.46-.81-6.65-.36-2.42-.8-4.85-1.3-7.25-1.06-5.05-2.39-10.09-3.97-15-.39-1.22-.9-2.63-1.43-3.96-.55-1.4-1.14-2.81-1.74-4.2-1.3-2.94-2.69-5.89-4.15-8.77-2-3.9-3.85-7.94-5.49-12l-1.5-3.93c-1.86-4.78-3.66-9.64-5.34-14.46-1.62-4.64-3-9.43-4.11-14.22-.76-3.34-1.31-6.77-1.66-10.18-.28-2.98-.46-6.01-.51-9.01l-.66-37.1v-.1l-.2-.04-15.66,32.83c-5.74,12.04-12.16,23.93-19.07,35.34-7.64,12.61-16.05,24.94-25.01,36.65-2,2.56-4.12,5.09-6.29,7.52-2.29,2.58-4.64,5.17-7,7.7-3.03,3.24-6.06,6.59-8.99,9.94-2.99,3.43-5.81,7.08-8.38,10.84-2.86,4.21-5.72,8.48-8.48,12.71-2.38,3.64-4.64,7.42-6.72,11.23-1.74,3.28-3.29,6.71-4.59,10.19-1.54,4.1-2.64,8.38-3.27,12.71-.73,4.91-1.25,9.9-1.54,14.85-.11,2.38-.11,4.8,0,7.18.14,2.88.53,5.77,1.14,8.59.5,2.31,1.2,4.59,2.1,6.78.99,2.42,2.24,4.75,3.69,6.93.7,1.03,1.44,2.05,2.23,3.01,2.56,3.16,5.68,6.07,9.28,8.65,2.31,1.66,4.77,3.15,7.3,4.44,2.81,1.43,5.74,2.65,8.72,3.64,2.99,1,6.08,1.79,9.19,2.36,3.44.64,6.96,1.02,10.46,1.12.59.02,1.18.03,1.77.03,3.32,0,6.65-.28,9.93-.84,2.03-.35,4.06-.8,6.05-1.33,2.19-.59,4.39-1.28,6.52-2.04,3.67-1.29,7.32-2.74,10.87-4.31,3.75-1.65,7.43-3.55,10.94-5.66,3.9-2.34,7.67-4.98,11.21-7.84,3.54-2.87,6.92-6.02,10.03-9.35,3.45-3.69,6.65-7.67,9.53-11.82,4.96-7.11,8.88-14.88,11.65-23.09,2.99-8.89,4.82-18.21,5.42-27.71.32-4.78.26-9.62-.17-14.38ZM141.16,241.24c-3.1,3.33-6.47,6.47-10.01,9.34-3.53,2.85-7.29,5.48-11.18,7.82-3.5,2.1-7.17,4-10.91,5.64-3.54,1.57-7.19,3.02-10.85,4.3-2.13.77-4.32,1.45-6.5,2.04-1.98.53-4.01.98-6.03,1.32-3.84.66-7.76.93-11.65.81-3.49-.1-7-.48-10.43-1.12-3.09-.56-6.17-1.36-9.15-2.35-2.97-.98-5.89-2.2-8.68-3.62-2.53-1.28-4.98-2.77-7.28-4.42-3.57-2.57-6.68-5.46-9.23-8.61-.78-.96-1.52-1.96-2.21-2.99-1.45-2.16-2.68-4.48-3.67-6.89-.89-2.17-1.59-4.44-2.09-6.74-.61-2.8-.99-5.67-1.13-8.54-.12-2.37-.12-4.78,0-7.16.29-4.94.81-9.92,1.54-14.82.63-4.32,1.72-8.57,3.26-12.66,1.29-3.47,2.83-6.89,4.57-10.16,2.08-3.81,4.33-7.58,6.71-11.21,2.76-4.23,5.61-8.5,8.48-12.7,2.56-3.76,5.38-7.4,8.36-10.83,2.93-3.35,5.95-6.69,8.99-9.93,2.35-2.53,4.71-5.12,7-7.71,2.17-2.43,4.29-4.96,6.29-7.53,8.97-11.71,17.39-24.05,25.03-36.67,6.92-11.42,13.34-23.32,19.09-35.36l15.39-32.27.65,36.58c.05,3,.23,6.04.52,9.03.34,3.42.9,6.85,1.65,10.2,1.11,4.81,2.5,9.6,4.12,14.26,1.69,4.81,3.49,9.68,5.34,14.46l1.51,3.93c1.64,4.07,3.49,8.12,5.5,12.03,1.45,2.86,2.85,5.81,4.14,8.75.6,1.39,1.19,2.8,1.74,4.19.53,1.33,1.03,2.73,1.42,3.95,1.58,4.89,2.91,9.93,3.96,14.97.5,2.39.94,4.83,1.31,7.23.33,2.2.6,4.43.8,6.64.43,4.75.49,9.58.17,14.34-.6,9.48-2.42,18.78-5.4,27.65-2.77,8.19-6.68,15.94-11.63,23.03-2.87,4.14-6.06,8.1-9.5,11.78Z"/>
</svg>