<?xml version="1.0" encoding="UTF-8"?>
<svg id="Layer_1" xmlns="http://www.w3.org/2000/svg" viewBox="0 0 1080 401">
  <defs>
    <style>
      .cls-1 {
        fill: #07124a;
      }
    </style>
  </defs>
  <g>
    <path class="cls-1" d="M479.26,200.86l-.65,2.2c3.78.27,6.21.82,7.28,1.62,1.06.81,1.6,1.97,1.6,3.47,0,1.65-.42,3.93-1.25,6.81l-15.09,51.68c-1.5,5.17-3.18,8.52-5.04,10.04-1.85,1.52-4.79,2.28-8.82,2.28l-.71,2.19h68.68l8.35-22.03h-2.43c-4.74,5.81-10.08,10.14-16.04,13-5.96,2.86-12.32,4.29-19.07,4.29-3.51,0-5.9-.39-7.16-1.18-.87-.55-1.3-1.28-1.3-2.19,0-1.15.33-2.9,1-5.27l7.7-26.94h4.62c4.22,0,7,.2,8.34.59,2.06.59,3.72,1.58,5.01,2.96,1.28,1.38,1.92,3.16,1.92,5.33,0,1.3-.18,3-.53,5.09h2.07l9-31.26h-2.19c-2.29,4.82-5.08,8.17-8.38,10.07-3.29,1.89-8.53,2.84-15.72,2.84h-2.72l8.94-31.15h7.52c6.16,0,10.61.59,13.35,1.75,2.74,1.17,4.94,3.01,6.6,5.54,1.07,1.62,1.68,4.4,1.84,8.35h2.13l5.15-20.08h-64Z"/>
    <path class="cls-1" d="M608.33,258.65c-4.23,5.96-9.39,10.44-15.49,13.44-6.09,3-12.42,4.5-18.97,4.5-1.98,0-3.41-.34-4.29-1.04-.89-.69-1.34-1.43-1.34-2.22,0-1.3.87-4.95,2.61-10.95l13.62-47.19c1.42-4.85,3.05-8.07,4.88-9.65,1.84-1.58,4.61-2.41,8.32-2.48l.65-2.2h-38.54l-.65,2.2c3.47.15,5.8.71,6.98,1.65,1.19.95,1.78,2.21,1.78,3.79s-.42,3.85-1.25,6.69l-14.92,51.57c-1.49,5.17-3.12,8.5-4.88,9.98-1.76,1.48-4.55,2.22-8.38,2.22l-.65,2.19h64.12l8.88-22.5h-2.48Z"/>
    <path class="cls-1" d="M634.2,200.86l-.65,2.2c3.79.27,6.22.82,7.28,1.62,1.07.81,1.6,1.97,1.6,3.47,0,1.65-.41,3.93-1.24,6.81l-15.1,51.68c-1.5,5.17-3.18,8.52-5.03,10.04-1.86,1.52-4.8,2.28-8.83,2.28l-.71,2.19h68.68l8.35-22.03h-2.43c-4.73,5.81-10.08,10.14-16.04,13-5.96,2.86-12.32,4.29-19.07,4.29-3.51,0-5.9-.39-7.16-1.18-.87-.55-1.3-1.28-1.3-2.19,0-1.15.33-2.9,1-5.27l7.7-26.94h4.62c4.22,0,7.01.2,8.35.59,2.05.59,3.72,1.58,5,2.96,1.28,1.38,1.92,3.16,1.92,5.33,0,1.3-.17,3-.53,5.09h2.07l9-31.26h-2.19c-2.29,4.82-5.08,8.17-8.37,10.07-3.3,1.89-8.54,2.84-15.72,2.84h-2.73l8.94-31.15h7.52c6.16,0,10.61.59,13.35,1.75,2.75,1.17,4.95,3.01,6.6,5.54,1.07,1.62,1.68,4.4,1.84,8.35h2.13l5.15-20.08h-64Z"/>
    <path class="cls-1" d="M781.86,199.03c-2.01,2.13-4.01,3.2-5.98,3.2-.99,0-2.74-.36-5.27-1.07-4.93-1.42-9.06-2.13-12.37-2.13-8.73,0-17.5,2.48-26.32,7.43-8.82,4.95-15.58,11.45-20.28,19.48-4.7,8.03-7.04,16.47-7.04,25.31,0,9.43,2.94,17.08,8.85,22.94,5.9,5.86,13.68,8.79,23.35,8.79,7.23,0,13.33-1.48,18.33-4.44,4.99-2.96,9.93-8.11,14.83-15.45h-2.84c-3.95,4.62-7.86,7.95-11.73,10.01-3.86,2.05-8.15,3.07-12.84,3.07-5.81,0-10.37-1.78-13.71-5.35-3.34-3.57-5-8.75-5-15.54,0-7.58,1.52-15.26,4.56-23.04,3.75-9.59,8.32-16.71,13.73-21.37,5.41-4.66,10.84-6.99,16.28-6.99,5.06,0,9.15,1.71,12.29,5.13,3.14,3.41,4.84,8.59,5.12,15.54h2.31l5.92-25.52h-2.19Z"/>
    <path class="cls-1" d="M796.96,200.86l-6.34,21.62h2.31c3.44-5.81,7.22-9.95,11.37-12.44,4.14-2.48,9.29-3.83,15.45-4.02l-17.88,60.45c-1.54,5.29-3.24,8.69-5.09,10.21-1.86,1.52-4.82,2.28-8.88,2.28l-.71,2.19h39.84l.54-2.19c-3.75-.08-6.24-.57-7.46-1.45-1.23-.89-1.84-2.08-1.84-3.58,0-1.62.49-4.11,1.48-7.46l17.88-60.45c5.72.31,9.79,1.6,12.2,3.87,2.41,2.27,3.61,5.46,3.61,9.57,0,.86-.04,1.87-.12,3.02h2.13l6.1-21.62h-64.59Z"/>
    <path class="cls-1" d="M914.48,264.99l-7.22-24.34c7.22-2.01,12.25-4.4,15.1-7.16,4.49-4.42,6.75-9.38,6.75-14.86s-1.94-9.48-5.81-12.79c-3.87-3.32-10.56-4.98-20.07-4.98h-33.27l-.59,2.2c3.75.27,6.13.82,7.16,1.65,1.03.83,1.54,2.04,1.54,3.61,0,1.66-.41,3.93-1.24,6.81l-14.92,51.51c-1.51,5.21-3.15,8.57-4.95,10.07-1.79,1.5-4.63,2.25-8.49,2.25l-.71,2.19h38.66l.83-2.19c-3.87-.08-6.42-.57-7.64-1.48-1.23-.91-1.84-2.11-1.84-3.61,0-1.62.52-4.15,1.54-7.58l7.11-24.34c.9.08,1.58.12,2.01.12l1.95-.12,11.37,39.2h24.99v-2.19c-3.36-.12-5.76-.85-7.2-2.19-1.44-1.34-3.13-5.27-5.06-11.78ZM890.74,238.52c-.95,0-2.11-.04-3.49-.12l9.71-32.86c1.06-.04,1.99-.06,2.78-.06,3.23,0,5.84.99,7.81,2.96,1.98,1.98,2.96,4.86,2.96,8.65,0,6.39-1.85,11.56-5.56,15.51-3.71,3.95-8.45,5.92-14.21,5.92Z"/>
    <path class="cls-1" d="M949.89,200.86l-.66,2.2c4.19.27,6.83.82,7.94,1.65,1.1.83,1.66,1.98,1.66,3.44,0,1.62-.46,4-1.37,7.16l-14.8,51.39c-1.5,5.13-3.18,8.46-5.03,9.98-1.86,1.52-4.78,2.28-8.76,2.28l-.65,2.19h39.84l.59-2.19c-3.94-.08-6.63-.63-8.05-1.66-1.1-.79-1.66-1.89-1.66-3.32,0-1.22.54-3.65,1.6-7.28l14.69-51.39c1.42-5.01,3.06-8.31,4.94-9.89,1.87-1.57,4.59-2.36,8.14-2.36l.77-2.2h-39.19Z"/>
    <path class="cls-1" d="M1064.87,199.03c-2.02,2.13-4.01,3.2-5.99,3.2-.98,0-2.74-.36-5.26-1.07-4.94-1.42-9.06-2.13-12.38-2.13-8.72,0-17.49,2.48-26.32,7.43-8.82,4.95-15.58,11.45-20.27,19.48-4.7,8.03-7.05,16.47-7.05,25.31,0,9.43,2.95,17.08,8.85,22.94,5.9,5.86,13.69,8.79,23.36,8.79,7.22,0,13.33-1.48,18.32-4.44,5-2.96,9.94-8.11,14.83-15.45h-2.84c-3.95,4.62-7.85,7.95-11.72,10.01-3.87,2.05-8.15,3.07-12.85,3.07-5.8,0-10.37-1.78-13.7-5.35-3.34-3.57-5.01-8.75-5.01-15.54,0-7.58,1.52-15.26,4.56-23.04,3.75-9.59,8.33-16.71,13.74-21.37,5.4-4.66,10.83-6.99,16.28-6.99,5.05,0,9.15,1.71,12.28,5.13,3.14,3.41,4.85,8.59,5.13,15.54h2.3l5.93-25.52h-2.19Z"/>
  </g>
  <path class="cls-1" d="M114.21,299.93c-1.5,0-3-.05-4.5-.14-37.23-2.32-61.04-32.41-62.04-33.69l4.48-3.49c.23.29,23.31,29.38,57.96,31.51,21.77,1.33,43.55-8.07,64.82-27.99-.01-.01-.02-.02-.03-.03l.37-.29c1.19-1.12,2.38-2.28,3.57-3.47l.39.39.16-.12s.59.74,1.62,1.9l1.85,1.85-.08.08c7.63,8.03,27.59,26.03,54.56,27.68,21.78,1.35,43.55-8.07,64.81-27.98-.01-.02-.02-.03-.03-.04l.42-.33c1.18-1.11,2.35-2.25,3.52-3.42l.38.38.15-.12s.56.71,1.55,1.82l1.94,1.94-.08.08c7.63,8.04,27.59,26.02,54.55,27.68,23.11,1.42,46.23-9.27,68.73-31.78l4.02,4.02c-23.73,23.73-48.34,34.97-73.16,33.43-29.15-1.82-50.08-20.67-58.26-29.37-22.43,20.95-45.6,30.83-68.96,29.37-29.16-1.82-50.09-20.67-58.27-29.38-20.99,19.6-42.64,29.52-64.47,29.52Z"/>
  <g>
    <path class="cls-1" d="M288.03,284.67l-3.26-4.66-40.58-58.03s41.93.06,42.06.06l-22.83-30.92c-.32-.03-.63-.06-.95-.1-33.66-3.97-56.45-30.4-56.45-66.98,0-13.41,3.06-25.46,8.61-35.53.12-.23.25-.46.37-.69-15.36-19.73-62.03-79.65-62.59-79.57l-137.79.02,171.15,174.64h-80.88l138.07,111.33h.03l6.51,5.24,112.04,90.32-73.51-105.13ZM250.05,185.26s0,0,.01,0c1.33.44,2.69.83,4.08,1.18-25.93-11.27-40.75-36.77-34.33-91.97.01-.15.02-.29.03-.44,0,0-1.03-1.32-2.83-3.64-.13.22-.25.45-.37.68-4.93,9.45-7.62,20.63-7.62,32.96,0,29.86,15.78,52.99,41.03,61.22Z"/>
    <path class="cls-1" d="M288.62,284.27l-3.25-4.65-39.82-56.94c7.18.02,40.44.07,40.69.07h1.41s-23.28-31.53-23.28-31.53c-.32-.03-.64-.06-.95-.1-.32-.03-.63-.06-.95-.1l22.38,30.31c-6.89,0-36.85-.05-40.65-.06h-1.36l41.34,59.13,3.26,4.65,70.67,101.08-107.63-86.77-6.41-5.16-137.18-110.59h80.56L16.3,8.97l135.83-.02c2.96,3.16,39.67,50.2,62.5,79.56.12-.23.25-.46.37-.69.13-.22.25-.44.38-.65-6.19-7.96-17.3-22.23-28.45-36.49C153.16,7.47,152.92,7.47,152.41,7.54l-139.47.02,171.15,174.64h-81.2l139.01,112.05,6.61,5.33,116.46,93.88-76.35-109.19ZM219.11,94.4c-5.56,47.81,4.3,77.08,30.94,90.86,0,0,0,0,.01,0,1.33.44,2.69.83,4.08,1.18,1.39.36,2.81.67,4.25.93-31.82-11.72-43.87-41.36-37.88-92.84l.05-.72-.17-.21s-1.1-1.42-3.02-3.89c-.12.23-.25.45-.36.68-.13.22-.25.45-.37.68.85,1.09,1.67,2.15,2.47,3.18v.14Z"/>
  </g>
  <g>
    <path class="cls-1" d="M271.44,59.55c-24.56,0-43.76,11.58-54.07,30.17-.12.23-.25.45-.36.68-.13.22-.25.45-.37.68-4.93,9.45-7.62,20.63-7.62,32.96,0,29.86,15.78,52.99,41.03,61.22,0,0,0,0,.01,0,1.33.44,2.69.83,4.08,1.18,1.39.36,2.81.67,4.25.93,4.15.76,8.51,1.16,13.05,1.16,37.42,0,62.43-26.91,62.43-64.5s-25.01-64.49-62.43-64.49ZM271.44,154.84c-5.04,0-21.48-2.22-21.48-30.8s16.44-30.8,21.48-30.8,21.49,2.23,21.49,30.8-16.45,30.8-21.49,30.8Z"/>
    <path class="cls-1" d="M271.44,59.55c-24.56,0-43.76,11.58-54.07,30.17-.12.23-.25.45-.36.68-.13.22-.25.45-.37.68-4.93,9.45-7.62,20.63-7.62,32.96,0,29.86,15.78,52.99,41.03,61.22,0,0,0,0,.01,0,1.33.44,2.69.83,4.08,1.18,1.39.36,2.81.67,4.25.93,4.15.76,8.51,1.16,13.05,1.16,37.42,0,62.43-26.91,62.43-64.5s-25.01-64.49-62.43-64.49ZM271.44,157.84c-9.65,0-24.48-6.38-24.48-33.8s14.83-33.8,24.48-33.8,24.49,6.38,24.49,33.8-14.83,33.8-24.49,33.8Z"/>
    <path class="cls-1" d="M420.78,137.32c-2.24,11.55-7.24,20.52-20,20.52-17.76,0-23.45-17.24-23.45-33.8s5.69-33.8,23.45-33.8c15.69,0,19.14,13.63,19.83,18.11h36.9c-3.28-30.87-21.9-48.63-55.7-48.8-37.94,0-62.42,25.69-62.42,64.49,0,36.39,22.59,64.5,62.42,64.5,36.04,0,56.22-26.39,56.22-51.22h-37.25Z"/>
    <path class="cls-1" d="M504.94,154.05v-15.35h58.11v-29.31h-58.11v-15.35h63.97v-31.56h-101.91v123.12h103.81v-31.55h-65.87Z"/>
    <path class="cls-1" d="M659.62,62.48h-37.07l-45.36,123.12h38.11l5.52-17.58h39.15l5.17,17.58h39.32l-44.84-123.12ZM629.1,141.63l11.9-37.94h.34l11.04,37.94h-23.28Z"/>
    <path class="cls-1" d="M788.09,62.48v65.87h-.34l-35.87-65.87h-38.8v123.12h35.87v-67.25h.34l37.77,67.25h36.9V62.48h-35.87Z"/>
  </g>
  <g>
    <path class="cls-1" d="M789.3,286.47h-5.04l-20.85,34.62h5.14l6.06-10.42h14.6l1.6,10.42h4.75l-6.26-34.62ZM776.7,306.79l9.26-16.25h.1l2.57,16.25h-11.93Z"/>
    <path class="cls-1" d="M805.46,286.47l-7.28,34.62h4.13l7.27-34.62h-4.12Z"/>
    <path class="cls-1" d="M841.68,296.02l-9.5,19.93h-.1l-1.21-19.93h-4.66l-9.02,19.93h-.09l-1.55-19.93h-4.37l2.96,25.07h4.36l8.98-19.49h.09l1.26,19.49h4.37l12.95-25.07h-4.47Z"/>
    <path class="cls-1" d="M865.55,316.83c0-1.17.48-2.57.68-3.59l1.6-6.84c.29-1.36.77-3.15.77-4.56,0-5.09-4.31-6.4-9.16-6.4-5.34,0-10.04,2.57-10.87,8.15h4.13c.48-3.25,3.59-4.51,6.74-4.51,2.18,0,5.04.58,5.04,3.29,0,3.35-1.94,3.59-6.3,3.98-5.53.49-12.66.97-12.66,8.24,0,5.15,3.49,7.08,7.66,7.08s6.64-1.31,8.39-3.63l.1.1c-.24,2.18.97,3.53,3.25,3.53.72,0,1.89-.24,2.52-.58l.63-3.05c-.39.14-.92.34-1.31.34-.68,0-1.21-.39-1.21-1.55ZM861.18,314.74c-1.45,2.23-3.83,3.3-7.03,3.3-2.33,0-4.51-1.17-4.51-3.49,0-3.2,2.62-4.13,5.58-4.56,3-.39,6.25-.63,8.05-1.7h.1c-.59,2.33-.83,4.56-2.19,6.45Z"/>
    <path class="cls-1" d="M891.16,296.02l-10.53,19.93h-.09l-2.91-19.93h-4.42l4.42,25.07-2.53,4.17c-.97,1.6-2.03,2.72-3.88,2.72-.72,0-1.74-.29-2.37-.68l-.73,3.35c.78.38,1.89.63,2.86.63,4.22,0,6.06-2.67,8.1-5.92l16.59-29.34h-4.51Z"/>
    <path class="cls-1" d="M907.79,306.88c-3.29-1.35-6.59-2.28-6.59-4.6,0-2.52,2.81-3.2,5.33-3.2,2.86,0,5.38,1.45,5.19,4.31h4.12c0-5.87-4.8-7.95-9.45-7.95s-9.31,2.57-9.31,7.23c0,3.78,3.29,5.47,6.64,6.78,3.3,1.36,6.59,2.33,6.59,4.76,0,2.86-3.05,3.83-5.72,3.83-3.44,0-6.59-1.12-6.4-4.85h-4.12c-.05,6.4,4.41,8.48,10.14,8.48,4.84,0,10.23-2.18,10.23-7.75,0-3.93-3.35-5.68-6.65-7.04Z"/>
    <path class="cls-1" d="M935.05,286.47l-.82,3.88h11.64l-6.5,30.74h4.61l6.49-30.74h11.64l.87-3.88h-27.93Z"/>
    <path class="cls-1" d="M976.42,295.44c-3.44,0-6.84,1.55-8.92,4.36l-.1-.09,2.96-13.24h-4.12l-7.32,34.62h4.12l2.91-13.87c.53-1.98,1.31-3.97,2.76-5.23,1.55-1.65,3.93-2.91,6.21-2.91,2.42,0,4.36,1.11,4.36,3.49,0,.87-.38,2.96-.58,3.88l-3.2,14.64h4.12l3.06-14.3c.43-1.94.73-3.83.73-4.9,0-4.41-2.28-6.45-6.99-6.45Z"/>
    <path class="cls-1" d="M1009.74,309.79c.15-.67.39-1.94.39-3.25,0-7.08-3.25-11.1-10.62-11.1-6.89,0-12.9,6.55-12.9,16.15,0,4.36,2.33,10.08,10.62,10.08,5.48,0,10.04-2.91,11.35-8.43h-4.12c-1.17,3.1-3.64,4.8-7.23,4.8-3.34,0-6.5-2.18-6.5-6.06,0-.73.05-1.46.15-2.19h18.86ZM1000.14,299.08c4.56,0,6.16,3.54,5.87,7.08h-14.55c1.21-3.88,3.83-7.08,8.68-7.08Z"/>
    <path class="cls-1" d="M1029.05,295.44c-4.22,0-7.18,2.52-9.12,5.96h-.1l1.21-5.38h-3.88l-5.23,25.07h4.12l2.38-11.1c.38-1.89.97-4.27,2.08-5.87,1.31-1.99,3.06-3.49,5.34-4.07.97-.25,1.45-.25,2.47-.25.39,0,.82,0,1.21.05l.97-4.41c-.48-.1-.97,0-1.45,0Z"/>
  </g>
  <path class="cls-1" d="M1052.23,309.79c.15-.67.39-1.94.39-3.25,0-7.08-3.25-11.1-10.62-11.1-6.88,0-12.9,6.55-12.9,16.15,0,4.36,2.33,10.08,10.62,10.08,5.48,0,10.04-2.91,11.35-8.43h-4.12c-1.17,3.1-3.64,4.8-7.23,4.8-3.34,0-6.49-2.18-6.49-6.06,0-.73.04-1.46.14-2.19h18.86ZM1042.63,299.08c4.56,0,6.16,3.54,5.87,7.08h-14.55c1.21-3.88,3.83-7.08,8.68-7.08Z"/>
  <g>
    <path class="cls-1" d="M1051.52,288.38c-.76-.31-1.53-.53-1.53-1.07,0-.59.65-.74,1.24-.74.67,0,1.25.33,1.21,1h.95c0-1.37-1.11-1.85-2.19-1.85s-2.17.6-2.17,1.68c0,.88.77,1.28,1.55,1.58.76.32,1.53.54,1.53,1.11,0,.66-.71.89-1.33.89-.8,0-1.54-.26-1.49-1.13h-.96c-.01,1.49,1.03,1.97,2.36,1.97,1.13,0,2.38-.5,2.38-1.8,0-.92-.78-1.32-1.55-1.64Z"/>
    <path class="cls-1" d="M1061.24,285.72c-.78,0-1.55.43-2,1.05-.17-.76-.73-1.05-1.46-1.05-.8,0-1.54.42-2.04,1.03l-.02-.03.22-.87h-.89l-1.25,5.84h.96l.66-3.06c.12-.57.21-.92.62-1.32.34-.38.9-.74,1.43-.74s.81.28.81.76c0,.14-.08.58-.18,1.03l-.7,3.33h.96l.65-3.01c.1-.5.22-.97.54-1.31.32-.42.92-.8,1.46-.8.51,0,.9.33.9.79,0,.17-.05.45-.09.63l-.82,3.7h.96l.74-3.5c.07-.33.17-.82.17-1.16,0-.95-.81-1.31-1.63-1.31Z"/>
  </g>
</svg>